  0
SECTION
  2
HEADER
  9
$ACADVER
  1
AC1027
  9
$ACADMAINTVER
 70
     8
  9
$DWGCODEPAGE
  3
ANSI_1252
  9
$REQUIREDVERSIONS
160
                 0
  9
$INSBASE
 10
0.0
 20
0.0
 30
0.0
  9
$EXTMIN
 10
1.000000000000000E+20
 20
1.000000000000000E+20
 30
1.000000000000000E+20
  9
$EXTMAX
 10
-1.000000000000000E+20
 20
-1.000000000000000E+20
 30
-1.000000000000000E+20
  9
$LIMMIN
 10
0.0
 20
0.0
  9
$LIMMAX
 10
12.0
 20
9.0
  9
$ORTHOMODE
 70
     0
  9
$REGENMODE
 70
     1
  9
$FILLMODE
 70
     1
  9
$QTEXTMODE
 70
     0
  9
$MIRRTEXT
 70
     1
  9
$LTSCALE
 40
1.0
  9
$ATTMODE
 70
     1
  9
$TEXTSIZE
 40
2.5
  9
$TRACEWID
 40
0.05
  9
$TEXTSTYLE
  7
Standard
  9
$CLAYER
  8
0
  9
$CELTYPE
  6
ByLayer
  9
$CECOLOR
 62
   178
  9
$CELTSCALE
 40
1.0
  9
$DISPSILH
 70
     0
  9
$DIMSCALE
 40
1.0
  9
$DIMASZ
 40
0.125
  9
$DIMEXO
 40
0.03125
  9
$DIMDLI
 40
0.38
  9
$DIMRND
 40
0.0
  9
$DIMDLE
 40
0.0
  9
$DIMEXE
 40
0.0625
  9
$DIMTP
 40
0.0
  9
$DIMTM
 40
0.0
  9
$DIMTXT
 40
0.125
  9
$DIMCEN
 40
0.09
  9
$DIMTSZ
 40
0.0
  9
$DIMTOL
 70
     0
  9
$DIMLIM
 70
     0
  9
$DIMTIH
 70
     1
  9
$DIMTOH
 70
     1
  9
$DIMSE1
 70
     0
  9
$DIMSE2
 70
     0
  9
$DIMTAD
 70
     0
  9
$DIMZIN
 70
     8
  9
$DIMBLK
  1

  9
$DIMASO
 70
     1
  9
$DIMSHO
 70
     1
  9
$DIMPOST
  1

  9
$DIMAPOST
  1

  9
$DIMALT
 70
     0
  9
$DIMALTD
 70
     2
  9
$DIMALTF
 40
25.4
  9
$DIMLFAC
 40
1.0
  9
$DIMTOFL
 70
     0
  9
$DIMTVP
 40
0.0
  9
$DIMTIX
 70
     0
  9
$DIMSOXD
 70
     0
  9
$DIMSAH
 70
     0
  9
$DIMBLK1
  1

  9
$DIMBLK2
  1

  9
$DIMSTYLE
  2
Standard
  9
$DIMCLRD
 70
   178
  9
$DIMCLRE
 70
   178
  9
$DIMCLRT
 70
   178
  9
$DIMTFAC
 40
1.0
  9
$DIMGAP
 40
0.03125
  9
$DIMJUST
 70
     0
  9
$DIMSD1
 70
     0
  9
$DIMSD2
 70
     0
  9
$DIMTOLJ
 70
     1
  9
$DIMTZIN
 70
     0
  9
$DIMALTZ
 70
     0
  9
$DIMALTTZ
 70
     0
  9
$DIMUPT
 70
     0
  9
$DIMDEC
 70
     4
  9
$DIMTDEC
 70
     4
  9
$DIMALTU
 70
     2
  9
$DIMALTTD
 70
     2
  9
$DIMTXSTY
  7
Standard
  9
$DIMAUNIT
 70
     0
  9
$DIMADEC
 70
     0
  9
$DIMALTRND
 40
0.0
  9
$DIMAZIN
 70
     2
  9
$DIMDSEP
 70
    46
  9
$DIMATFIT
 70
     3
  9
$DIMFRAC
 70
     0
  9
$DIMLDRBLK
  1

  9
$DIMLUNIT
 70
     2
  9
$DIMLWD
 70
    -2
  9
$DIMLWE
 70
    -2
  9
$DIMTMOVE
 70
     0
  9
$DIMFXL
 40
1.0
  9
$DIMFXLON
 70
     0
  9
$DIMJOGANG
 40
0.7853981633974483
  9
$DIMTFILL
 70
     0
  9
$DIMTFILLCLR
 70
     0
  9
$DIMARCSYM
 70
     0
  9
$DIMLTYPE
  6

  9
$DIMLTEX1
  6

  9
$DIMLTEX2
  6

  9
$DIMTXTDIRECTION
 70
     0
  9
$LUNITS
 70
     2
  9
$LUPREC
 70
     4
  9
$SKETCHINC
 40
0.1
  9
$FILLETRAD
 40
0.5
  9
$AUNITS
 70
     0
  9
$AUPREC
 70
     0
  9
$MENU
  1
.
  9
$ELEVATION
 40
0.0
  9
$PELEVATION
 40
0.0
  9
$THICKNESS
 40
0.0
  9
$LIMCHECK
 70
     0
  9
$CHAMFERA
 40
0.0
  9
$CHAMFERB
 40
0.0
  9
$CHAMFERC
 40
0.0
  9
$CHAMFERD
 40
0.0
  9
$SKPOLY
 70
     0
  9
$TDCREATE
 40
2457745.672870371
  9
$TDUCREATE
 40
2457746.006203704
  9
$TDUPDATE
 40
2457745.672870371
  9
$TDUUPDATE
 40
2457746.006203704
  9
$TDINDWG
 40
0.0000000116
  9
$TDUSRTIMER
 40
0.0000000116
  9
$USRTIMER
 70
     1
  9
$ANGBASE
 50
0.0
  9
$ANGDIR
 70
     0
  9
$PDMODE
 70
     0
  9
$PDSIZE
 40
0.0
  9
$PLINEWID
 40
0.0
  9
$SPLFRAME
 70
     0
  9
$SPLINETYPE
 70
     6
  9
$SPLINESEGS
 70
     8
  9
$HANDSEED
  5
10646
  9
$SURFTAB1
 70
     6
  9
$SURFTAB2
 70
     6
  9
$SURFTYPE
 70
     6
  9
$SURFU
 70
     6
  9
$SURFV
 70
     6
  9
$UCSBASE
  2

  9
$UCSNAME
  2

  9
$UCSORG
 10
0.0
 20
0.0
 30
0.0
  9
$UCSXDIR
 10
1.0
 20
0.0
 30
0.0
  9
$UCSYDIR
 10
0.0
 20
1.0
 30
0.0
  9
$UCSORTHOREF
  2

  9
$UCSORTHOVIEW
 70
     0
  9
$UCSORGTOP
 10
0.0
 20
0.0
 30
0.0
  9
$UCSORGBOTTOM
 10
0.0
 20
0.0
 30
0.0
  9
$UCSORGLEFT
 10
0.0
 20
0.0
 30
0.0
  9
$UCSORGRIGHT
 10
0.0
 20
0.0
 30
0.0
  9
$UCSORGFRONT
 10
0.0
 20
0.0
 30
0.0
  9
$UCSORGBACK
 10
0.0
 20
0.0
 30
0.0
  9
$PUCSBASE
  2

  9
$PUCSNAME
  2

  9
$PUCSORG
 10
0.0
 20
0.0
 30
0.0
  9
$PUCSXDIR
 10
1.0
 20
0.0
 30
0.0
  9
$PUCSYDIR
 10
0.0
 20
1.0
 30
0.0
  9
$PUCSORTHOREF
  2

  9
$PUCSORTHOVIEW
 70
     0
  9
$PUCSORGTOP
 10
0.0
 20
0.0
 30
0.0
  9
$PUCSORGBOTTOM
 10
0.0
 20
0.0
 30
0.0
  9
$PUCSORGLEFT
 10
0.0
 20
0.0
 30
0.0
  9
$PUCSORGRIGHT
 10
0.0
 20
0.0
 30
0.0
  9
$PUCSORGFRONT
 10
0.0
 20
0.0
 30
0.0
  9
$PUCSORGBACK
 10
0.0
 20
0.0
 30
0.0
  9
$USERI1
 70
     0
  9
$USERI2
 70
     0
  9
$USERI3
 70
     0
  9
$USERI4
 70
     0
  9
$USERI5
 70
     0
  9
$USERR1
 40
0.0
  9
$USERR2
 40
0.0
  9
$USERR3
 40
0.0
  9
$USERR4
 40
0.0
  9
$USERR5
 40
0.0
  9
$WORLDVIEW
 70
     1
  9
$SHADEDGE
 70
     3
  9
$SHADEDIF
 70
    70
  9
$TILEMODE
 70
     1
  9
$MAXACTVP
 70
     2
  9
$PINSBASE
 10
0.0
 20
0.0
 30
0.0
  9
$PLIMCHECK
 70
     0
  9
$PEXTMIN
 10
1.000000000000000E+20
 20
1.000000000000000E+20
 30
1.000000000000000E+20
  9
$PEXTMAX
 10
-1.000000000000000E+20
 20
-1.000000000000000E+20
 30
-1.000000000000000E+20
  9
$PLIMMIN
 10
0.0
 20
0.0
  9
$PLIMMAX
 10
12.0
 20
9.0
  9
$UNITMODE
 70
     0
  9
$VISRETAIN
 70
     1
  9
$PLINEGEN
 70
     0
  9
$PSLTSCALE
 70
     1
  9
$TREEDEPTH
 70
  3020
  9
$CMLSTYLE
  2
Standard
  9
$CMLJUST
 70
     0
  9
$CMLSCALE
 40
1.0
  9
$PROXYGRAPHICS
 70
     1
  9
$MEASUREMENT
 70
     0
  9
$CELWEIGHT
370
    -1
  9
$ENDCAPS
280
     0
  9
$JOINSTYLE
280
     0
  9
$LWDISPLAY
290
     0
  9
$INSUNITS
 70
     1
  9
$HYPERLINKBASE
  1

  9
$STYLESHEET
  1

  9
$XEDIT
290
     1
  9
$CEPSNTYPE
380
     0
  9
$PSTYLEMODE
290
     1
  9
$FINGERPRINTGUID
  2
{95A08C0F-797E-827D-12F3-451F32659AB7}
  9
$VERSIONGUID
  2
{FAEB1C32-E019-11D5-929B-00C0DF256EC4}
  9
$EXTNAMES
290
     1
  9
$PSVPSCALE
 40
0.0
  9
$OLESTARTUP
290
     0
  9
$SORTENTS
280
   127
  9
$INDEXCTL
280
     0
  9
$HIDETEXT
280
     1
  9
$XCLIPFRAME
280
     2
  9
$HALOGAP
280
     0
  9
$OBSCOLOR
 70
   257
  9
$OBSLTYPE
280
     0
  9
$INTERSECTIONDISPLAY
280
     0
  9
$INTERSECTIONCOLOR
 70
   257
  9
$DIMASSOC
280
     2
  9
$PROJECTNAME
  1

  9
$CAMERADISPLAY
290
     0
  9
$LENSLENGTH
 40
50.0
  9
$CAMERAHEIGHT
 40
0.0
  9
$STEPSPERSEC
 40
2.0
  9
$STEPSIZE
 40
6.0
  9
$3DDWFPREC
 40
2.0
  9
$PSOLWIDTH
 40
0.25
  9
$PSOLHEIGHT
 40
4.0
  9
$LOFTANG1
 40
1.570796326794897
  9
$LOFTANG2
 40
1.570796326794897
  9
$LOFTMAG1
 40
0.0
  9
$LOFTMAG2
 40
0.0
  9
$LOFTPARAM
 70
     7
  9
$LOFTNORMALS
280
     1
  9
$LATITUDE
 40
37.795
  9
$LONGITUDE
 40
-122.394
  9
$NORTHDIRECTION
 40
0.0
  9
$TIMEZONE
 70
 -8000
  9
$LIGHTGLYPHDISPLAY
280
     1
  9
$TILEMODELIGHTSYNCH
280
     1
  9
$CMATERIAL
347
1058D
  9
$SOLIDHIST
280
     0
  9
$SHOWHIST
280
     1
  9
$DWFFRAME
280
     2
  9
$DGNFRAME
280
     2
  9
$REALWORLDSCALE
290
     1
  9
$INTERFERECOLOR
 62
   256
  9
$CSHADOW
280
     0
  9
$SHADOWPLANELOCATION
 40
0.0
  0
ENDSEC
  0
SECTION
  2
CLASSES
  0
CLASS
  1
ACDBDICTIONARYWDFLT
  2
AcDbDictionaryWithDefault
  3
ObjectDBX Classes
 90
        0
 91
        4
280
     0
281
     0
  0
CLASS
  1
VISUALSTYLE
  2
AcDbVisualStyle
  3
ObjectDBX Classes
 90
     4095
 91
        4
280
     0
281
     0
  0
CLASS
  1
MATERIAL
  2
AcDbMaterial
  3
ObjectDBX Classes
 90
     1153
 91
        4
280
     0
281
     0
  0
CLASS
  1
SCALE
  2
AcDbScale
  3
ObjectDBX Classes
 90
     1153
 91
        4
280
     0
281
     0
  0
CLASS
  1
TABLESTYLE
  2
AcDbTableStyle
  3
ObjectDBX Classes
 90
     4095
 91
        4
280
     0
281
     0
  0
CLASS
  1
MLEADERSTYLE
  2
AcDbMLeaderStyle
  3
ACDB_MLEADERSTYLE_CLASS
 90
     4095
 91
        4
280
     0
281
     0
  0
CLASS
  1
SUN
  2
AcDbSun
  3
SCENEOE
 90
     1153
 91
        4
280
     0
281
     0
  0
CLASS
  1
DICTIONARYVAR
  2
AcDbDictionaryVar
  3
ObjectDBX Classes
 90
        0
 91
        4
280
     0
281
     0
  0
CLASS
  1
CELLSTYLEMAP
  2
AcDbCellStyleMap
  3
ObjectDBX Classes
 90
     1152
 91
        4
280
     0
281
     0
  0
ENDSEC
  0
SECTION
  2
TABLES
  0
TABLE
  2
VPORT
  5
10552
330
0
100
AcDbSymbolTable
 70
     1
  0
VPORT
  5
10572
330
10552
100
AcDbSymbolTableRecord
100
AcDbViewportTableRecord
  2
*Active
 70
     0
 10
0.0
 20
0.0
 11
1.0
 21
1.0
 12
2440.584622998364
 22
-574.0542430100104
 13
0.0
 23
0.0
 14
0.5
 24
0.5
 15
0.5
 25
0.5
 16
0.0
 26
0.0
 36
1.0
 17
0.0
 27
0.0
 37
0.0
 40
7737.195590158346
 41
1.694672131147541
 42
50.0
 43
0.0
 44
0.0
 50
0.0
 51
0.0
 71
     0
 72
   100
 73
     1
 74
     3
 75
     0
 76
     0
 77
     0
 78
     0
281
     0
 65
     1
110
0.0
120
0.0
130
0.0
111
1.0
121
0.0
131
0.0
112
0.0
122
1.0
132
0.0
 79
     0
146
0.0
 60
     3
 61
     5
292
     1
282
     1
141
0.0
142
0.0
 63
   250
361
105B6
  0
ENDTAB
  0
TABLE
  2
LTYPE
  5
1054F
330
0
100
AcDbSymbolTable
 70
    48
  0
LTYPE
  5
1055D
330
1054F
100
AcDbSymbolTableRecord
100
AcDbLinetypeTableRecord
  2
ByBlock
 70
     0
  3

 72
    65
 73
     0
 40
0.0
  0
LTYPE
  5
1055E
330
1054F
100
AcDbSymbolTableRecord
100
AcDbLinetypeTableRecord
  2
ByLayer
 70
     0
  3

 72
    65
 73
     0
 40
0.0
  0
LTYPE
  5
1055F
330
1054F
100
AcDbSymbolTableRecord
100
AcDbLinetypeTableRecord
  2
Continuous
 70
     0
  3
Solid line
 72
    65
 73
     0
 40
0.0
  0
LTYPE
  5
105F0
330
1054F
100
AcDbSymbolTableRecord
100
AcDbLinetypeTableRecord
  2
HIDDEN
 70
     0
  3
Hidden __ __ __ __ __ __ __ __ __ __ __ __ __ __
 72
    65
 73
     2
 40
9.524999999999999
 49
6.35
 74
     0
 49
-3.175
 74
     0
  0
LTYPE
  5
105F1
330
1054F
100
AcDbSymbolTableRecord
100
AcDbLinetypeTableRecord
  2
ACAD_ISO11W100
 70
     0
  3
ISO double-dash dot __ __ . __ __ . __ __ . __ _
 72
    65
 73
     6
 40
33.0
 49
12.0
 74
     0
 49
-3.0
 74
     0
 49
12.0
 74
     0
 49
-3.0
 74
     0
 49
0.0
 74
     0
 49
-3.0
 74
     0
  0
LTYPE
  5
105F2
330
1054F
100
AcDbSymbolTableRecord
100
AcDbLinetypeTableRecord
  2
ACAD_ISO10W100
 70
     0
  3
ISO dash dot __ . __ . __ . __ . __ . __ . __ . 
 72
    65
 73
     4
 40
18.0
 49
12.0
 74
     0
 49
-3.0
 74
     0
 49
0.0
 74
     0
 49
-3.0
 74
     0
  0
LTYPE
  5
105F3
330
1054F
100
AcDbSymbolTableRecord
100
AcDbLinetypeTableRecord
  2
ACAD_ISO13W100
 70
     0
  3
ISO double-dash double-dot __ __ . . __ __ . . _
 72
    65
 73
     8
 40
36.0
 49
12.0
 74
     0
 49
-3.0
 74
     0
 49
12.0
 74
     0
 49
-3.0
 74
     0
 49
0.0
 74
     0
 49
-3.0
 74
     0
 49
0.0
 74
     0
 49
-3.0
 74
     0
  0
LTYPE
  5
105F4
330
1054F
100
AcDbSymbolTableRecord
100
AcDbLinetypeTableRecord
  2
ACAD_ISO12W100
 70
     0
  3
ISO dash double-dot __ . . __ . . __ . . __ . . 
 72
    65
 73
     6
 40
21.0
 49
12.0
 74
     0
 49
-3.0
 74
     0
 49
0.0
 74
     0
 49
-3.0
 74
     0
 49
0.0
 74
     0
 49
-3.0
 74
     0
  0
LTYPE
  5
105F5
330
1054F
100
AcDbSymbolTableRecord
100
AcDbLinetypeTableRecord
  2
ACAD_ISO15W100
 70
     0
  3
ISO double-dash triple-dot __ __ . . . __ __ . .
 72
    65
 73
    10
 40
39.0
 49
12.0
 74
     0
 49
-3.0
 74
     0
 49
12.0
 74
     0
 49
-3.0
 74
     0
 49
0.0
 74
     0
 49
-3.0
 74
     0
 49
0.0
 74
     0
 49
-3.0
 74
     0
 49
0.0
 74
     0
 49
-3.0
 74
     0
  0
LTYPE
  5
105F6
330
1054F
100
AcDbSymbolTableRecord
100
AcDbLinetypeTableRecord
  2
ACAD_ISO14W100
 70
     0
  3
ISO dash triple-dot __ . . . __ . . . __ . . . _
 72
    65
 73
     8
 40
24.0
 49
12.0
 74
     0
 49
-3.0
 74
     0
 49
0.0
 74
     0
 49
-3.0
 74
     0
 49
0.0
 74
     0
 49
-3.0
 74
     0
 49
0.0
 74
     0
 49
-3.0
 74
     0
  0
LTYPE
  5
105F7
330
1054F
100
AcDbSymbolTableRecord
100
AcDbLinetypeTableRecord
  2
BORDER
 70
     0
  3
Border __ __ . __ __ . __ __ . __ __ . __ __ .
 72
    65
 73
     6
 40
44.45
 49
12.7
 74
     0
 49
-6.35
 74
     0
 49
12.7
 74
     0
 49
-6.35
 74
     0
 49
0.0
 74
     0
 49
-6.35
 74
     0
  0
LTYPE
  5
105FA
330
1054F
100
AcDbSymbolTableRecord
100
AcDbLinetypeTableRecord
  2
BATTING
 70
     0
  3
Batting SSSSSSSSSSSSSSSSSSSSSSSSSSSSSSSSSSSSSSSSSSSSSSS
 72
    65
 73
     4
 40
10.16254
 49
0.00254
 74
     0
 49
-2.54
 74
     2
 75
     0
340
105F8
 46
2.54
 50
0.0
 44
-2.54
 45
0.0
  9
BAT
 49
-5.08
 74
     2
 75
     0
340
105F9
 46
2.54
 50
180.0
 44
2.54
 45
0.0
  9
BAT
 49
-2.54
 74
     0
  0
LTYPE
  5
105FB
330
1054F
100
AcDbSymbolTableRecord
100
AcDbLinetypeTableRecord
  2
BORDERX2
 70
     0
  3
Border (2x) ____  ____  .  ____  ____  .  ___
 72
    65
 73
     6
 40
88.89999999999999
 49
25.4
 74
     0
 49
-12.7
 74
     0
 49
25.4
 74
     0
 49
-12.7
 74
     0
 49
0.0
 74
     0
 49
-12.7
 74
     0
  0
LTYPE
  5
105FC
330
1054F
100
AcDbSymbolTableRecord
100
AcDbLinetypeTableRecord
  2
BORDER2
 70
     0
  3
Border (.5x) __.__.__.__.__.__.__.__.__.__.__.
 72
    65
 73
     6
 40
22.225
 49
6.35
 74
     0
 49
-3.175
 74
     0
 49
6.35
 74
     0
 49
-3.175
 74
     0
 49
0.0
 74
     0
 49
-3.175
 74
     0
  0
LTYPE
  5
105FD
330
1054F
100
AcDbSymbolTableRecord
100
AcDbLinetypeTableRecord
  2
CENTER2
 70
     0
  3
Center (.5x) ___ _ ___ _ ___ _ ___ _ ___ _ ___
 72
    65
 73
     4
 40
28.575
 49
19.05
 74
     0
 49
-3.175
 74
     0
 49
3.175
 74
     0
 49
-3.175
 74
     0
  0
LTYPE
  5
105FE
330
1054F
100
AcDbSymbolTableRecord
100
AcDbLinetypeTableRecord
  2
CENTER
 70
     0
  3
Center ____ _ ____ _ ____ _ ____ _ ____ _ ____
 72
    65
 73
     4
 40
50.8
 49
31.75
 74
     0
 49
-6.35
 74
     0
 49
6.35
 74
     0
 49
-6.35
 74
     0
  0
LTYPE
  5
105FF
330
1054F
100
AcDbSymbolTableRecord
100
AcDbLinetypeTableRecord
  2
DASHDOT
 70
     0
  3
Dash dot __ . __ . __ . __ . __ . __ . __ . __
 72
    65
 73
     4
 40
25.4
 49
12.7
 74
     0
 49
-6.35
 74
     0
 49
0.0
 74
     0
 49
-6.35
 74
     0
  0
LTYPE
  5
10600
330
1054F
100
AcDbSymbolTableRecord
100
AcDbLinetypeTableRecord
  2
CENTERX2
 70
     0
  3
Center (2x) ________  __  ________  __  _____
 72
    65
 73
     4
 40
101.6
 49
63.5
 74
     0
 49
-12.7
 74
     0
 49
12.7
 74
     0
 49
-12.7
 74
     0
  0
LTYPE
  5
10601
330
1054F
100
AcDbSymbolTableRecord
100
AcDbLinetypeTableRecord
  2
DASHDOTX2
 70
     0
  3
Dash dot (2x) ____  .  ____  .  ____  .  ___
 72
    65
 73
     4
 40
50.8
 49
25.4
 74
     0
 49
-12.7
 74
     0
 49
0.0
 74
     0
 49
-12.7
 74
     0
  0
LTYPE
  5
10602
330
1054F
100
AcDbSymbolTableRecord
100
AcDbLinetypeTableRecord
  2
DASHDOT2
 70
     0
  3
Dash dot (.5x) _._._._._._._._._._._._._._._.
 72
    65
 73
     4
 40
12.7
 49
6.35
 74
     0
 49
-3.175
 74
     0
 49
0.0
 74
     0
 49
-3.175
 74
     0
  0
LTYPE
  5
10603
330
1054F
100
AcDbSymbolTableRecord
100
AcDbLinetypeTableRecord
  2
ACAD_ISO03W100
 70
     0
  3
ISO dash space __    __    __    __    __    __
 72
    65
 73
     2
 40
30.0
 49
12.0
 74
     0
 49
-18.0
 74
     0
  0
LTYPE
  5
10604
330
1054F
100
AcDbSymbolTableRecord
100
AcDbLinetypeTableRecord
  2
ACAD_ISO02W100
 70
     0
  3
ISO dash __ __ __ __ __ __ __ __ __ __ __ __ __
 72
    65
 73
     2
 40
15.0
 49
12.0
 74
     0
 49
-3.0
 74
     0
  0
LTYPE
  5
10605
330
1054F
100
AcDbSymbolTableRecord
100
AcDbLinetypeTableRecord
  2
ACAD_ISO05W100
 70
     0
  3
ISO long-dash double-dot ____ .. ____ .. ____ . 
 72
    65
 73
     6
 40
33.0
 49
24.0
 74
     0
 49
-3.0
 74
     0
 49
0.0
 74
     0
 49
-3.0
 74
     0
 49
0.0
 74
     0
 49
-3.0
 74
     0
  0
LTYPE
  5
10606
330
1054F
100
AcDbSymbolTableRecord
100
AcDbLinetypeTableRecord
  2
ACAD_ISO04W100
 70
     0
  3
ISO long-dash dot ____ . ____ . ____ . ____ . _
 72
    65
 73
     4
 40
30.0
 49
24.0
 74
     0
 49
-3.0
 74
     0
 49
0.0
 74
     0
 49
-3.0
 74
     0
  0
LTYPE
  5
10607
330
1054F
100
AcDbSymbolTableRecord
100
AcDbLinetypeTableRecord
  2
ACAD_ISO07W100
 70
     0
  3
ISO dot . . . . . . . . . . . . . . . . . . . . 
 72
    65
 73
     2
 40
3.0
 49
0.0
 74
     0
 49
-3.0
 74
     0
  0
LTYPE
  5
10608
330
1054F
100
AcDbSymbolTableRecord
100
AcDbLinetypeTableRecord
  2
ACAD_ISO06W100
 70
     0
  3
ISO long-dash triple-dot ____ ... ____ ... ____
 72
    65
 73
     8
 40
36.0
 49
24.0
 74
     0
 49
-3.0
 74
     0
 49
0.0
 74
     0
 49
-3.0
 74
     0
 49
0.0
 74
     0
 49
-3.0
 74
     0
 49
0.0
 74
     0
 49
-3.0
 74
     0
  0
LTYPE
  5
10609
330
1054F
100
AcDbSymbolTableRecord
100
AcDbLinetypeTableRecord
  2
ACAD_ISO09W100
 70
     0
  3
ISO long-dash double-short-dash ____ __ __ ____
 72
    65
 73
     6
 40
45.0
 49
24.0
 74
     0
 49
-3.0
 74
     0
 49
6.0
 74
     0
 49
-3.0
 74
     0
 49
6.0
 74
     0
 49
-3.0
 74
     0
  0
LTYPE
  5
1060A
330
1054F
100
AcDbSymbolTableRecord
100
AcDbLinetypeTableRecord
  2
ACAD_ISO08W100
 70
     0
  3
ISO long-dash short-dash ____ __ ____ __ ____ _
 72
    65
 73
     4
 40
36.0
 49
24.0
 74
     0
 49
-3.0
 74
     0
 49
6.0
 74
     0
 49
-3.0
 74
     0
  0
LTYPE
  5
1060C
330
1054F
100
AcDbSymbolTableRecord
100
AcDbLinetypeTableRecord
  2
HOT_WATER_SUPPLY
 70
     0
  3
Hot water supply ---- HW ---- HW ---- HW ----
 72
    65
 73
     3
 40
22.86
 49
12.7
 74
     0
 49
-5.08
 74
     2
 75
     0
340
1060B
 46
2.54
 50
0.0
 44
-2.54
 45
-1.27
  9
HW
 49
-5.08
 74
     0
  0
LTYPE
  5
1060D
330
1054F
100
AcDbSymbolTableRecord
100
AcDbLinetypeTableRecord
  2
HIDDENX2
 70
     0
  3
Hidden (2x) ____ ____ ____ ____ ____ ____ ____ 
 72
    65
 73
     2
 40
19.05
 49
12.7
 74
     0
 49
-6.35
 74
     0
  0
LTYPE
  5
1060E
330
1054F
100
AcDbSymbolTableRecord
100
AcDbLinetypeTableRecord
  2
PHANTOM2
 70
     0
  3
Phantom (.5x) ___ _ _ ___ _ _ ___ _ _ ___ _ _
 72
    65
 73
     6
 40
31.75
 49
15.875
 74
     0
 49
-3.175
 74
     0
 49
3.175
 74
     0
 49
-3.175
 74
     0
 49
3.175
 74
     0
 49
-3.175
 74
     0
  0
LTYPE
  5
1060F
330
1054F
100
AcDbSymbolTableRecord
100
AcDbLinetypeTableRecord
  2
PHANTOM
 70
     0
  3
Phantom ______  __  __  ______  __  __  ______ 
 72
    65
 73
     6
 40
63.50000000000001
 49
31.75
 74
     0
 49
-6.35
 74
     0
 49
6.35
 74
     0
 49
-6.35
 74
     0
 49
6.35
 74
     0
 49
-6.35
 74
     0
  0
LTYPE
  5
10611
330
1054F
100
AcDbSymbolTableRecord
100
AcDbLinetypeTableRecord
  2
TRACKS
 70
     0
  3
Tracks -|-|-|-|-|-|-|-|-|-|-|-|-|-|-|-|-|-|-|-|-|-|-|-|-
 72
    65
 73
     2
 40
7.62
 49
3.81
 74
     2
 75
     0
340
10610
 46
6.35
 50
0.0
 44
0.0
 45
0.0
  9
TRACK1
 49
3.81
 74
     0
  0
LTYPE
  5
10612
330
1054F
100
AcDbSymbolTableRecord
100
AcDbLinetypeTableRecord
  2
PHANTOMX2
 70
     0
  3
Phantom (2x) ____________    ____    ____   _
 72
    65
 73
     6
 40
127.0
 49
63.5
 74
     0
 49
-12.7
 74
     0
 49
12.7
 74
     0
 49
-12.7
 74
     0
 49
12.7
 74
     0
 49
-12.7
 74
     0
  0
LTYPE
  5
10615
330
1054F
100
AcDbSymbolTableRecord
100
AcDbLinetypeTableRecord
  2
ZIGZAG
 70
     0
  3
Zig zag /\/\/\/\/\/\/\/\/\/\/\/\/\/\/\/\/\/\/\/\/\/\/\/
 72
    65
 73
     4
 40
20.32254
 49
0.00254
 74
     0
 49
-5.08
 74
     2
 75
     0
340
10613
 46
5.08
 50
0.0
 44
-5.08
 45
0.0
  9
ZIG
 49
-10.16
 74
     2
 75
     0
340
10614
 46
5.08
 50
180.0
 44
5.08
 45
0.0
  9
ZIG
 49
-5.08
 74
     0
  0
LTYPE
  5
10616
330
1054F
100
AcDbSymbolTableRecord
100
AcDbLinetypeTableRecord
  2
DASHED2
 70
     0
  3
Dashed (.5x) _ _ _ _ _ _ _ _ _ _ _ _ _ _ _ _ _ 
 72
    65
 73
     2
 40
9.524999999999999
 49
6.35
 74
     0
 49
-3.175
 74
     0
  0
LTYPE
  5
10617
330
1054F
100
AcDbSymbolTableRecord
100
AcDbLinetypeTableRecord
  2
DASHED
 70
     0
  3
Dashed __ __ __ __ __ __ __ __ __ __ __ __ __ _
 72
    65
 73
     2
 40
19.05
 49
12.7
 74
     0
 49
-6.35
 74
     0
  0
LTYPE
  5
10618
330
1054F
100
AcDbSymbolTableRecord
100
AcDbLinetypeTableRecord
  2
DIVIDE
 70
     0
  3
Divide ____ . . ____ . . ____ . . ____ . . ____
 72
    65
 73
     6
 40
31.75
 49
12.7
 74
     0
 49
-6.35
 74
     0
 49
0.0
 74
     0
 49
-6.35
 74
     0
 49
0.0
 74
     0
 49
-6.35
 74
     0
  0
LTYPE
  5
10619
330
1054F
100
AcDbSymbolTableRecord
100
AcDbLinetypeTableRecord
  2
DASHEDX2
 70
     0
  3
Dashed (2x) ____  ____  ____  ____  ____  ___
 72
    65
 73
     2
 40
38.09999999999999
 49
25.4
 74
     0
 49
-12.7
 74
     0
  0
LTYPE
  5
1061A
330
1054F
100
AcDbSymbolTableRecord
100
AcDbLinetypeTableRecord
  2
DIVIDEX2
 70
     0
  3
Divide (2x) ________  .  .  ________  .  .  _
 72
    65
 73
     6
 40
63.5
 49
25.4
 74
     0
 49
-12.7
 74
     0
 49
0.0
 74
     0
 49
-12.7
 74
     0
 49
0.0
 74
     0
 49
-12.7
 74
     0
  0
LTYPE
  5
1061B
330
1054F
100
AcDbSymbolTableRecord
100
AcDbLinetypeTableRecord
  2
DIVIDE2
 70
     0
  3
Divide (.5x) __..__..__..__..__..__..__..__.._
 72
    65
 73
     6
 40
15.875
 49
6.35
 74
     0
 49
-3.175
 74
     0
 49
0.0
 74
     0
 49
-3.175
 74
     0
 49
0.0
 74
     0
 49
-3.175
 74
     0
  0
LTYPE
  5
1061C
330
1054F
100
AcDbSymbolTableRecord
100
AcDbLinetypeTableRecord
  2
DOT2
 70
     0
  3
Dot (.5x) ........................................
 72
    65
 73
     2
 40
3.175
 49
0.0
 74
     0
 49
-3.175
 74
     0
  0
LTYPE
  5
1061D
330
1054F
100
AcDbSymbolTableRecord
100
AcDbLinetypeTableRecord
  2
DOT
 70
     0
  3
Dot . . . . . . . . . . . . . . . . . . . . . . . .
 72
    65
 73
     2
 40
6.35
 49
0.0
 74
     0
 49
-6.35
 74
     0
  0
LTYPE
  5
1061F
330
1054F
100
AcDbSymbolTableRecord
100
AcDbLinetypeTableRecord
  2
DRAINAGE
 70
     0
  3
Drainage ---->---->---->----
 72
    65
 73
     2
 40
10.16
 49
5.08
 74
     2
 75
     0
340
1061E
 46
2.54
 50
180.0
 44
0.0
 45
0.0
  9
RIGHT_ARROW
 49
5.08
 74
     0
  0
LTYPE
  5
10620
330
1054F
100
AcDbSymbolTableRecord
100
AcDbLinetypeTableRecord
  2
DOTX2
 70
     0
  3
Dot (2x) .  .  .  .  .  .  .  .  .  .  .  .  .  .
 72
    65
 73
     2
 40
12.7
 49
0.0
 74
     0
 49
-12.7
 74
     0
  0
LTYPE
  5
10622
330
1054F
100
AcDbSymbolTableRecord
100
AcDbLinetypeTableRecord
  2
FENCELINE1
 70
     0
  3
Fenceline circle ----0-----0----0-----0----0-----0--
 72
    65
 73
     4
 40
36.83
 49
6.35
 74
     0
 49
-2.54
 74
     2
 75
     0
340
10621
 46
2.54
 50
0.0
 44
-2.54
 45
0.0
  9
CIRC1
 49
-2.54
 74
     0
 49
25.4
 74
     0
  0
LTYPE
  5
10624
330
1054F
100
AcDbSymbolTableRecord
100
AcDbLinetypeTableRecord
  2
DRAINAGE2
 70
     0
  3
Drainage reversed----<----<----<----
 72
    65
 73
     2
 40
10.16
 49
5.08
 74
     2
 75
     0
340
10623
 46
2.54
 50
0.0
 44
0.0
 45
0.0
  9
RIGHT_ARROW
 49
5.08
 74
     0
  0
LTYPE
  5
10626
330
1054F
100
AcDbSymbolTableRecord
100
AcDbLinetypeTableRecord
  2
GAS_LINE
 70
     0
  3
Gas line ----GAS----GAS----GAS----GAS----GAS----GAS--
 72
    65
 73
     3
 40
24.13
 49
12.7
 74
     0
 49
-5.08
 74
     2
 75
     0
340
10625
 46
2.54
 50
0.0
 44
-2.54
 45
-1.27
  9
GAS
 49
-6.35
 74
     0
  0
LTYPE
  5
10628
330
1054F
100
AcDbSymbolTableRecord
100
AcDbLinetypeTableRecord
  2
FENCELINE2
 70
     0
  3
Fenceline square ----[]-----[]----[]-----[]----[]---
 72
    65
 73
     4
 40
36.83
 49
6.35
 74
     0
 49
-2.54
 74
     2
 75
     0
340
10627
 46
2.54
 50
0.0
 44
-2.54
 45
0.0
  9
BOX
 49
-2.54
 74
     0
 49
25.4
 74
     0
  0
LTYPE
  5
10629
330
1054F
100
AcDbSymbolTableRecord
100
AcDbLinetypeTableRecord
  2
HIDDEN2
 70
     0
  3
Hidden (.5x) _ _ _ _ _ _ _ _ _ _ _ _ _ _ _ _ _ 
 72
    65
 73
     2
 40
4.762499999999999
 49
3.175
 74
     0
 49
-1.5875
 74
     0
  0
ENDTAB
  0
TABLE
  2
LAYER
  5
1054C
330
0
100
AcDbSymbolTable
 70
     8
  0
LAYER
  5
1055A
330
1054C
100
AcDbSymbolTableRecord
100
AcDbLayerTableRecord
  2
0
 70
     4
 62
   178
420
        0
  6
Continuous
370
    25
390
10559
347
1058F
348
0
  0
LAYER
  5
1062A
330
1054C
100
AcDbSymbolTableRecord
100
AcDbLayerTableRecord
  2
measurements
 70
     4
 62
   178
420
        0
  6
Continuous
370
    25
390
10559
347
1058F
348
0
  0
LAYER
  5
1062B
330
1054C
100
AcDbSymbolTableRecord
100
AcDbLayerTableRecord
  2
Defpoints
 70
     5
 62
     7
420
 16777215
  6
Continuous
290
     0
370
    -3
390
10559
347
1058F
348
0
  0
LAYER
  5
1062C
330
1054C
100
AcDbSymbolTableRecord
100
AcDbLayerTableRecord
  2
guides
 70
     1
 62
     6
420
 16711935
  6
Continuous
370
    25
390
10559
347
1058F
348
0
  0
LAYER
  5
1062D
330
1054C
100
AcDbSymbolTableRecord
100
AcDbLayerTableRecord
  2
path 2
 70
     5
 62
     3
420
    65280
  6
Continuous
370
    25
390
10559
347
1058F
348
0
  0
LAYER
  5
1062E
330
1054C
100
AcDbSymbolTableRecord
100
AcDbLayerTableRecord
  2
scan path-ideal
 70
     5
 62
     4
420
    65535
  6
Continuous
370
    25
390
10559
347
1058F
348
0
  0
LAYER
  5
1062F
330
1054C
100
AcDbSymbolTableRecord
100
AcDbLayerTableRecord
  2
scan path- half-turns
 70
     0
 62
   216
420
  8388736
  6
Continuous
370
    25
390
10559
347
1058F
348
0
  0
LAYER
  5
10630
330
1054C
100
AcDbSymbolTableRecord
100
AcDbLayerTableRecord
  2
images
 70
     0
 62
     1
420
 16711680
  6
Continuous
370
    25
390
10559
347
1058F
348
0
  0
ENDTAB
  0
TABLE
  2
STYLE
  5
1054D
330
0
100
AcDbSymbolTable
 70
    13
  0
STYLE
  5
1055B
330
1054D
100
AcDbSymbolTableRecord
100
AcDbTextStyleTableRecord
  2
Standard
 70
     0
 40
0.0
 41
1.0
 50
0.0
 71
     0
 42
2.5
  3
txt
  4

  0
STYLE
  5
105EE
330
1054D
100
AcDbSymbolTableRecord
100
AcDbTextStyleTableRecord
  2
QCADDimTextStyle
 70
     0
 40
0.0
 41
1.0
 50
0.0
 71
     0
 42
2.5
  3

  4

  0
STYLE
  5
105F8
330
1054D
100
AcDbSymbolTableRecord
100
AcDbTextStyleTableRecord
  2
textstyle0
 70
     0
 40
0.0
 41
1.0
 50
0.0
 71
     0
 42
2.5
  3
ltypeshp.shx
  4

  0
STYLE
  5
105F9
330
1054D
100
AcDbSymbolTableRecord
100
AcDbTextStyleTableRecord
  2
textstyle1
 70
     0
 40
0.0
 41
1.0
 50
0.0
 71
     0
 42
2.5
  3
ltypeshp.shx
  4

  0
STYLE
  5
1060B
330
1054D
100
AcDbSymbolTableRecord
100
AcDbTextStyleTableRecord
  2
textstyle2
 70
     0
 40
0.0
 41
1.0
 50
0.0
 71
     0
 42
2.5
  3
STANDARD
  4

  0
STYLE
  5
10610
330
1054D
100
AcDbSymbolTableRecord
100
AcDbTextStyleTableRecord
  2
textstyle3
 70
     0
 40
0.0
 41
1.0
 50
0.0
 71
     0
 42
2.5
  3
ltypeshp.shx
  4

  0
STYLE
  5
10613
330
1054D
100
AcDbSymbolTableRecord
100
AcDbTextStyleTableRecord
  2
textstyle4
 70
     0
 40
0.0
 41
1.0
 50
0.0
 71
     0
 42
2.5
  3
ltypeshp.shx
  4

  0
STYLE
  5
10614
330
1054D
100
AcDbSymbolTableRecord
100
AcDbTextStyleTableRecord
  2
textstyle5
 70
     0
 40
0.0
 41
1.0
 50
0.0
 71
     0
 42
2.5
  3
ltypeshp.shx
  4

  0
STYLE
  5
1061E
330
1054D
100
AcDbSymbolTableRecord
100
AcDbTextStyleTableRecord
  2
textstyle6
 70
     0
 40
0.0
 41
1.0
 50
0.0
 71
     0
 42
2.5
  3
qcadshp.shx
  4

  0
STYLE
  5
10621
330
1054D
100
AcDbSymbolTableRecord
100
AcDbTextStyleTableRecord
  2
textstyle7
 70
     0
 40
0.0
 41
1.0
 50
0.0
 71
     0
 42
2.5
  3
ltypeshp.shx
  4

  0
STYLE
  5
10623
330
1054D
100
AcDbSymbolTableRecord
100
AcDbTextStyleTableRecord
  2
textstyle8
 70
     0
 40
0.0
 41
1.0
 50
0.0
 71
     0
 42
2.5
  3
qcadshp.shx
  4

  0
STYLE
  5
10625
330
1054D
100
AcDbSymbolTableRecord
100
AcDbTextStyleTableRecord
  2
textstyle9
 70
     0
 40
0.0
 41
1.0
 50
0.0
 71
     0
 42
2.5
  3
STANDARD
  4

  0
STYLE
  5
10627
330
1054D
100
AcDbSymbolTableRecord
100
AcDbTextStyleTableRecord
  2
textstyle10
 70
     0
 40
0.0
 41
1.0
 50
0.0
 71
     0
 42
2.5
  3
ltypeshp.shx
  4

  0
ENDTAB
  0
TABLE
  2
VIEW
  5
10550
330
0
100
AcDbSymbolTable
 70
     0
  0
ENDTAB
  0
TABLE
  2
UCS
  5
10551
330
0
100
AcDbSymbolTable
 70
     0
  0
ENDTAB
  0
TABLE
  2
APPID
  5
10553
330
0
100
AcDbSymbolTable
 70
     2
  0
APPID
  5
1055C
330
10553
100
AcDbSymbolTableRecord
100
AcDbRegAppTableRecord
  2
ACAD
 70
     0
  0
APPID
  5
105B7
330
10553
100
AcDbSymbolTableRecord
100
AcDbRegAppTableRecord
  2
QCAD
 70
     0
  0
ENDTAB
  0
TABLE
  2
DIMSTYLE
  5
10554
330
0
100
AcDbSymbolTable
 70
     2
100
AcDbDimStyleTable
  0
DIMSTYLE
105
10570
330
10554
100
AcDbSymbolTableRecord
100
AcDbDimStyleTableRecord
  2
Standard
 70
     0
178
     0
340
1055B
  0
DIMSTYLE
105
105EF
330
10554
100
AcDbSymbolTableRecord
100
AcDbDimStyleTableRecord
  2
QCADDimStyle
 70
     0
 41
0.125
 42
0.03125
 44
0.0625
 73
     0
 77
     1
140
0.125
147
0.03125
178
     0
340
105EE
  0
ENDTAB
  0
TABLE
  2
BLOCK_RECORD
  5
1054B
330
0
100
AcDbSymbolTable
 70
     4
  0
BLOCK_RECORD
  5
10568
330
1054B
100
AcDbSymbolTableRecord
100
AcDbBlockTableRecord
  2
*Model_Space
340
1056B
 70
     0
280
     1
281
     0
  0
BLOCK_RECORD
  5
10631
330
1054B
100
AcDbSymbolTableRecord
100
AcDbBlockTableRecord
  2
*Paper_Space
340
10632
 70
     0
280
     1
281
     0
  0
BLOCK_RECORD
  5
10564
330
1054B
100
AcDbSymbolTableRecord
100
AcDbBlockTableRecord
  2
*Paper_Space1
340
10567
 70
     0
280
     1
281
     0
  0
BLOCK_RECORD
  5
10637
330
1054B
100
AcDbSymbolTableRecord
100
AcDbBlockTableRecord
  2
single_image
340
0
102
{BLKREFS
331
102FF
102
}
 70
     0
280
     1
281
     0
  0
BLOCK_RECORD
  5
1063A
330
1054B
100
AcDbSymbolTableRecord
100
AcDbBlockTableRecord
  2
Image_area
340
0
102
{BLKREFS
331
1049E
331
102FD
331
1049F
331
10339
331
104A0
331
10338
331
10548
331
10549
331
10546
331
10547
331
10544
331
10545
331
10542
331
10543
331
10540
331
10541
331
1053E
331
1053F
331
1053C
331
1053D
331
1052A
331
1052B
331
10528
331
10529
331
10526
331
10527
331
10524
331
10525
331
10522
331
10523
331
10520
331
10521
331
1051E
331
1051F
331
1051C
331
1051D
331
1053A
331
1053B
331
10538
331
10539
331
10536
331
10537
331
10534
331
10535
331
10532
331
10533
331
10530
331
10531
331
1052E
331
1052F
331
1052C
331
1052D
331
1050A
331
1050B
331
10508
331
10509
331
10506
331
10507
331
10504
331
10505
331
10502
331
10503
331
10500
331
10501
331
104FE
331
104FF
331
104FC
331
104FD
331
1051A
331
1051B
331
10518
331
10519
331
10516
331
10517
331
10514
331
10515
331
10512
331
10513
331
10510
331
10511
331
1050E
331
1050F
331
1050C
331
1050D
331
104EA
331
104EB
331
104E8
331
104E9
331
104E7
331
104FA
331
104FB
331
104F8
331
104F9
331
104F6
331
104F7
331
104F4
331
104F5
331
104F2
331
104F3
331
104F0
331
104F1
331
104EE
331
104EF
331
104EC
331
104ED
331
104A1
331
1034B
331
104A2
331
1034A
331
104A3
331
10349
331
104A4
331
10348
331
104A5
331
10347
331
104A6
331
10346
331
104A7
331
10363
331
10362
331
104A8
331
104A9
331
10361
331
10360
331
104AA
331
1035F
331
104AB
102
}
 70
     0
280
     1
281
     0
  0
ENDTAB
  0
ENDSEC
  0
SECTION
  2
BLOCKS
  0
BLOCK
  5
10569
330
10568
100
AcDbEntity
  8
0
100
AcDbBlockBegin
  2
*Model_Space
 70
     0
 10
0.0
 20
0.0
 30
0.0
  3
*Model_Space
  1
*Model_Space
  0
ENDBLK
  5
1056A
330
10568
100
AcDbEntity
  8
0
100
AcDbBlockEnd
  0
BLOCK
  5
10633
330
10631
100
AcDbEntity
 67
     1
  8
0
100
AcDbBlockBegin
  2
*Paper_Space
 70
     0
 10
0.0
 20
0.0
 30
0.0
  3
*Paper_Space
  1
*Paper_Space
  0
ENDBLK
  5
10634
330
10631
100
AcDbEntity
 67
     1
  8
0
100
AcDbBlockEnd
  0
BLOCK
  5
10565
330
10564
100
AcDbEntity
  8
0
100
AcDbBlockBegin
  2
*Paper_Space1
 70
     0
 10
0.0
 20
0.0
 30
0.0
  3
*Paper_Space1
  1
*Paper_Space1
  0
ENDBLK
  5
10566
330
10564
100
AcDbEntity
  8
0
100
AcDbBlockEnd
  0
BLOCK
  5
10638
330
10637
100
AcDbEntity
  8
0
100
AcDbBlockBegin
  2
single_image
 70
     0
 10
0.0
 20
0.0
 30
0.0
  3
single_image
  1
single_image
  0
LINE
  5
5D
330
10637
100
AcDbEntity
  8
images
100
AcDbLine
 10
0.0
 20
0.0
 30
0.0
 11
282.0
 21
0.0
 31
0.0
  0
LINE
  5
5E
330
10637
100
AcDbEntity
  8
images
100
AcDbLine
 10
282.0
 20
-212.0
 30
0.0
 11
282.0
 21
-212.0
 31
0.0
  0
LINE
  5
5F
330
10637
100
AcDbEntity
  8
images
100
AcDbLine
 10
282.0
 20
-212.0
 30
0.0
 11
0.0
 21
-212.0
 31
0.0
  0
LINE
  5
60
330
10637
100
AcDbEntity
  8
images
100
AcDbLine
 10
0.0
 20
-212.0
 30
0.0
 11
0.0
 21
-212.0
 31
0.0
  0
LINE
  5
61
330
10637
100
AcDbEntity
  8
images
100
AcDbLine
 10
0.0
 20
0.0
 30
0.0
 11
0.0
 21
-212.0
 31
0.0
  0
LINE
  5
62
330
10637
100
AcDbEntity
  8
images
100
AcDbLine
 10
282.0
 20
0.0
 30
0.0
 11
282.0
 21
-212.0
 31
0.0
  0
ENDBLK
  5
10639
330
10637
100
AcDbEntity
  8
0
100
AcDbBlockEnd
  0
BLOCK
  5
1063B
330
1063A
100
AcDbEntity
  8
0
100
AcDbBlockBegin
  2
Image_area
 70
     0
 10
0.0
 20
0.0
 30
0.0
  3
Image_area
  1
Image_area
  0
LINE
  5
102F5
330
1063A
100
AcDbEntity
  8
images
100
AcDbLine
 10
-141.0000000000001
 20
-106.0
 30
0.0
 11
140.9999999999999
 21
-106.0
 31
0.0
  0
LINE
  5
102F6
330
1063A
100
AcDbEntity
  8
images
100
AcDbLine
 10
140.9999999999999
 20
-106.0
 30
0.0
 11
140.9999999999999
 21
106.0
 31
0.0
  0
LINE
  5
102F7
330
1063A
100
AcDbEntity
  8
images
100
AcDbLine
 10
140.9999999999999
 20
106.0
 30
0.0
 11
-141.0000000000001
 21
106.0
 31
0.0
  0
LINE
  5
102F8
330
1063A
100
AcDbEntity
  8
images
100
AcDbLine
 10
-141.0000000000001
 20
106.0
 30
0.0
 11
-141.0000000000001
 21
-106.0
 31
0.0
  0
ENDBLK
  5
1063C
330
1063A
100
AcDbEntity
  8
0
100
AcDbBlockEnd
  0
ENDSEC
  0
SECTION
  2
ENTITIES
  0
CIRCLE
  5
64
330
10568
100
AcDbEntity
  8
0
100
AcDbCircle
 10
-0.015625
 20
0.0
 30
0.0
 40
6000.0
  0
CIRCLE
  5
65
330
10568
100
AcDbEntity
  8
0
100
AcDbCircle
 10
-0.015625
 20
0.0
 30
0.0
 40
3400.0
  0
INSERT
  5
102FF
330
10568
100
AcDbEntity
  8
guides
100
AcDbBlockReference
  2
single_image
 10
-0.0156249999970299
 20
-2700.0
 30
0.0
 41
0.5
 42
0.5
  0
LINE
  5
10300
330
10568
100
AcDbEntity
  8
guides
100
AcDbLine
 10
-0.0156249999968462
 20
-3000.0
 30
0.0
 11
-0.0156249999970299
 21
0.0
 31
0.0
  0
LINE
  5
10301
330
10568
100
AcDbEntity
  8
guides
100
AcDbLine
 10
-0.0156249999968462
 20
-3000.0
 30
0.0
 11
-0.015624999997581
 21
0.0
 31
0.0
  0
LINE
  5
10302
330
10568
100
AcDbEntity
  8
guides
100
AcDbLine
 10
-0.0156249999970299
 20
3000.0
 30
0.0
 11
-0.015624999997581
 21
0.0
 31
0.0
  0
LINE
  5
10303
330
10568
100
AcDbEntity
  8
guides
100
AcDbLine
 10
-0.0156249999970299
 20
3000.0
 30
0.0
 11
-0.0156249999970299
 21
0.0
 31
0.0
  0
LINE
  5
10304
330
10568
100
AcDbEntity
  8
guides
100
AcDbLine
 10
-192.015624999997
 20
2993.849695626018
 30
0.0
 11
-192.015624999998
 21
0.0
 31
0.0
  0
LINE
  5
10305
330
10568
100
AcDbEntity
  8
guides
100
AcDbLine
 10
191.9843750000028
 20
-2993.849695626018
 30
0.0
 11
191.984375000003
 21
0.0
 31
0.0
  0
LINE
  5
10306
330
10568
100
AcDbEntity
  8
guides
100
AcDbLine
 10
-192.0156249999953
 20
-2993.849695626018
 30
0.0
 11
-192.015624999998
 21
0.0
 31
0.0
  0
LINE
  5
10307
330
10568
100
AcDbEntity
  8
guides
100
AcDbLine
 10
191.984375000003
 20
2993.849695626018
 30
0.0
 11
191.984375000003
 21
0.0
 31
0.0
  0
LINE
  5
10308
330
10568
100
AcDbEntity
  8
guides
100
AcDbLine
 10
-384.015624999997
 20
2975.322503527978
 30
0.0
 11
-384.015624999999
 21
0.0000000000004547
 31
0.0
  0
LINE
  5
10309
330
10568
100
AcDbEntity
  8
guides
100
AcDbLine
 10
383.9843750000031
 20
-2975.322503527978
 30
0.0
 11
383.9843750000031
 21
0.0
 31
0.0
  0
LINE
  5
1030A
330
10568
100
AcDbEntity
  8
guides
100
AcDbLine
 10
-384.0156249999981
 20
-2975.322503527978
 30
0.0
 11
-384.015624999999
 21
0.0000000000004547
 31
0.0
  0
LINE
  5
1030B
330
10568
100
AcDbEntity
  8
guides
100
AcDbLine
 10
383.984375000003
 20
2975.322503527978
 30
0.0
 11
383.9843750000031
 21
0.0
 31
0.0
  0
LINE
  5
1030C
330
10568
100
AcDbEntity
  8
guides
100
AcDbLine
 10
575.9843750000028
 20
-2944.184776810042
 30
0.0
 11
575.984375000003
 21
0.0
 31
0.0
  0
LINE
  5
1030D
330
10568
100
AcDbEntity
  8
guides
100
AcDbLine
 10
-576.0156250000005
 20
-2944.184776810042
 30
0.0
 11
-576.0156249999974
 21
0.0
 31
0.0
  0
LINE
  5
1030E
330
10568
100
AcDbEntity
  8
guides
100
AcDbLine
 10
-576.015624999997
 20
2944.184776810043
 30
0.0
 11
-576.0156249999974
 21
0.0
 31
0.0
  0
LINE
  5
1030F
330
10568
100
AcDbEntity
  8
guides
100
AcDbLine
 10
575.984375000003
 20
2944.184776810042
 30
0.0
 11
575.984375000003
 21
0.0
 31
0.0
  0
LINE
  5
10310
330
10568
100
AcDbEntity
  8
guides
100
AcDbLine
 10
-768.0156249999985
 20
0.0000000000004547
 30
0.0
 11
-768.0156249999972
 21
2900.030344668829
 31
0.0
  0
LINE
  5
10311
330
10568
100
AcDbEntity
  8
guides
100
AcDbLine
 10
767.9843750000031
 20
0.0
 30
0.0
 11
767.9843750000032
 21
-2900.030344668828
 31
0.0
  0
LINE
  5
10312
330
10568
100
AcDbEntity
  8
guides
100
AcDbLine
 10
-768.0156249999985
 20
0.0000000000004547
 30
0.0
 11
-768.0156250000001
 21
-2900.030344668828
 31
0.0
  0
LINE
  5
10313
330
10568
100
AcDbEntity
  8
guides
100
AcDbLine
 10
767.9843750000031
 20
0.0
 30
0.0
 11
767.984375000003
 21
2900.030344668828
 31
0.0
  0
LINE
  5
10314
330
10568
100
AcDbEntity
  8
guides
100
AcDbLine
 10
959.984375000003
 20
-2842.252627758483
 30
0.0
 11
959.9843750000028
 21
0.0
 31
0.0
  0
LINE
  5
10315
330
10568
100
AcDbEntity
  8
guides
100
AcDbLine
 10
-960.0156249999986
 20
-2842.252627758482
 30
0.0
 11
-960.0156249999981
 21
0.0000000000004547
 31
0.0
  0
LINE
  5
10316
330
10568
100
AcDbEntity
  8
guides
100
AcDbLine
 10
-960.0156249999972
 20
2842.252627758483
 30
0.0
 11
-960.0156249999981
 21
0.0000000000004547
 31
0.0
  0
LINE
  5
10317
330
10568
100
AcDbEntity
  8
guides
100
AcDbLine
 10
959.984375000003
 20
2842.252627758483
 30
0.0
 11
959.9843750000028
 21
0.0
 31
0.0
  0
LINE
  5
10318
330
10568
100
AcDbEntity
  8
guides
100
AcDbLine
 10
1151.984375000003
 20
0.0
 30
0.0
 11
1151.984375000003
 21
-2769.999277978245
 31
0.0
  0
LINE
  5
10319
330
10568
100
AcDbEntity
  8
guides
100
AcDbLine
 10
-1152.015624999997
 20
0.0
 30
0.0
 11
-1152.015625
 21
-2769.999277978244
 31
0.0
  0
LINE
  5
1031A
330
10568
100
AcDbEntity
  8
guides
100
AcDbLine
 10
-1152.015624999997
 20
0.0
 30
0.0
 11
-1152.015624999997
 21
2769.999277978246
 31
0.0
  0
LINE
  5
1031B
330
10568
100
AcDbEntity
  8
guides
100
AcDbLine
 10
1151.984375000003
 20
0.0
 30
0.0
 11
1151.984375000003
 21
2769.999277978245
 31
0.0
  0
LINE
  5
1031C
330
10568
100
AcDbEntity
  8
guides
100
AcDbLine
 10
1343.984375000003
 20
-2682.100669251622
 30
0.0
 11
1343.984375000003
 21
0.0
 31
0.0
  0
LINE
  5
1031D
330
10568
100
AcDbEntity
  8
guides
100
AcDbLine
 10
-1344.015624999997
 20
2682.100669251622
 30
0.0
 11
-1344.015624999998
 21
0.0000000000004547
 31
0.0
  0
LINE
  5
1031E
330
10568
100
AcDbEntity
  8
guides
100
AcDbLine
 10
-1344.015625
 20
-2682.100669251621
 30
0.0
 11
-1344.015624999998
 21
0.0000000000004547
 31
0.0
  0
LINE
  5
1031F
330
10568
100
AcDbEntity
  8
guides
100
AcDbLine
 10
1343.984375000003
 20
2682.100669251622
 30
0.0
 11
1343.984375000003
 21
0.0
 31
0.0
  0
LINE
  5
10320
330
10568
100
AcDbEntity
  8
guides
100
AcDbLine
 10
1535.984375000003
 20
0.0
 30
0.0
 11
1535.984375000003
 21
-2576.956344216951
 31
0.0
  0
LINE
  5
10321
330
10568
100
AcDbEntity
  8
guides
100
AcDbLine
 10
-1536.015624999997
 20
0.0000000000004547
 30
0.0
 11
-1536.015624999997
 21
2576.956344216952
 31
0.0
  0
LINE
  5
10322
330
10568
100
AcDbEntity
  8
guides
100
AcDbLine
 10
-1536.015624999997
 20
0.0000000000004547
 30
0.0
 11
-1536.015624999999
 21
-2576.95634421695
 31
0.0
  0
LINE
  5
10323
330
10568
100
AcDbEntity
  8
guides
100
AcDbLine
 10
1535.984375000003
 20
0.0
 30
0.0
 11
1535.984375000003
 21
2576.956344216952
 31
0.0
  0
LINE
  5
10324
330
10568
100
AcDbEntity
  8
guides
100
AcDbLine
 10
1727.984375000003
 20
-2452.349077925082
 30
0.0
 11
1727.984375000003
 21
0.0
 31
0.0
  0
LINE
  5
10325
330
10568
100
AcDbEntity
  8
guides
100
AcDbLine
 10
-1728.015625
 20
-2452.349077925081
 30
0.0
 11
-1728.015624999999
 21
0.0000000000004547
 31
0.0
  0
LINE
  5
10326
330
10568
100
AcDbEntity
  8
guides
100
AcDbLine
 10
-1728.015624999997
 20
2452.349077925081
 30
0.0
 11
-1728.015624999999
 21
0.0000000000004547
 31
0.0
  0
LINE
  5
10327
330
10568
100
AcDbEntity
  8
guides
100
AcDbLine
 10
1727.984375000003
 20
2452.349077925082
 30
0.0
 11
1727.984375000003
 21
0.0
 31
0.0
  0
LINE
  5
10328
330
10568
100
AcDbEntity
  8
guides
100
AcDbLine
 10
1919.984375000003
 20
0.0
 30
0.0
 11
1919.984375000003
 21
-2305.124725475825
 31
0.0
  0
LINE
  5
10329
330
10568
100
AcDbEntity
  8
guides
100
AcDbLine
 10
-1920.015624999997
 20
0.0000000000004547
 30
0.0
 11
-1920.015624999999
 21
-2305.124725475825
 31
0.0
  0
LINE
  5
1032A
330
10568
100
AcDbEntity
  8
guides
100
AcDbLine
 10
-1920.015624999997
 20
0.0000000000004547
 30
0.0
 11
-1920.015624999997
 21
2305.124725475827
 31
0.0
  0
LINE
  5
1032B
330
10568
100
AcDbEntity
  8
guides
100
AcDbLine
 10
1919.984375000003
 20
0.0
 30
0.0
 11
1919.984375000003
 21
2305.124725475825
 31
0.0
  0
LINE
  5
1032C
330
10568
100
AcDbEntity
  8
guides
100
AcDbLine
 10
2111.984375000003
 20
-2130.599915516754
 30
0.0
 11
2111.984375000003
 21
0.0
 31
0.0
  0
LINE
  5
1032D
330
10568
100
AcDbEntity
  8
guides
100
AcDbLine
 10
-2112.015624999997
 20
2130.599915516755
 30
0.0
 11
-2112.015624999998
 21
0.0000000000009095
 31
0.0
  0
LINE
  5
1032E
330
10568
100
AcDbEntity
  8
guides
100
AcDbLine
 10
-2112.015624999998
 20
-2130.599915516754
 30
0.0
 11
-2112.015624999998
 21
0.0000000000009095
 31
0.0
  0
LINE
  5
1032F
330
10568
100
AcDbEntity
  8
guides
100
AcDbLine
 10
2111.984375000003
 20
2130.599915516754
 30
0.0
 11
2111.984375000003
 21
0.0
 31
0.0
  0
LINE
  5
10330
330
10568
100
AcDbEntity
  8
guides
100
AcDbLine
 10
2303.984375000003
 20
0.0
 30
0.0
 11
2303.984375000003
 21
-1921.349525724041
 31
0.0
  0
LINE
  5
10331
330
10568
100
AcDbEntity
  8
guides
100
AcDbLine
 10
-2304.015624999998
 20
0.0000000000009095
 30
0.0
 11
-2304.015624999997
 21
1921.349525724041
 31
0.0
  0
LINE
  5
10332
330
10568
100
AcDbEntity
  8
guides
100
AcDbLine
 10
-2304.015624999998
 20
0.0000000000009095
 30
0.0
 11
-2304.015624999999
 21
-1921.349525724039
 31
0.0
  0
LINE
  5
10333
330
10568
100
AcDbEntity
  8
guides
100
AcDbLine
 10
2303.984375000003
 20
0.0
 30
0.0
 11
2303.984375000003
 21
1921.349525724042
 31
0.0
  0
LINE
  5
10334
330
10568
100
AcDbEntity
  8
guides
100
AcDbLine
 10
2495.984375000003
 20
-1664.326890968238
 30
0.0
 11
2495.984375000003
 21
0.0
 31
0.0
  0
LINE
  5
10335
330
10568
100
AcDbEntity
  8
guides
100
AcDbLine
 10
-2496.015624999997
 20
1664.326890968239
 30
0.0
 11
-2496.015624999997
 21
0.0
 31
0.0
  0
LINE
  5
10336
330
10568
100
AcDbEntity
  8
guides
100
AcDbLine
 10
-2496.015624999997
 20
-1664.326890968237
 30
0.0
 11
-2496.015624999997
 21
0.0
 31
0.0
  0
LINE
  5
10337
330
10568
100
AcDbEntity
  8
guides
100
AcDbLine
 10
2495.984375000003
 20
1664.326890968238
 30
0.0
 11
2495.984375000003
 21
0.0
 31
0.0
  0
CIRCLE
  5
10027
330
10568
100
AcDbEntity
  8
measurements
100
AcDbCircle
 10
-0.015625
 20
0.0
 30
0.0
 40
2500.0
  0
LINE
  5
10028
330
10568
100
AcDbEntity
  8
measurements
100
AcDbLine
 10
-0.015625
 20
0.0
 30
0.0
 11
191.984375
 21
0.0
 31
0.0
  0
LINE
  5
10029
330
10568
100
AcDbEntity
  8
measurements
100
AcDbLine
 10
191.984375
 20
0.0
 30
0.0
 11
383.9843750000001
 21
0.0
 31
0.0
  0
LINE
  5
1002A
330
10568
100
AcDbEntity
  8
measurements
100
AcDbLine
 10
383.9843750000001
 20
0.0
 30
0.0
 11
575.984375
 21
0.0
 31
0.0
  0
LINE
  5
1002B
330
10568
100
AcDbEntity
  8
measurements
100
AcDbLine
 10
575.984375
 20
0.0
 30
0.0
 11
767.9843750000001
 21
0.0
 31
0.0
  0
LINE
  5
1002C
330
10568
100
AcDbEntity
  8
measurements
100
AcDbLine
 10
767.9843750000001
 20
0.0
 30
0.0
 11
959.9843749999999
 21
0.0
 31
0.0
  0
LINE
  5
1002D
330
10568
100
AcDbEntity
  8
measurements
100
AcDbLine
 10
959.9843749999999
 20
0.0
 30
0.0
 11
1151.984375
 21
0.0
 31
0.0
  0
LINE
  5
1002E
330
10568
100
AcDbEntity
  8
measurements
100
AcDbLine
 10
1151.984375
 20
0.0
 30
0.0
 11
1343.984375
 21
0.0
 31
0.0
  0
LINE
  5
1002F
330
10568
100
AcDbEntity
  8
measurements
100
AcDbLine
 10
1343.984375
 20
0.0
 30
0.0
 11
1535.984375
 21
0.0
 31
0.0
  0
LINE
  5
10030
330
10568
100
AcDbEntity
  8
measurements
100
AcDbLine
 10
1535.984375
 20
0.0
 30
0.0
 11
1727.984375
 21
0.0
 31
0.0
  0
LINE
  5
10031
330
10568
100
AcDbEntity
  8
measurements
100
AcDbLine
 10
1727.984375
 20
0.0
 30
0.0
 11
1919.984375
 21
0.0
 31
0.0
  0
LINE
  5
10032
330
10568
100
AcDbEntity
  8
measurements
100
AcDbLine
 10
1919.984375
 20
0.0
 30
0.0
 11
2111.984375
 21
0.0
 31
0.0
  0
LINE
  5
10033
330
10568
100
AcDbEntity
  8
measurements
100
AcDbLine
 10
2111.984375
 20
0.0
 30
0.0
 11
2303.984375
 21
0.0
 31
0.0
  0
LINE
  5
10034
330
10568
100
AcDbEntity
  8
measurements
100
AcDbLine
 10
2303.984375
 20
0.0
 30
0.0
 11
2495.984375
 21
0.0
 31
0.0
  0
LINE
  5
10063
330
10568
100
AcDbEntity
  8
scan path-ideal
100
AcDbLine
 10
5999.984375
 20
0.0
 30
0.0
 11
2303.984375
 21
0.0
 31
0.0
  0
LINE
  5
101A5
330
10568
100
AcDbEntity
  8
scan path-ideal
100
AcDbLine
 10
-2304.015625
 20
970.3525132651527
 30
0.0
 11
-2304.015625000006
 21
-1188.473509600695
 31
0.0
  0
LINE
  5
10064
330
10568
100
AcDbEntity
  8
scan path-ideal
100
AcDbLine
 10
2303.984375
 20
0.0
 30
0.0
 11
2303.984375000006
 21
1188.473509600694
 31
0.0
  0
LINE
  5
101A8
330
10568
100
AcDbEntity
  8
scan path-ideal
100
AcDbLine
 10
-2304.015625000005
 20
-1188.473509600695
 30
0.0
 11
-2112.015625000005
 21
-1188.473509600694
 31
0.0
  0
LINE
  5
10068
330
10568
100
AcDbEntity
  8
scan path-ideal
100
AcDbLine
 10
2303.984375000006
 20
1188.473509600694
 30
0.0
 11
2111.984375000006
 21
1188.473509600694
 31
0.0
  0
LINE
  5
101AD
330
10568
100
AcDbEntity
  8
scan path-ideal
100
AcDbLine
 10
-2112.015625000006
 20
-1188.473509600694
 30
0.0
 11
-2112.015625000007
 21
1486.937486863214
 31
0.0
  0
LINE
  5
10069
330
10568
100
AcDbEntity
  8
scan path-ideal
100
AcDbLine
 10
2111.984375000006
 20
1188.473509600694
 30
0.0
 11
2111.984375000006
 21
-1486.937486863214
 31
0.0
  0
LINE
  5
1019D
330
10568
100
AcDbEntity
  8
scan path-ideal
100
AcDbLine
 10
-2112.015625000007
 20
1486.937486863214
 30
0.0
 11
-1920.015625000008
 21
1486.937486863214
 31
0.0
  0
LINE
  5
1006A
330
10568
100
AcDbEntity
  8
scan path-ideal
100
AcDbLine
 10
2111.984375000006
 20
-1486.937486863214
 30
0.0
 11
1919.984375000006
 21
-1486.937486863214
 31
0.0
  0
LINE
  5
101A1
330
10568
100
AcDbEntity
  8
scan path-ideal
100
AcDbLine
 10
-1920.015625000008
 20
1486.937486863214
 30
0.0
 11
-1920.015625000006
 21
-1715.311722676855
 31
0.0
  0
LINE
  5
1006C
330
10568
100
AcDbEntity
  8
scan path-ideal
100
AcDbLine
 10
1919.984375000006
 20
-1486.937486863214
 30
0.0
 11
1919.984375000006
 21
1715.311722676856
 31
0.0
  0
LINE
  5
101A3
330
10568
100
AcDbEntity
  8
scan path-ideal
100
AcDbLine
 10
-1920.015625000006
 20
-1715.311722676855
 30
0.0
 11
-1728.015625000006
 21
-1715.311722676857
 31
0.0
  0
LINE
  5
1006D
330
10568
100
AcDbEntity
  8
scan path-ideal
100
AcDbLine
 10
1919.984375000006
 20
1715.311722676856
 30
0.0
 11
1727.984375000006
 21
1715.311722676857
 31
0.0
  0
LINE
  5
101B1
330
10568
100
AcDbEntity
  8
scan path-ideal
100
AcDbLine
 10
-1728.015625000006
 20
-1715.311722676857
 30
0.0
 11
-1728.015625000007
 21
1898.005866464735
 31
0.0
  0
LINE
  5
1006F
330
10568
100
AcDbEntity
  8
scan path-ideal
100
AcDbLine
 10
1727.984375000006
 20
1715.311722676857
 30
0.0
 11
1727.984375000006
 21
-1898.005866464735
 31
0.0
  0
LINE
  5
10199
330
10568
100
AcDbEntity
  8
scan path-ideal
100
AcDbLine
 10
-1728.015625000007
 20
1898.005866464735
 30
0.0
 11
-1536.015625000006
 21
1898.005866464736
 31
0.0
  0
LINE
  5
10070
330
10568
100
AcDbEntity
  8
scan path-ideal
100
AcDbLine
 10
1727.984375000006
 20
-1898.005866464735
 30
0.0
 11
1535.984375000006
 21
-1898.005866464734
 31
0.0
  0
LINE
  5
101A9
330
10568
100
AcDbEntity
  8
scan path-ideal
100
AcDbLine
 10
-1536.015625000006
 20
1898.005866464736
 30
0.0
 11
-1536.015625000006
 21
-2046.967644219463
 31
0.0
  0
LINE
  5
10072
330
10568
100
AcDbEntity
  8
scan path-ideal
100
AcDbLine
 10
1535.984375000006
 20
-1898.005866464734
 30
0.0
 11
1535.984375000006
 21
2046.967644219462
 31
0.0
  0
LINE
  5
101AB
330
10568
100
AcDbEntity
  8
scan path-ideal
100
AcDbLine
 10
-1536.015625000006
 20
-2046.967644219463
 30
0.0
 11
-1344.015625000006
 21
-2046.967644219461
 31
0.0
  0
LINE
  5
10073
330
10568
100
AcDbEntity
  8
scan path-ideal
100
AcDbLine
 10
1535.984375000006
 20
2046.967644219462
 30
0.0
 11
1343.984375000006
 21
2046.967644219461
 31
0.0
  0
LINE
  5
101AF
330
10568
100
AcDbEntity
  8
scan path-ideal
100
AcDbLine
 10
-1344.015625000005
 20
-2046.967644219461
 30
0.0
 11
-1344.015625000007
 21
2169.03235578054
 31
0.0
  0
LINE
  5
10075
330
10568
100
AcDbEntity
  8
scan path-ideal
100
AcDbLine
 10
1343.984375000005
 20
2046.967644219461
 30
0.0
 11
1343.984375000006
 21
-2169.032355780539
 31
0.0
  0
LINE
  5
1019F
330
10568
100
AcDbEntity
  8
scan path-ideal
100
AcDbLine
 10
-1344.015625000007
 20
2169.03235578054
 30
0.0
 11
-1152.015625000008
 21
2169.032355780539
 31
0.0
  0
LINE
  5
10076
330
10568
100
AcDbEntity
  8
scan path-ideal
100
AcDbLine
 10
1343.984375000006
 20
-2169.032355780539
 30
0.0
 11
1151.984375000006
 21
-2169.032355780539
 31
0.0
  0
LINE
  5
101A4
330
10568
100
AcDbEntity
  8
scan path-ideal
100
AcDbLine
 10
-1152.015625000008
 20
2169.032355780539
 30
0.0
 11
-1152.015625000005
 21
-2268.487672343279
 31
0.0
  0
LINE
  5
10078
330
10568
100
AcDbEntity
  8
scan path-ideal
100
AcDbLine
 10
1151.984375000006
 20
-2169.032355780539
 30
0.0
 11
1151.984375000005
 21
2268.487672343277
 31
0.0
  0
LINE
  5
101A6
330
10568
100
AcDbEntity
  8
scan path-ideal
100
AcDbLine
 10
-1152.015625000005
 20
-2268.487672343279
 30
0.0
 11
-960.015625000005
 21
-2268.487672343278
 31
0.0
  0
LINE
  5
10079
330
10568
100
AcDbEntity
  8
scan path-ideal
100
AcDbLine
 10
1151.984375000005
 20
2268.487672343277
 30
0.0
 11
959.984375000005
 21
2268.487672343277
 31
0.0
  0
LINE
  5
1019A
330
10568
100
AcDbEntity
  8
scan path-ideal
100
AcDbLine
 10
-960.0156250000061
 20
-2268.487672343277
 30
0.0
 11
-960.0156250000084
 21
2348.177790953796
 31
0.0
  0
LINE
  5
1007B
330
10568
100
AcDbEntity
  8
scan path-ideal
100
AcDbLine
 10
959.984375000006
 20
2268.487672343277
 30
0.0
 11
959.984375000006
 21
-2348.177790953797
 31
0.0
  0
LINE
  5
1019B
330
10568
100
AcDbEntity
  8
scan path-ideal
100
AcDbLine
 10
-960.0156250000084
 20
2348.177790953796
 30
0.0
 11
-768.015625000008
 21
2348.177790953797
 31
0.0
  0
LINE
  5
1007C
330
10568
100
AcDbEntity
  8
scan path-ideal
100
AcDbLine
 10
959.984375000006
 20
-2348.177790953797
 30
0.0
 11
767.9843750000063
 21
-2348.177790953797
 31
0.0
  0
LINE
  5
101AC
330
10568
100
AcDbEntity
  8
scan path-ideal
100
AcDbLine
 10
-768.015625000008
 20
2348.177790953797
 30
0.0
 11
-768.0156250000055
 21
-2410.047088137144
 31
0.0
  0
LINE
  5
1007E
330
10568
100
AcDbEntity
  8
scan path-ideal
100
AcDbLine
 10
767.9843750000063
 20
-2348.177790953797
 30
0.0
 11
767.984375000006
 21
2410.047088137144
 31
0.0
  0
LINE
  5
101AE
330
10568
100
AcDbEntity
  8
scan path-ideal
100
AcDbLine
 10
-768.0156250000055
 20
-2410.047088137144
 30
0.0
 11
-576.0156250000057
 21
-2410.047088137144
 31
0.0
  0
LINE
  5
1007F
330
10568
100
AcDbEntity
  8
scan path-ideal
100
AcDbLine
 10
767.984375000006
 20
2410.047088137144
 30
0.0
 11
575.984375000006
 21
2410.047088137144
 31
0.0
  0
LINE
  5
101B0
330
10568
100
AcDbEntity
  8
scan path-ideal
100
AcDbLine
 10
-576.0156250000057
 20
-2410.047088137144
 30
0.0
 11
-576.0156250000095
 21
2455.43294984472
 31
0.0
  0
LINE
  5
10081
330
10568
100
AcDbEntity
  8
scan path-ideal
100
AcDbLine
 10
575.9843750000058
 20
2410.047088137144
 30
0.0
 11
575.9843750000058
 21
-2455.43294984472
 31
0.0
  0
LINE
  5
101A2
330
10568
100
AcDbEntity
  8
scan path-ideal
100
AcDbLine
 10
-576.0156250000095
 20
2455.43294984472
 30
0.0
 11
-384.0156250000059
 21
2455.43294984472
 31
0.0
  0
LINE
  5
10082
330
10568
100
AcDbEntity
  8
scan path-ideal
100
AcDbLine
 10
575.9843750000058
 20
-2455.43294984472
 30
0.0
 11
383.984375000006
 21
-2455.43294984472
 31
0.0
  0
LINE
  5
101A7
330
10568
100
AcDbEntity
  8
scan path-ideal
100
AcDbLine
 10
-384.0156250000059
 20
2455.43294984472
 30
0.0
 11
-384.0156250000055
 21
-2485.23259236718
 31
0.0
  0
LINE
  5
10085
330
10568
100
AcDbEntity
  8
scan path-ideal
100
AcDbLine
 10
383.984375000006
 20
-2455.43294984472
 30
0.0
 11
383.9843750000059
 21
2485.23259236718
 31
0.0
  0
LINE
  5
101AA
330
10568
100
AcDbEntity
  8
scan path-ideal
100
AcDbLine
 10
-384.0156250000055
 20
-2485.23259236718
 30
0.0
 11
-192.0156250000059
 21
-2485.23259236718
 31
0.0
  0
LINE
  5
10086
330
10568
100
AcDbEntity
  8
scan path-ideal
100
AcDbLine
 10
383.9843750000059
 20
2485.23259236718
 30
0.0
 11
191.9843750000059
 21
2485.23259236718
 31
0.0
  0
LINE
  5
10089
330
10568
100
AcDbEntity
  8
scan path-ideal
100
AcDbLine
 10
191.9843750000059
 20
2485.23259236718
 30
0.0
 11
191.9843750000058
 21
-2500.0
 31
0.0
  0
LINE
  5
1019C
330
10568
100
AcDbEntity
  8
scan path-ideal
100
AcDbLine
 10
-192.0156250000059
 20
-2485.23259236718
 30
0.0
 11
-192.0156250000077
 21
2500.0
 31
0.0
  0
LINE
  5
1008A
330
10568
100
AcDbEntity
  8
scan path-ideal
100
AcDbLine
 10
191.9843750000058
 20
-2500.0
 30
0.0
 11
-0.0156249999940599
 21
-2500.0
 31
0.0
  0
LINE
  5
1019E
330
10568
100
AcDbEntity
  8
scan path-ideal
100
AcDbLine
 10
-192.0156250000077
 20
2500.0
 30
0.0
 11
-0.0156249999954525
 21
2500.000000000001
 31
0.0
  0
LINE
  5
101A0
330
10568
100
AcDbEntity
  8
scan path-ideal
100
AcDbLine
 10
-192.0156250000086
 20
2274.495299848051
 30
0.0
 11
-192.0156250000064
 21
2281.87900366446
 31
0.0
  0
LINE
  5
1008B
330
10568
100
AcDbEntity
  8
scan path-ideal
100
AcDbLine
 10
191.9843750000058
 20
-2274.495299848051
 30
0.0
 11
191.9843750000058
 21
-2281.87900366446
 31
0.0
  0
LINE
  5
100B0
330
10568
100
AcDbEntity
  8
scan path-ideal
100
AcDbLine
 10
-0.015625
 20
2500.0
 30
0.0
 11
-0.0156249999940599
 21
-2500.0
 31
0.0
  0
LINE
  5
101D1
330
10568
100
AcDbEntity
  8
scan path- half-turns
100
AcDbLine
 10
5999.984375
 20
0.0
 30
0.0
 11
2159.984375
 21
0.0000000000004703
 31
0.0
  0
LINE
  5
10499
330
10568
100
AcDbEntity
  8
scan path- half-turns
100
AcDbLine
 10
-2064.015625000003
 20
1152.0
 30
0.0
 11
-1680.015625000004
 21
1152.0
 31
0.0
  0
LINE
  5
101D4
330
10568
100
AcDbEntity
  8
scan path- half-turns
100
AcDbLine
 10
2159.984375
 20
1152.0
 30
0.0
 11
1775.984375
 21
1152.0
 31
0.0
  0
LINE
  5
1049A
330
10568
100
AcDbEntity
  8
scan path- half-turns
100
AcDbLine
 10
-1680.015625
 20
-1920.0
 30
0.0
 11
-1296.015625
 21
-1920.0
 31
0.0
  0
LINE
  5
101DA
330
10568
100
AcDbEntity
  8
scan path- half-turns
100
AcDbLine
 10
1775.984374999998
 20
-1920.0
 30
0.0
 11
1391.984374999998
 21
-1920.0
 31
0.0
  0
LINE
  5
1049B
330
10568
100
AcDbEntity
  8
scan path- half-turns
100
AcDbLine
 10
-1296.015625000003
 20
1920.0
 30
0.0
 11
-912.0156250000036
 21
1920.0
 31
0.0
  0
LINE
  5
101E0
330
10568
100
AcDbEntity
  8
scan path- half-turns
100
AcDbLine
 10
1391.984374999998
 20
1920.0
 30
0.0
 11
1007.984374999998
 21
1920.0
 31
0.0
  0
LINE
  5
1049C
330
10568
100
AcDbEntity
  8
scan path- half-turns
100
AcDbLine
 10
-912.015625
 20
-2287.779709674863
 30
0.0
 11
-528.015625
 21
-2287.779709674862
 31
0.0
  0
LINE
  5
101E2
330
10568
100
AcDbEntity
  8
scan path- half-turns
100
AcDbLine
 10
1007.984374999998
 20
-2287.779709674864
 30
0.0
 11
623.9843749999982
 21
-2287.779709674864
 31
0.0
  0
LINE
  5
10202
330
10568
100
AcDbEntity
  8
scan path- half-turns
100
AcDbLine
 10
-528.0156250000018
 20
2320.220290325137
 30
0.0
 11
-144.0156250000036
 21
2320.220290325137
 31
0.0
  0
LINE
  5
101E4
330
10568
100
AcDbEntity
  8
scan path- half-turns
100
AcDbLine
 10
623.9843749999982
 20
2320.220290325136
 30
0.0
 11
239.9843749999976
 21
2320.220290325136
 31
0.0
  0
LINE
  5
101ED
330
10568
100
AcDbEntity
  8
scan path- half-turns
100
AcDbLine
 10
-144.0156250000041
 20
-2287.779709674863
 30
0.0
 11
239.9843749999977
 21
-2287.779709674864
 31
0.0
  0
LINE
  5
10204
330
10568
100
AcDbEntity
  8
path 2
100
AcDbLine
 10
5999.984375
 20
0.0
 30
0.0
 11
2399.984375
 21
0.0000000000004409
 31
0.0
  0
LINE
  5
10206
330
10568
100
AcDbEntity
  8
path 2
100
AcDbLine
 10
2399.984375
 20
0.0000000000004409
 30
0.0
 11
2399.984375
 21
720.0000000000005
 31
0.0
  0
LINE
  5
10207
330
10568
100
AcDbEntity
  8
path 2
100
AcDbLine
 10
2399.984375
 20
720.0000000000005
 30
0.0
 11
2219.984375
 21
720.0000000000005
 31
0.0
  0
INSERT
  5
1049E
330
10568
100
AcDbEntity
  8
images
100
AcDbBlockReference
  2
Image_area
 10
-2064.015625000001
 20
384.0000000000023
 30
0.0
 42
-1.0
 50
180.0
  0
INSERT
  5
102FD
330
10568
100
AcDbEntity
  8
images
100
AcDbBlockReference
  2
Image_area
 10
2159.984375
 20
384.0000000000005
 30
0.0
  0
INSERT
  5
1049F
330
10568
100
AcDbEntity
  8
images
100
AcDbBlockReference
  2
Image_area
 10
-2064.015625000003
 20
768.0000000000014
 30
0.0
 42
-1.0
 50
180.0
  0
INSERT
  5
10339
330
10568
100
AcDbEntity
  8
images
100
AcDbBlockReference
  2
Image_area
 10
2159.984375
 20
768.0000000000005
 30
0.0
  0
INSERT
  5
104A0
330
10568
100
AcDbEntity
  8
images
100
AcDbBlockReference
  2
Image_area
 10
-2064.015625000002
 20
0.0000000000022737
 30
0.0
 42
-1.0
 50
180.0
  0
INSERT
  5
10338
330
10568
100
AcDbEntity
  8
images
100
AcDbBlockReference
  2
Image_area
 10
2159.984375
 20
0.0000000000004716
 30
0.0
  0
INSERT
  5
10548
330
10568
100
AcDbEntity
  8
images
100
AcDbBlockReference
  2
Image_area
 10
1391.984374999998
 20
-1152.0
 30
0.0
 42
-1.0
 50
180.0
  0
INSERT
  5
10549
330
10568
100
AcDbEntity
  8
images
100
AcDbBlockReference
  2
Image_area
 10
1391.984374999998
 20
-1536.0
 30
0.0
 42
-1.0
 50
180.0
  0
INSERT
  5
10546
330
10568
100
AcDbEntity
  8
images
100
AcDbBlockReference
  2
Image_area
 10
1391.984374999998
 20
-384.0000000000001
 30
0.0
 42
-1.0
 50
180.0
  0
INSERT
  5
10547
330
10568
100
AcDbEntity
  8
images
100
AcDbBlockReference
  2
Image_area
 10
1391.984374999998
 20
-768.0
 30
0.0
 42
-1.0
 50
180.0
  0
INSERT
  5
10544
330
10568
100
AcDbEntity
  8
images
100
AcDbBlockReference
  2
Image_area
 10
1391.984374999998
 20
383.9999999999999
 30
0.0
 42
-1.0
 50
180.0
  0
INSERT
  5
10545
330
10568
100
AcDbEntity
  8
images
100
AcDbBlockReference
  2
Image_area
 10
1391.984374999998
 20
-0.0000000000000355
 30
0.0
 42
-1.0
 50
180.0
  0
INSERT
  5
10542
330
10568
100
AcDbEntity
  8
images
100
AcDbBlockReference
  2
Image_area
 10
1391.984374999998
 20
1152.0
 30
0.0
 42
-1.0
 50
180.0
  0
INSERT
  5
10543
330
10568
100
AcDbEntity
  8
images
100
AcDbBlockReference
  2
Image_area
 10
1391.984374999998
 20
768.0
 30
0.0
 42
-1.0
 50
180.0
  0
INSERT
  5
10540
330
10568
100
AcDbEntity
  8
images
100
AcDbBlockReference
  2
Image_area
 10
1391.984374999998
 20
1920.0
 30
0.0
 42
-1.0
 50
180.0
  0
INSERT
  5
10541
330
10568
100
AcDbEntity
  8
images
100
AcDbBlockReference
  2
Image_area
 10
1391.984374999998
 20
1536.0
 30
0.0
 42
-1.0
 50
180.0
  0
INSERT
  5
1053E
330
10568
100
AcDbEntity
  8
images
100
AcDbBlockReference
  2
Image_area
 10
1007.984374999998
 20
1536.0
 30
0.0
 42
-1.0
 50
180.0
  0
INSERT
  5
1053F
330
10568
100
AcDbEntity
  8
images
100
AcDbBlockReference
  2
Image_area
 10
1007.984374999998
 20
1920.0
 30
0.0
 42
-1.0
 50
180.0
  0
INSERT
  5
1053C
330
10568
100
AcDbEntity
  8
images
100
AcDbBlockReference
  2
Image_area
 10
1007.984374999998
 20
767.9999999999995
 30
0.0
 42
-1.0
 50
180.0
  0
INSERT
  5
1053D
330
10568
100
AcDbEntity
  8
images
100
AcDbBlockReference
  2
Image_area
 10
1007.984374999998
 20
1152.0
 30
0.0
 42
-1.0
 50
180.0
  0
INSERT
  5
1052A
330
10568
100
AcDbEntity
  8
images
100
AcDbBlockReference
  2
Image_area
 10
623.9843749999982
 20
1168.220290325136
 30
0.0
 42
-1.0
 50
180.0
  0
INSERT
  5
1052B
330
10568
100
AcDbEntity
  8
images
100
AcDbBlockReference
  2
Image_area
 10
623.9843749999982
 20
784.2202903251361
 30
0.0
 42
-1.0
 50
180.0
  0
INSERT
  5
10528
330
10568
100
AcDbEntity
  8
images
100
AcDbBlockReference
  2
Image_area
 10
623.9843749999982
 20
1936.220290325136
 30
0.0
 42
-1.0
 50
180.0
  0
INSERT
  5
10529
330
10568
100
AcDbEntity
  8
images
100
AcDbBlockReference
  2
Image_area
 10
623.9843749999982
 20
1552.220290325136
 30
0.0
 42
-1.0
 50
180.0
  0
INSERT
  5
10526
330
10568
100
AcDbEntity
  8
images
100
AcDbBlockReference
  2
Image_area
 10
239.9843749999977
 20
2320.220290325136
 30
0.0
 42
-1.0
 50
180.0
  0
INSERT
  5
10527
330
10568
100
AcDbEntity
  8
images
100
AcDbBlockReference
  2
Image_area
 10
623.9843749999981
 20
2320.220290325136
 30
0.0
 42
-1.0
 50
180.0
  0
INSERT
  5
10524
330
10568
100
AcDbEntity
  8
images
100
AcDbBlockReference
  2
Image_area
 10
239.9843749999977
 20
1552.220290325136
 30
0.0
 42
-1.0
 50
180.0
  0
INSERT
  5
10525
330
10568
100
AcDbEntity
  8
images
100
AcDbBlockReference
  2
Image_area
 10
239.9843749999977
 20
1936.220290325136
 30
0.0
 42
-1.0
 50
180.0
  0
INSERT
  5
10522
330
10568
100
AcDbEntity
  8
images
100
AcDbBlockReference
  2
Image_area
 10
239.9843749999977
 20
784.2202903251361
 30
0.0
 42
-1.0
 50
180.0
  0
INSERT
  5
10523
330
10568
100
AcDbEntity
  8
images
100
AcDbBlockReference
  2
Image_area
 10
239.9843749999977
 20
1168.220290325136
 30
0.0
 42
-1.0
 50
180.0
  0
INSERT
  5
10520
330
10568
100
AcDbEntity
  8
images
100
AcDbBlockReference
  2
Image_area
 10
239.9843749999977
 20
-0.0000000000000355
 30
0.0
 42
-1.0
 50
180.0
  0
INSERT
  5
10521
330
10568
100
AcDbEntity
  8
images
100
AcDbBlockReference
  2
Image_area
 10
239.9843749999977
 20
400.220290325136
 30
0.0
 42
-1.0
 50
180.0
  0
INSERT
  5
1051E
330
10568
100
AcDbEntity
  8
images
100
AcDbBlockReference
  2
Image_area
 10
239.9843749999977
 20
-751.7797096748639
 30
0.0
 42
-1.0
 50
180.0
  0
INSERT
  5
1051F
330
10568
100
AcDbEntity
  8
images
100
AcDbBlockReference
  2
Image_area
 10
239.9843749999977
 20
-367.7797096748639
 30
0.0
 42
-1.0
 50
180.0
  0
INSERT
  5
1051C
330
10568
100
AcDbEntity
  8
images
100
AcDbBlockReference
  2
Image_area
 10
239.9843749999977
 20
-1519.779709674864
 30
0.0
 42
-1.0
 50
180.0
  0
INSERT
  5
1051D
330
10568
100
AcDbEntity
  8
images
100
AcDbBlockReference
  2
Image_area
 10
239.9843749999977
 20
-1135.779709674864
 30
0.0
 42
-1.0
 50
180.0
  0
INSERT
  5
1053A
330
10568
100
AcDbEntity
  8
images
100
AcDbBlockReference
  2
Image_area
 10
1007.984374999998
 20
-0.0000000000000355
 30
0.0
 42
-1.0
 50
180.0
  0
INSERT
  5
1053B
330
10568
100
AcDbEntity
  8
images
100
AcDbBlockReference
  2
Image_area
 10
1007.984374999998
 20
383.9999999999994
 30
0.0
 42
-1.0
 50
180.0
  0
INSERT
  5
10538
330
10568
100
AcDbEntity
  8
images
100
AcDbBlockReference
  2
Image_area
 10
1007.984374999998
 20
-768.0000000000005
 30
0.0
 42
-1.0
 50
180.0
  0
INSERT
  5
10539
330
10568
100
AcDbEntity
  8
images
100
AcDbBlockReference
  2
Image_area
 10
1007.984374999998
 20
-384.0000000000006
 30
0.0
 42
-1.0
 50
180.0
  0
INSERT
  5
10536
330
10568
100
AcDbEntity
  8
images
100
AcDbBlockReference
  2
Image_area
 10
1007.984374999998
 20
-1536.0
 30
0.0
 42
-1.0
 50
180.0
  0
INSERT
  5
10537
330
10568
100
AcDbEntity
  8
images
100
AcDbBlockReference
  2
Image_area
 10
1007.984374999998
 20
-1152.0
 30
0.0
 42
-1.0
 50
180.0
  0
INSERT
  5
10534
330
10568
100
AcDbEntity
  8
images
100
AcDbBlockReference
  2
Image_area
 10
1007.984374999997
 20
-2287.779709674864
 30
0.0
 42
-1.0
 50
180.0
  0
INSERT
  5
10535
330
10568
100
AcDbEntity
  8
images
100
AcDbBlockReference
  2
Image_area
 10
1007.984374999998
 20
-1920.0
 30
0.0
 42
-1.0
 50
180.0
  0
INSERT
  5
10532
330
10568
100
AcDbEntity
  8
images
100
AcDbBlockReference
  2
Image_area
 10
623.9843749999982
 20
-1903.779709674864
 30
0.0
 42
-1.0
 50
180.0
  0
INSERT
  5
10533
330
10568
100
AcDbEntity
  8
images
100
AcDbBlockReference
  2
Image_area
 10
623.9843749999982
 20
-2287.779709674864
 30
0.0
 42
-1.0
 50
180.0
  0
INSERT
  5
10530
330
10568
100
AcDbEntity
  8
images
100
AcDbBlockReference
  2
Image_area
 10
623.9843749999982
 20
-1135.779709674864
 30
0.0
 42
-1.0
 50
180.0
  0
INSERT
  5
10531
330
10568
100
AcDbEntity
  8
images
100
AcDbBlockReference
  2
Image_area
 10
623.9843749999982
 20
-1519.779709674864
 30
0.0
 42
-1.0
 50
180.0
  0
INSERT
  5
1052E
330
10568
100
AcDbEntity
  8
images
100
AcDbBlockReference
  2
Image_area
 10
623.9843749999982
 20
-367.779709674864
 30
0.0
 42
-1.0
 50
180.0
  0
INSERT
  5
1052F
330
10568
100
AcDbEntity
  8
images
100
AcDbBlockReference
  2
Image_area
 10
623.9843749999982
 20
-751.7797096748639
 30
0.0
 42
-1.0
 50
180.0
  0
INSERT
  5
1052C
330
10568
100
AcDbEntity
  8
images
100
AcDbBlockReference
  2
Image_area
 10
623.9843749999982
 20
400.220290325136
 30
0.0
 42
-1.0
 50
180.0
  0
INSERT
  5
1052D
330
10568
100
AcDbEntity
  8
images
100
AcDbBlockReference
  2
Image_area
 10
623.9843749999981
 20
-0.0000000000000355
 30
0.0
 42
-1.0
 50
180.0
  0
INSERT
  5
1050A
330
10568
100
AcDbEntity
  8
images
100
AcDbBlockReference
  2
Image_area
 10
-528.0156250000009
 20
1552.220290325137
 30
0.0
 42
-1.0
 50
180.0
  0
INSERT
  5
1050B
330
10568
100
AcDbEntity
  8
images
100
AcDbBlockReference
  2
Image_area
 10
-528.0156250000027
 20
1936.220290325137
 30
0.0
 42
-1.0
 50
180.0
  0
INSERT
  5
10508
330
10568
100
AcDbEntity
  8
images
100
AcDbBlockReference
  2
Image_area
 10
-528.0156250000009
 20
784.2202903251364
 30
0.0
 42
-1.0
 50
180.0
  0
INSERT
  5
10509
330
10568
100
AcDbEntity
  8
images
100
AcDbBlockReference
  2
Image_area
 10
-528.0156250000018
 20
1168.220290325136
 30
0.0
 42
-1.0
 50
180.0
  0
INSERT
  5
10506
330
10568
100
AcDbEntity
  8
images
100
AcDbBlockReference
  2
Image_area
 10
-528.0156250000018
 20
16.2202903251377
 30
0.0
 42
-1.0
 50
180.0
  0
INSERT
  5
10507
330
10568
100
AcDbEntity
  8
images
100
AcDbBlockReference
  2
Image_area
 10
-528.015625
 20
400.2202903251368
 30
0.0
 42
-1.0
 50
180.0
  0
INSERT
  5
10504
330
10568
100
AcDbEntity
  8
images
100
AcDbBlockReference
  2
Image_area
 10
-528.015625
 20
-751.7797096748632
 30
0.0
 42
-1.0
 50
180.0
  0
INSERT
  5
10505
330
10568
100
AcDbEntity
  8
images
100
AcDbBlockReference
  2
Image_area
 10
-528.015625
 20
-367.7797096748635
 30
0.0
 42
-1.0
 50
180.0
  0
INSERT
  5
10502
330
10568
100
AcDbEntity
  8
images
100
AcDbBlockReference
  2
Image_area
 10
-528.015625
 20
-1519.779709674863
 30
0.0
 42
-1.0
 50
180.0
  0
INSERT
  5
10503
330
10568
100
AcDbEntity
  8
images
100
AcDbBlockReference
  2
Image_area
 10
-528.015625
 20
-1135.779709674862
 30
0.0
 42
-1.0
 50
180.0
  0
INSERT
  5
10500
330
10568
100
AcDbEntity
  8
images
100
AcDbBlockReference
  2
Image_area
 10
-528.015625
 20
-2287.779709674862
 30
0.0
 42
-1.0
 50
180.0
  0
INSERT
  5
10501
330
10568
100
AcDbEntity
  8
images
100
AcDbBlockReference
  2
Image_area
 10
-528.015625
 20
-1903.779709674862
 30
0.0
 42
-1.0
 50
180.0
  0
INSERT
  5
104FE
330
10568
100
AcDbEntity
  8
images
100
AcDbBlockReference
  2
Image_area
 10
-912.015625
 20
-1919.999999999999
 30
0.0
 42
-1.0
 50
180.0
  0
INSERT
  5
104FF
330
10568
100
AcDbEntity
  8
images
100
AcDbBlockReference
  2
Image_area
 10
-912.015625
 20
-2287.779709674863
 30
0.0
 42
-1.0
 50
180.0
  0
INSERT
  5
104FC
330
10568
100
AcDbEntity
  8
images
100
AcDbBlockReference
  2
Image_area
 10
-912.015625
 20
-1151.999999999999
 30
0.0
 42
-1.0
 50
180.0
  0
INSERT
  5
104FD
330
10568
100
AcDbEntity
  8
images
100
AcDbBlockReference
  2
Image_area
 10
-912.015625
 20
-1536.0
 30
0.0
 42
-1.0
 50
180.0
  0
INSERT
  5
1051A
330
10568
100
AcDbEntity
  8
images
100
AcDbBlockReference
  2
Image_area
 10
239.9843749999977
 20
-2287.779709674864
 30
0.0
 42
-1.0
 50
180.0
  0
INSERT
  5
1051B
330
10568
100
AcDbEntity
  8
images
100
AcDbBlockReference
  2
Image_area
 10
239.9843749999977
 20
-1903.779709674864
 30
0.0
 42
-1.0
 50
180.0
  0
INSERT
  5
10518
330
10568
100
AcDbEntity
  8
images
100
AcDbBlockReference
  2
Image_area
 10
-144.0156250000036
 20
-1903.779709674863
 30
0.0
 42
-1.0
 50
180.0
  0
INSERT
  5
10519
330
10568
100
AcDbEntity
  8
images
100
AcDbBlockReference
  2
Image_area
 10
-144.0156250000036
 20
-2287.779709674863
 30
0.0
 42
-1.0
 50
180.0
  0
INSERT
  5
10516
330
10568
100
AcDbEntity
  8
images
100
AcDbBlockReference
  2
Image_area
 10
-144.0156250000036
 20
-1135.779709674863
 30
0.0
 42
-1.0
 50
180.0
  0
INSERT
  5
10517
330
10568
100
AcDbEntity
  8
images
100
AcDbBlockReference
  2
Image_area
 10
-144.0156250000036
 20
-1519.779709674863
 30
0.0
 42
-1.0
 50
180.0
  0
INSERT
  5
10514
330
10568
100
AcDbEntity
  8
images
100
AcDbBlockReference
  2
Image_area
 10
-144.0156250000036
 20
-367.779709674863
 30
0.0
 42
-1.0
 50
180.0
  0
INSERT
  5
10515
330
10568
100
AcDbEntity
  8
images
100
AcDbBlockReference
  2
Image_area
 10
-144.0156250000036
 20
-751.7797096748629
 30
0.0
 42
-1.0
 50
180.0
  0
INSERT
  5
10512
330
10568
100
AcDbEntity
  8
images
100
AcDbBlockReference
  2
Image_area
 10
-144.0156250000036
 20
400.220290325137
 30
0.0
 42
-1.0
 50
180.0
  0
INSERT
  5
10513
330
10568
100
AcDbEntity
  8
images
100
AcDbBlockReference
  2
Image_area
 10
-144.0156250000036
 20
16.22029032513702
 30
0.0
 42
-1.0
 50
180.0
  0
INSERT
  5
10510
330
10568
100
AcDbEntity
  8
images
100
AcDbBlockReference
  2
Image_area
 10
-144.0156250000036
 20
1168.220290325137
 30
0.0
 42
-1.0
 50
180.0
  0
INSERT
  5
10511
330
10568
100
AcDbEntity
  8
images
100
AcDbBlockReference
  2
Image_area
 10
-144.0156250000036
 20
784.2202903251371
 30
0.0
 42
-1.0
 50
180.0
  0
INSERT
  5
1050E
330
10568
100
AcDbEntity
  8
images
100
AcDbBlockReference
  2
Image_area
 10
-144.0156250000036
 20
1936.220290325137
 30
0.0
 42
-1.0
 50
180.0
  0
INSERT
  5
1050F
330
10568
100
AcDbEntity
  8
images
100
AcDbBlockReference
  2
Image_area
 10
-144.0156250000036
 20
1552.220290325137
 30
0.0
 42
-1.0
 50
180.0
  0
INSERT
  5
1050C
330
10568
100
AcDbEntity
  8
images
100
AcDbBlockReference
  2
Image_area
 10
-528.0156250000019
 20
2320.220290325137
 30
0.0
 42
-1.0
 50
180.0
  0
INSERT
  5
1050D
330
10568
100
AcDbEntity
  8
images
100
AcDbBlockReference
  2
Image_area
 10
-144.0156250000036
 20
2320.220290325137
 30
0.0
 42
-1.0
 50
180.0
  0
INSERT
  5
104EA
330
10568
100
AcDbEntity
  8
images
100
AcDbBlockReference
  2
Image_area
 10
-1296.015625
 20
-1536.0
 30
0.0
 42
-1.0
 50
180.0
  0
INSERT
  5
104EB
330
10568
100
AcDbEntity
  8
images
100
AcDbBlockReference
  2
Image_area
 10
-1296.015625
 20
-1151.999999999999
 30
0.0
 42
-1.0
 50
180.0
  0
INSERT
  5
104E8
330
10568
100
AcDbEntity
  8
images
100
AcDbBlockReference
  2
Image_area
 10
-2064.015625
 20
-767.9999999999955
 30
0.0
 42
-1.0
 50
180.0
  0
INSERT
  5
104E9
330
10568
100
AcDbEntity
  8
images
100
AcDbBlockReference
  2
Image_area
 10
-2064.015625000001
 20
-1151.999999999995
 30
0.0
 42
-1.0
 50
180.0
  0
INSERT
  5
104E7
330
10568
100
AcDbEntity
  8
images
100
AcDbBlockReference
  2
Image_area
 10
-2064.015625000002
 20
-383.9999999999964
 30
0.0
 42
-1.0
 50
180.0
  0
INSERT
  5
104FA
330
10568
100
AcDbEntity
  8
images
100
AcDbBlockReference
  2
Image_area
 10
-912.0156250000009
 20
-383.9999999999994
 30
0.0
 42
-1.0
 50
180.0
  0
INSERT
  5
104FB
330
10568
100
AcDbEntity
  8
images
100
AcDbBlockReference
  2
Image_area
 10
-912.015625
 20
-767.9999999999995
 30
0.0
 42
-1.0
 50
180.0
  0
INSERT
  5
104F8
330
10568
100
AcDbEntity
  8
images
100
AcDbBlockReference
  2
Image_area
 10
-912.015625
 20
384.0000000000004
 30
0.0
 42
-1.0
 50
180.0
  0
INSERT
  5
104F9
330
10568
100
AcDbEntity
  8
images
100
AcDbBlockReference
  2
Image_area
 10
-912.015625
 20
0.0000000000004192
 30
0.0
 42
-1.0
 50
180.0
  0
INSERT
  5
104F6
330
10568
100
AcDbEntity
  8
images
100
AcDbBlockReference
  2
Image_area
 10
-912.0156249999982
 20
1152.0
 30
0.0
 42
-1.0
 50
180.0
  0
INSERT
  5
104F7
330
10568
100
AcDbEntity
  8
images
100
AcDbBlockReference
  2
Image_area
 10
-912.0156250000009
 20
768.0000000000005
 30
0.0
 42
-1.0
 50
180.0
  0
INSERT
  5
104F4
330
10568
100
AcDbEntity
  8
images
100
AcDbBlockReference
  2
Image_area
 10
-912.0156250000035
 20
1920.0
 30
0.0
 42
-1.0
 50
180.0
  0
INSERT
  5
104F5
330
10568
100
AcDbEntity
  8
images
100
AcDbBlockReference
  2
Image_area
 10
-912.0156250000009
 20
1536.0
 30
0.0
 42
-1.0
 50
180.0
  0
INSERT
  5
104F2
330
10568
100
AcDbEntity
  8
images
100
AcDbBlockReference
  2
Image_area
 10
-1296.015625
 20
1536.0
 30
0.0
 42
-1.0
 50
180.0
  0
INSERT
  5
104F3
330
10568
100
AcDbEntity
  8
images
100
AcDbBlockReference
  2
Image_area
 10
-1296.015625000003
 20
1920.0
 30
0.0
 42
-1.0
 50
180.0
  0
INSERT
  5
104F0
330
10568
100
AcDbEntity
  8
images
100
AcDbBlockReference
  2
Image_area
 10
-1296.015625
 20
768.0000000000005
 30
0.0
 42
-1.0
 50
180.0
  0
INSERT
  5
104F1
330
10568
100
AcDbEntity
  8
images
100
AcDbBlockReference
  2
Image_area
 10
-1296.015625000003
 20
1152.0
 30
0.0
 42
-1.0
 50
180.0
  0
INSERT
  5
104EE
330
10568
100
AcDbEntity
  8
images
100
AcDbBlockReference
  2
Image_area
 10
-1296.015625
 20
0.000000000000874
 30
0.0
 42
-1.0
 50
180.0
  0
INSERT
  5
104EF
330
10568
100
AcDbEntity
  8
images
100
AcDbBlockReference
  2
Image_area
 10
-1296.015625
 20
383.9999999999999
 30
0.0
 42
-1.0
 50
180.0
  0
INSERT
  5
104EC
330
10568
100
AcDbEntity
  8
images
100
AcDbBlockReference
  2
Image_area
 10
-1296.015625
 20
-767.9999999999991
 30
0.0
 42
-1.0
 50
180.0
  0
INSERT
  5
104ED
330
10568
100
AcDbEntity
  8
images
100
AcDbBlockReference
  2
Image_area
 10
-1296.015625
 20
-383.9999999999991
 30
0.0
 42
-1.0
 50
180.0
  0
INSERT
  5
104A1
330
10568
100
AcDbEntity
  8
images
100
AcDbBlockReference
  2
Image_area
 10
-1680.015625000002
 20
-383.9999999999995
 30
0.0
 42
-1.0
 50
180.0
  0
INSERT
  5
1034B
330
10568
100
AcDbEntity
  8
images
100
AcDbBlockReference
  2
Image_area
 10
1775.984375
 20
-384.0
 30
0.0
  0
INSERT
  5
104A2
330
10568
100
AcDbEntity
  8
images
100
AcDbBlockReference
  2
Image_area
 10
-1680.015625000001
 20
768.0000000000023
 30
0.0
 42
-1.0
 50
180.0
  0
INSERT
  5
1034A
330
10568
100
AcDbEntity
  8
images
100
AcDbBlockReference
  2
Image_area
 10
1775.984375
 20
768.0000000000002
 30
0.0
  0
INSERT
  5
104A3
330
10568
100
AcDbEntity
  8
images
100
AcDbBlockReference
  2
Image_area
 10
-1680.015625000004
 20
1152.0
 30
0.0
 42
-1.0
 50
180.0
  0
INSERT
  5
10349
330
10568
100
AcDbEntity
  8
images
100
AcDbBlockReference
  2
Image_area
 10
1775.984375
 20
1152.0
 30
0.0
  0
INSERT
  5
104A4
330
10568
100
AcDbEntity
  8
images
100
AcDbBlockReference
  2
Image_area
 10
-1680.015625000003
 20
0.0000000000009095
 30
0.0
 42
-1.0
 50
180.0
  0
INSERT
  5
10348
330
10568
100
AcDbEntity
  8
images
100
AcDbBlockReference
  2
Image_area
 10
1775.984374999999
 20
0.0
 30
0.0
  0
INSERT
  5
104A5
330
10568
100
AcDbEntity
  8
images
100
AcDbBlockReference
  2
Image_area
 10
-1680.015625000005
 20
384.0000000000005
 30
0.0
 42
-1.0
 50
180.0
  0
INSERT
  5
10347
330
10568
100
AcDbEntity
  8
images
100
AcDbBlockReference
  2
Image_area
 10
1775.984375
 20
384.0000000000001
 30
0.0
  0
INSERT
  5
104A6
330
10568
100
AcDbEntity
  8
images
100
AcDbBlockReference
  2
Image_area
 10
-2064.015625000003
 20
1152.0
 30
0.0
 42
-1.0
 50
180.0
  0
INSERT
  5
10346
330
10568
100
AcDbEntity
  8
images
100
AcDbBlockReference
  2
Image_area
 10
2159.984375
 20
1152.0
 30
0.0
  0
INSERT
  5
104A7
330
10568
100
AcDbEntity
  8
images
100
AcDbBlockReference
  2
Image_area
 10
-1296.015625
 20
-1920.0
 30
0.0
 42
-1.0
 50
180.0
  0
INSERT
  5
10363
330
10568
100
AcDbEntity
  8
images
100
AcDbBlockReference
  2
Image_area
 10
1391.984374999998
 20
-1920.0
 30
0.0
  0
INSERT
  5
10362
330
10568
100
AcDbEntity
  8
images
100
AcDbBlockReference
  2
Image_area
 10
1775.984375
 20
-1152.0
 30
0.0
  0
INSERT
  5
104A8
330
10568
100
AcDbEntity
  8
images
100
AcDbBlockReference
  2
Image_area
 10
-1680.015625000002
 20
-1151.999999999999
 30
0.0
 42
-1.0
 50
180.0
  0
INSERT
  5
104A9
330
10568
100
AcDbEntity
  8
images
100
AcDbBlockReference
  2
Image_area
 10
-1680.015625000002
 20
-767.9999999999995
 30
0.0
 42
-1.0
 50
180.0
  0
INSERT
  5
10361
330
10568
100
AcDbEntity
  8
images
100
AcDbBlockReference
  2
Image_area
 10
1775.984375
 20
-768.0
 30
0.0
  0
INSERT
  5
10360
330
10568
100
AcDbEntity
  8
images
100
AcDbBlockReference
  2
Image_area
 10
1775.984375
 20
-1920.0
 30
0.0
  0
INSERT
  5
104AA
330
10568
100
AcDbEntity
  8
images
100
AcDbBlockReference
  2
Image_area
 10
-1680.015625000002
 20
-1919.999999999999
 30
0.0
 42
-1.0
 50
180.0
  0
INSERT
  5
1035F
330
10568
100
AcDbEntity
  8
images
100
AcDbBlockReference
  2
Image_area
 10
1775.984375
 20
-1536.0
 30
0.0
  0
INSERT
  5
104AB
330
10568
100
AcDbEntity
  8
images
100
AcDbBlockReference
  2
Image_area
 10
-1680.015625000002
 20
-1536.0
 30
0.0
 42
-1.0
 50
180.0
  0
LINE
  5
104AC
330
10568
100
AcDbEntity
  8
scan path- half-turns
100
AcDbLine
 10
-1680.015625000003
 20
0.0000000000009095
 30
0.0
 11
-1680.015625000002
 21
-383.9999999999995
 31
0.0
  0
LINE
  5
1035D
330
10568
100
AcDbEntity
  8
scan path- half-turns
100
AcDbLine
 10
1775.984375
 20
0.0
 30
0.0
 11
1775.984375
 21
-384.0
 31
0.0
  0
LINE
  5
104AD
330
10568
100
AcDbEntity
  8
scan path- half-turns
100
AcDbLine
 10
-1680.015625000002
 20
-1151.999999999999
 30
0.0
 11
-1680.015625000002
 21
-1536.0
 31
0.0
  0
LINE
  5
1035C
330
10568
100
AcDbEntity
  8
scan path- half-turns
100
AcDbLine
 10
1775.984375
 20
-1152.0
 30
0.0
 11
1775.984375
 21
-1536.0
 31
0.0
  0
LINE
  5
104AE
330
10568
100
AcDbEntity
  8
scan path- half-turns
100
AcDbLine
 10
-1296.015625
 20
-767.9999999999991
 30
0.0
 11
-1296.015625
 21
-1151.999999999999
 31
0.0
  0
LINE
  5
1035B
330
10568
100
AcDbEntity
  8
scan path- half-turns
100
AcDbLine
 10
1391.984374999998
 20
-768.0
 30
0.0
 11
1391.984374999998
 21
-1152.0
 31
0.0
  0
LINE
  5
104AF
330
10568
100
AcDbEntity
  8
scan path- half-turns
100
AcDbLine
 10
-1680.015625000002
 20
-1536.0
 30
0.0
 11
-1680.015625000002
 21
-1919.999999999999
 31
0.0
  0
LINE
  5
1035A
330
10568
100
AcDbEntity
  8
scan path- half-turns
100
AcDbLine
 10
1775.984375
 20
-1536.0
 30
0.0
 11
1775.984375
 21
-1920.0
 31
0.0
  0
LINE
  5
104B0
330
10568
100
AcDbEntity
  8
scan path- half-turns
100
AcDbLine
 10
-1680.015625000002
 20
-383.9999999999995
 30
0.0
 11
-1680.015625000002
 21
-767.9999999999995
 31
0.0
  0
LINE
  5
10359
330
10568
100
AcDbEntity
  8
scan path- half-turns
100
AcDbLine
 10
1775.984375
 20
-384.0
 30
0.0
 11
1775.984375
 21
-768.0
 31
0.0
  0
LINE
  5
104B1
330
10568
100
AcDbEntity
  8
scan path- half-turns
100
AcDbLine
 10
-1296.015625
 20
-1151.999999999999
 30
0.0
 11
-1296.015625
 21
-1536.0
 31
0.0
  0
LINE
  5
10358
330
10568
100
AcDbEntity
  8
scan path- half-turns
100
AcDbLine
 10
1391.984374999998
 20
-1152.0
 30
0.0
 11
1391.984374999998
 21
-1536.0
 31
0.0
  0
LINE
  5
104B2
330
10568
100
AcDbEntity
  8
scan path- half-turns
100
AcDbLine
 10
-1680.015625000002
 20
-767.9999999999995
 30
0.0
 11
-1680.015625000002
 21
-1151.999999999999
 31
0.0
  0
LINE
  5
10357
330
10568
100
AcDbEntity
  8
scan path- half-turns
100
AcDbLine
 10
1775.984375
 20
-768.0
 30
0.0
 11
1775.984375
 21
-1152.0
 31
0.0
  0
LINE
  5
104B3
330
10568
100
AcDbEntity
  8
scan path- half-turns
100
AcDbLine
 10
-1680.015625000005
 20
384.0000000000005
 30
0.0
 11
-1680.015625000003
 21
0.000000000001819
 31
0.0
  0
LINE
  5
10356
330
10568
100
AcDbEntity
  8
scan path- half-turns
100
AcDbLine
 10
1775.984375
 20
384.0000000000005
 30
0.0
 11
1775.984375
 21
0.0000000000004547
 31
0.0
  0
LINE
  5
104B4
330
10568
100
AcDbEntity
  8
scan path- half-turns
100
AcDbLine
 10
-1680.015625000004
 20
1152.0
 30
0.0
 11
-1680.015625000001
 21
768.0000000000023
 31
0.0
  0
LINE
  5
10355
330
10568
100
AcDbEntity
  8
scan path- half-turns
100
AcDbLine
 10
1775.984375
 20
1152.0
 30
0.0
 11
1775.984375
 21
768.0000000000005
 31
0.0
  0
LINE
  5
104B5
330
10568
100
AcDbEntity
  8
scan path- half-turns
100
AcDbLine
 10
-2064.015625000003
 20
1152.0
 30
0.0
 11
-2064.015625000003
 21
768.0000000000014
 31
0.0
  0
LINE
  5
10354
330
10568
100
AcDbEntity
  8
scan path- half-turns
100
AcDbLine
 10
2159.984375
 20
1152.0
 30
0.0
 11
2159.984375
 21
768.0000000000005
 31
0.0
  0
LINE
  5
104E4
330
10568
100
AcDbEntity
  8
scan path- half-turns
100
AcDbLine
 10
-2064.015625000002
 20
0.0000000000022737
 30
0.0
 11
-2064.015625000002
 21
-383.9999999999964
 31
0.0
  0
LINE
  5
104B6
330
10568
100
AcDbEntity
  8
scan path- half-turns
100
AcDbLine
 10
-1680.015625000001
 20
768.0000000000023
 30
0.0
 11
-1680.015625000005
 21
384.0000000000005
 31
0.0
  0
LINE
  5
10353
330
10568
100
AcDbEntity
  8
scan path- half-turns
100
AcDbLine
 10
1775.984375
 20
768.0000000000005
 30
0.0
 11
1775.984375
 21
384.0000000000005
 31
0.0
  0
LINE
  5
104B7
330
10568
100
AcDbEntity
  8
scan path- half-turns
100
AcDbLine
 10
-2064.015625000003
 20
768.0000000000014
 30
0.0
 11
-2064.015625000001
 21
384.0000000000023
 31
0.0
  0
LINE
  5
10352
330
10568
100
AcDbEntity
  8
scan path- half-turns
100
AcDbLine
 10
2159.984375
 20
768.0000000000005
 30
0.0
 11
2159.984375
 21
384.0000000000005
 31
0.0
  0
LINE
  5
104E5
330
10568
100
AcDbEntity
  8
scan path- half-turns
100
AcDbLine
 10
-2064.015625000002
 20
-383.9999999999964
 30
0.0
 11
-2064.015625
 21
-767.9999999999955
 31
0.0
  0
LINE
  5
104B8
330
10568
100
AcDbEntity
  8
scan path- half-turns
100
AcDbLine
 10
-2064.015625000001
 20
384.0000000000023
 30
0.0
 11
-2064.015625000002
 21
0.0000000000022737
 31
0.0
  0
LINE
  5
10351
330
10568
100
AcDbEntity
  8
scan path- half-turns
100
AcDbLine
 10
2159.984375
 20
384.0000000000005
 30
0.0
 11
2159.984375
 21
0.0000000000004547
 31
0.0
  0
LINE
  5
104E6
330
10568
100
AcDbEntity
  8
scan path- half-turns
100
AcDbLine
 10
-2064.015625
 20
-767.9999999999955
 30
0.0
 11
-2064.015625000001
 21
-1151.999999999995
 31
0.0
  0
LINE
  5
104B9
330
10568
100
AcDbEntity
  8
scan path- half-turns
100
AcDbLine
 10
-528.015625
 20
-1903.779709674862
 30
0.0
 11
-528.015625
 21
-2287.779709674862
 31
0.0
  0
LINE
  5
1048D
330
10568
100
AcDbEntity
  8
scan path- half-turns
100
AcDbLine
 10
-144.0156250000036
 20
-1903.779709674863
 30
0.0
 11
-144.0156250000036
 21
-2287.779709674863
 31
0.0
  0
LINE
  5
10475
330
10568
100
AcDbEntity
  8
scan path- half-turns
100
AcDbLine
 10
239.9843749999977
 20
-1903.779709674864
 30
0.0
 11
239.9843749999977
 21
-2287.779709674864
 31
0.0
  0
LINE
  5
1037D
330
10568
100
AcDbEntity
  8
scan path- half-turns
100
AcDbLine
 10
623.9843749999982
 20
-1903.779709674864
 30
0.0
 11
623.9843749999982
 21
-2287.779709674864
 31
0.0
  0
LINE
  5
104BB
330
10568
100
AcDbEntity
  8
scan path- half-turns
100
AcDbLine
 10
-528.015625
 20
-751.7797096748632
 30
0.0
 11
-528.015625
 21
-1135.779709674862
 31
0.0
  0
LINE
  5
1048E
330
10568
100
AcDbEntity
  8
scan path- half-turns
100
AcDbLine
 10
-144.0156250000036
 20
-751.7797096748629
 30
0.0
 11
-144.0156250000036
 21
-1135.779709674863
 31
0.0
  0
LINE
  5
10476
330
10568
100
AcDbEntity
  8
scan path- half-turns
100
AcDbLine
 10
239.9843749999977
 20
-751.7797096748639
 30
0.0
 11
239.9843749999977
 21
-1135.779709674864
 31
0.0
  0
LINE
  5
1037C
330
10568
100
AcDbEntity
  8
scan path- half-turns
100
AcDbLine
 10
623.9843749999982
 20
-751.7797096748639
 30
0.0
 11
623.9843749999982
 21
-1135.779709674864
 31
0.0
  0
LINE
  5
1048F
330
10568
100
AcDbEntity
  8
scan path- half-turns
100
AcDbLine
 10
-144.0156250000036
 20
-1135.779709674863
 30
0.0
 11
-144.0156250000036
 21
-1519.779709674863
 31
0.0
  0
LINE
  5
10477
330
10568
100
AcDbEntity
  8
scan path- half-turns
100
AcDbLine
 10
239.9843749999977
 20
-1135.779709674864
 30
0.0
 11
239.9843749999977
 21
-1519.779709674864
 31
0.0
  0
LINE
  5
1037B
330
10568
100
AcDbEntity
  8
scan path- half-turns
100
AcDbLine
 10
623.9843749999982
 20
-1135.779709674864
 30
0.0
 11
623.9843749999982
 21
-1519.779709674864
 31
0.0
  0
LINE
  5
104BE
330
10568
100
AcDbEntity
  8
scan path- half-turns
100
AcDbLine
 10
-528.015625
 20
-1135.779709674862
 30
0.0
 11
-528.015625
 21
-1519.779709674863
 31
0.0
  0
LINE
  5
10490
330
10568
100
AcDbEntity
  8
scan path- half-turns
100
AcDbLine
 10
-144.0156250000036
 20
-1519.779709674863
 30
0.0
 11
-144.0156250000036
 21
-1903.779709674863
 31
0.0
  0
LINE
  5
10478
330
10568
100
AcDbEntity
  8
scan path- half-turns
100
AcDbLine
 10
239.9843749999977
 20
-1519.779709674864
 30
0.0
 11
239.9843749999977
 21
-1903.779709674864
 31
0.0
  0
LINE
  5
1037A
330
10568
100
AcDbEntity
  8
scan path- half-turns
100
AcDbLine
 10
623.9843749999982
 20
-1519.779709674864
 30
0.0
 11
623.9843749999982
 21
-1903.779709674864
 31
0.0
  0
LINE
  5
104C0
330
10568
100
AcDbEntity
  8
scan path- half-turns
100
AcDbLine
 10
-528.015625
 20
-1519.779709674863
 30
0.0
 11
-528.015625
 21
-1903.779709674862
 31
0.0
  0
LINE
  5
10491
330
10568
100
AcDbEntity
  8
scan path- half-turns
100
AcDbLine
 10
-144.0156250000036
 20
400.2202903251371
 30
0.0
 11
-144.0156250000036
 21
16.22029032513706
 31
0.0
  0
LINE
  5
10479
330
10568
100
AcDbEntity
  8
scan path- half-turns
100
AcDbLine
 10
239.9843749999977
 20
400.2202903251361
 30
0.0
 11
239.9843749999977
 21
16.22029032513615
 31
0.0
  0
LINE
  5
10379
330
10568
100
AcDbEntity
  8
scan path- half-turns
100
AcDbLine
 10
623.9843749999982
 20
400.2202903251361
 30
0.0
 11
623.9843749999982
 21
16.22029032513615
 31
0.0
  0
LINE
  5
104C2
330
10568
100
AcDbEntity
  8
scan path- half-turns
100
AcDbLine
 10
-528.015625
 20
400.2202903251368
 30
0.0
 11
-528.0156250000018
 21
16.22029032513774
 31
0.0
  0
LINE
  5
10492
330
10568
100
AcDbEntity
  8
scan path- half-turns
100
AcDbLine
 10
-144.0156250000036
 20
1552.220290325137
 30
0.0
 11
-144.0156250000036
 21
1168.220290325137
 31
0.0
  0
LINE
  5
1047A
330
10568
100
AcDbEntity
  8
scan path- half-turns
100
AcDbLine
 10
239.9843749999977
 20
1552.220290325136
 30
0.0
 11
239.9843749999977
 21
1168.220290325136
 31
0.0
  0
LINE
  5
10378
330
10568
100
AcDbEntity
  8
scan path- half-turns
100
AcDbLine
 10
623.9843749999982
 20
1552.220290325136
 30
0.0
 11
623.9843749999982
 21
1168.220290325136
 31
0.0
  0
LINE
  5
104C4
330
10568
100
AcDbEntity
  8
scan path- half-turns
100
AcDbLine
 10
-528.0156250000009
 20
1552.220290325137
 30
0.0
 11
-528.0156250000018
 21
1168.220290325136
 31
0.0
  0
LINE
  5
10377
330
10568
100
AcDbEntity
  8
scan path- half-turns
100
AcDbLine
 10
1007.984374999998
 20
-1920.0
 30
0.0
 11
1007.984374999998
 21
-2304.0
 31
0.0
  0
LINE
  5
104C5
330
10568
100
AcDbEntity
  8
scan path- half-turns
100
AcDbLine
 10
-912.015625
 20
-1919.999999999999
 30
0.0
 11
-912.015625
 21
-2303.999999999998
 31
0.0
  0
LINE
  5
10376
330
10568
100
AcDbEntity
  8
scan path- half-turns
100
AcDbLine
 10
1007.984374999998
 20
-768.0000000000005
 30
0.0
 11
1007.984374999998
 21
-1152.0
 31
0.0
  0
LINE
  5
104C6
330
10568
100
AcDbEntity
  8
scan path- half-turns
100
AcDbLine
 10
-912.015625
 20
-767.9999999999995
 30
0.0
 11
-912.015625
 21
-1151.999999999999
 31
0.0
  0
LINE
  5
10375
330
10568
100
AcDbEntity
  8
scan path- half-turns
100
AcDbLine
 10
1007.984374999998
 20
-1152.0
 30
0.0
 11
1007.984374999998
 21
-1536.0
 31
0.0
  0
LINE
  5
104C7
330
10568
100
AcDbEntity
  8
scan path- half-turns
100
AcDbLine
 10
-912.015625
 20
-1151.999999999999
 30
0.0
 11
-912.015625
 21
-1536.0
 31
0.0
  0
LINE
  5
10374
330
10568
100
AcDbEntity
  8
scan path- half-turns
100
AcDbLine
 10
1007.984374999998
 20
-1536.0
 30
0.0
 11
1007.984374999998
 21
-1920.0
 31
0.0
  0
LINE
  5
104C8
330
10568
100
AcDbEntity
  8
scan path- half-turns
100
AcDbLine
 10
-912.015625
 20
-1536.0
 30
0.0
 11
-912.015625
 21
-1919.999999999999
 31
0.0
  0
LINE
  5
10373
330
10568
100
AcDbEntity
  8
scan path- half-turns
100
AcDbLine
 10
1007.984374999998
 20
383.9999999999995
 30
0.0
 11
1007.984374999998
 21
-0.0000000000004547
 31
0.0
  0
LINE
  5
104C9
330
10568
100
AcDbEntity
  8
scan path- half-turns
100
AcDbLine
 10
-912.015625
 20
384.0000000000005
 30
0.0
 11
-912.015625
 21
0.0000000000004547
 31
0.0
  0
LINE
  5
10372
330
10568
100
AcDbEntity
  8
scan path- half-turns
100
AcDbLine
 10
1007.984374999998
 20
1536.0
 30
0.0
 11
1007.984374999998
 21
1152.0
 31
0.0
  0
LINE
  5
104CA
330
10568
100
AcDbEntity
  8
scan path- half-turns
100
AcDbLine
 10
-912.0156250000009
 20
1536.0
 30
0.0
 11
-912.0156249999982
 21
1152.0
 31
0.0
  0
LINE
  5
10371
330
10568
100
AcDbEntity
  8
scan path- half-turns
100
AcDbLine
 10
1007.984374999998
 20
1920.0
 30
0.0
 11
1007.984374999998
 21
1536.0
 31
0.0
  0
LINE
  5
104CB
330
10568
100
AcDbEntity
  8
scan path- half-turns
100
AcDbLine
 10
-912.0156250000036
 20
1920.0
 30
0.0
 11
-912.0156250000009
 21
1536.0
 31
0.0
  0
LINE
  5
10370
330
10568
100
AcDbEntity
  8
scan path- half-turns
100
AcDbLine
 10
1007.984374999998
 20
1152.0
 30
0.0
 11
1007.984374999998
 21
767.9999999999995
 31
0.0
  0
LINE
  5
104CC
330
10568
100
AcDbEntity
  8
scan path- half-turns
100
AcDbLine
 10
-912.0156249999982
 20
1152.0
 30
0.0
 11
-912.0156250000009
 21
768.0000000000005
 31
0.0
  0
LINE
  5
1036F
330
10568
100
AcDbEntity
  8
scan path- half-turns
100
AcDbLine
 10
1007.984374999998
 20
-0.0000000000004547
 30
0.0
 11
1007.984374999998
 21
-384.0000000000005
 31
0.0
  0
LINE
  5
104CD
330
10568
100
AcDbEntity
  8
scan path- half-turns
100
AcDbLine
 10
-912.015625
 20
0.0000000000004547
 30
0.0
 11
-912.0156250000009
 21
-383.9999999999993
 31
0.0
  0
LINE
  5
1036E
330
10568
100
AcDbEntity
  8
scan path- half-turns
100
AcDbLine
 10
1007.984374999998
 20
-384.0000000000005
 30
0.0
 11
1007.984374999998
 21
-768.0000000000005
 31
0.0
  0
LINE
  5
104CE
330
10568
100
AcDbEntity
  8
scan path- half-turns
100
AcDbLine
 10
-912.0156250000009
 20
-383.9999999999993
 30
0.0
 11
-912.015625
 21
-767.9999999999995
 31
0.0
  0
LINE
  5
1036D
330
10568
100
AcDbEntity
  8
scan path- half-turns
100
AcDbLine
 10
1007.984374999998
 20
767.9999999999995
 30
0.0
 11
1007.984374999998
 21
383.9999999999995
 31
0.0
  0
LINE
  5
104CF
330
10568
100
AcDbEntity
  8
scan path- half-turns
100
AcDbLine
 10
-912.0156250000009
 20
768.0000000000005
 30
0.0
 11
-912.015625
 21
384.0000000000005
 31
0.0
  0
LINE
  5
1036A
330
10568
100
AcDbEntity
  8
scan path- half-turns
100
AcDbLine
 10
1391.984374999998
 20
1920.0
 30
0.0
 11
1391.984374999998
 21
1536.0
 31
0.0
  0
LINE
  5
104D0
330
10568
100
AcDbEntity
  8
scan path- half-turns
100
AcDbLine
 10
-1296.015625000003
 20
1920.0
 30
0.0
 11
-1296.015625
 21
1536.0
 31
0.0
  0
LINE
  5
10369
330
10568
100
AcDbEntity
  8
scan path- half-turns
100
AcDbLine
 10
1391.984374999998
 20
1152.0
 30
0.0
 11
1391.984374999998
 21
768.0
 31
0.0
  0
LINE
  5
104D1
330
10568
100
AcDbEntity
  8
scan path- half-turns
100
AcDbLine
 10
-1296.015625000003
 20
1152.0
 30
0.0
 11
-1296.015625
 21
768.0000000000005
 31
0.0
  0
LINE
  5
10368
330
10568
100
AcDbEntity
  8
scan path- half-turns
100
AcDbLine
 10
1391.984374999998
 20
768.0
 30
0.0
 11
1391.984374999998
 21
384.0
 31
0.0
  0
LINE
  5
104D2
330
10568
100
AcDbEntity
  8
scan path- half-turns
100
AcDbLine
 10
-1296.015625
 20
768.0000000000005
 30
0.0
 11
-1296.015625
 21
384.0
 31
0.0
  0
LINE
  5
10367
330
10568
100
AcDbEntity
  8
scan path- half-turns
100
AcDbLine
 10
1391.984374999998
 20
1536.0
 30
0.0
 11
1391.984374999998
 21
1152.0
 31
0.0
  0
LINE
  5
104D3
330
10568
100
AcDbEntity
  8
scan path- half-turns
100
AcDbLine
 10
-1296.015625
 20
1536.0
 30
0.0
 11
-1296.015625000003
 21
1152.0
 31
0.0
  0
LINE
  5
10366
330
10568
100
AcDbEntity
  8
scan path- half-turns
100
AcDbLine
 10
1391.984374999998
 20
-384.0
 30
0.0
 11
1391.984374999998
 21
-768.0
 31
0.0
  0
LINE
  5
104D4
330
10568
100
AcDbEntity
  8
scan path- half-turns
100
AcDbLine
 10
-1296.015625
 20
-383.9999999999991
 30
0.0
 11
-1296.015625
 21
-767.9999999999991
 31
0.0
  0
LINE
  5
10365
330
10568
100
AcDbEntity
  8
scan path- half-turns
100
AcDbLine
 10
1391.984374999998
 20
384.0
 30
0.0
 11
1391.984374999998
 21
0.0
 31
0.0
  0
LINE
  5
104D5
330
10568
100
AcDbEntity
  8
scan path- half-turns
100
AcDbLine
 10
-1296.015625
 20
384.0
 30
0.0
 11
-1296.015625
 21
0.0000000000009095
 31
0.0
  0
LINE
  5
10364
330
10568
100
AcDbEntity
  8
scan path- half-turns
100
AcDbLine
 10
1391.984374999998
 20
0.0
 30
0.0
 11
1391.984374999998
 21
-384.0
 31
0.0
  0
LINE
  5
104D6
330
10568
100
AcDbEntity
  8
scan path- half-turns
100
AcDbLine
 10
-1296.015625
 20
0.0000000000009095
 30
0.0
 11
-1296.015625
 21
-383.9999999999991
 31
0.0
  0
LINE
  5
1035E
330
10568
100
AcDbEntity
  8
scan path- half-turns
100
AcDbLine
 10
1391.984374999998
 20
-1536.0
 30
0.0
 11
1391.984374999998
 21
-1920.0
 31
0.0
  0
LINE
  5
104D7
330
10568
100
AcDbEntity
  8
scan path- half-turns
100
AcDbLine
 10
-1296.015625
 20
-1536.0
 30
0.0
 11
-1296.015625
 21
-1920.0
 31
0.0
  0
LINE
  5
10493
330
10568
100
AcDbEntity
  8
scan path- half-turns
100
AcDbLine
 10
-144.0156250000036
 20
2320.220290325137
 30
0.0
 11
-144.0156250000036
 21
1936.220290325137
 31
0.0
  0
LINE
  5
1047B
330
10568
100
AcDbEntity
  8
scan path- half-turns
100
AcDbLine
 10
239.9843749999977
 20
2320.220290325136
 30
0.0
 11
239.9843749999977
 21
1936.220290325136
 31
0.0
  0
LINE
  5
10383
330
10568
100
AcDbEntity
  8
scan path- half-turns
100
AcDbLine
 10
623.9843749999982
 20
2320.220290325136
 30
0.0
 11
623.9843749999982
 21
1936.220290325136
 31
0.0
  0
LINE
  5
104D9
330
10568
100
AcDbEntity
  8
scan path- half-turns
100
AcDbLine
 10
-528.0156250000018
 20
2320.220290325137
 30
0.0
 11
-528.0156250000027
 21
1936.220290325137
 31
0.0
  0
LINE
  5
1047C
330
10568
100
AcDbEntity
  8
scan path- half-turns
100
AcDbLine
 10
239.9843749999977
 20
1936.220290325136
 30
0.0
 11
239.9843749999977
 21
1552.220290325136
 31
0.0
  0
LINE
  5
10494
330
10568
100
AcDbEntity
  8
scan path- half-turns
100
AcDbLine
 10
-144.0156250000036
 20
1936.220290325137
 30
0.0
 11
-144.0156250000036
 21
1552.220290325137
 31
0.0
  0
LINE
  5
10382
330
10568
100
AcDbEntity
  8
scan path- half-turns
100
AcDbLine
 10
623.9843749999982
 20
1936.220290325136
 30
0.0
 11
623.9843749999982
 21
1552.220290325136
 31
0.0
  0
LINE
  5
104DB
330
10568
100
AcDbEntity
  8
scan path- half-turns
100
AcDbLine
 10
-528.0156250000027
 20
1936.220290325137
 30
0.0
 11
-528.0156250000009
 21
1552.220290325137
 31
0.0
  0
LINE
  5
1047D
330
10568
100
AcDbEntity
  8
scan path- half-turns
100
AcDbLine
 10
239.9843749999977
 20
1168.220290325136
 30
0.0
 11
239.9843749999977
 21
784.2202903251361
 31
0.0
  0
LINE
  5
10495
330
10568
100
AcDbEntity
  8
scan path- half-turns
100
AcDbLine
 10
-144.0156250000036
 20
1168.220290325137
 30
0.0
 11
-144.0156250000036
 21
784.2202903251371
 31
0.0
  0
LINE
  5
10381
330
10568
100
AcDbEntity
  8
scan path- half-turns
100
AcDbLine
 10
623.9843749999982
 20
1168.220290325136
 30
0.0
 11
623.9843749999982
 21
784.2202903251361
 31
0.0
  0
LINE
  5
104DD
330
10568
100
AcDbEntity
  8
scan path- half-turns
100
AcDbLine
 10
-528.0156250000018
 20
1168.220290325136
 30
0.0
 11
-528.0156250000009
 21
784.2202903251364
 31
0.0
  0
LINE
  5
1047E
330
10568
100
AcDbEntity
  8
scan path- half-turns
100
AcDbLine
 10
239.9843749999977
 20
16.22029032513615
 30
0.0
 11
239.9843749999977
 21
-367.7797096748639
 31
0.0
  0
LINE
  5
10496
330
10568
100
AcDbEntity
  8
scan path- half-turns
100
AcDbLine
 10
-144.0156250000036
 20
16.22029032513706
 30
0.0
 11
-144.0156250000036
 21
-367.7797096748629
 31
0.0
  0
LINE
  5
10380
330
10568
100
AcDbEntity
  8
scan path- half-turns
100
AcDbLine
 10
623.9843749999982
 20
16.22029032513615
 30
0.0
 11
623.9843749999982
 21
-367.7797096748639
 31
0.0
  0
LINE
  5
104DF
330
10568
100
AcDbEntity
  8
scan path- half-turns
100
AcDbLine
 10
-528.0156250000018
 20
16.22029032513774
 30
0.0
 11
-528.015625
 21
-367.7797096748634
 31
0.0
  0
LINE
  5
1047F
330
10568
100
AcDbEntity
  8
scan path- half-turns
100
AcDbLine
 10
239.9843749999977
 20
-367.7797096748639
 30
0.0
 11
239.9843749999977
 21
-751.7797096748639
 31
0.0
  0
LINE
  5
10497
330
10568
100
AcDbEntity
  8
scan path- half-turns
100
AcDbLine
 10
-144.0156250000036
 20
-367.7797096748629
 30
0.0
 11
-144.0156250000036
 21
-751.7797096748629
 31
0.0
  0
LINE
  5
1037F
330
10568
100
AcDbEntity
  8
scan path- half-turns
100
AcDbLine
 10
623.9843749999982
 20
-367.7797096748639
 30
0.0
 11
623.9843749999982
 21
-751.7797096748639
 31
0.0
  0
LINE
  5
104E1
330
10568
100
AcDbEntity
  8
scan path- half-turns
100
AcDbLine
 10
-528.015625
 20
-367.7797096748634
 30
0.0
 11
-528.015625
 21
-751.7797096748632
 31
0.0
  0
LINE
  5
10480
330
10568
100
AcDbEntity
  8
scan path- half-turns
100
AcDbLine
 10
239.9843749999977
 20
784.2202903251361
 30
0.0
 11
239.9843749999977
 21
400.2202903251361
 31
0.0
  0
LINE
  5
10498
330
10568
100
AcDbEntity
  8
scan path- half-turns
100
AcDbLine
 10
-144.0156250000036
 20
784.2202903251371
 30
0.0
 11
-144.0156250000036
 21
400.2202903251371
 31
0.0
  0
LINE
  5
1037E
330
10568
100
AcDbEntity
  8
scan path- half-turns
100
AcDbLine
 10
623.9843749999982
 20
784.2202903251361
 30
0.0
 11
623.9843749999982
 21
400.2202903251361
 31
0.0
  0
LINE
  5
104E3
330
10568
100
AcDbEntity
  8
scan path- half-turns
100
AcDbLine
 10
-528.0156250000009
 20
784.2202903251364
 30
0.0
 11
-528.015625
 21
400.2202903251368
 31
0.0
  0
VIEWPORT
  5
10635
330
10631
100
AcDbEntity
 67
     1
  8
0
 62
   178
420
        0
100
AcDbViewport
 10
5.25
 20
4.0
 30
0.0
 40
11.638
 41
8.993
 68
     1
 69
     1
 12
5.25
 22
4.0
 13
0.0
 23
0.0
 14
0.5
 24
0.5
 15
0.5
 25
0.5
 16
0.0
 26
0.0
 36
1.0
 17
0.0
 27
0.0
 37
0.0
 42
50.0
 43
0.0
 44
0.0
 45
8.993
 50
0.0
 51
0.0
 72
   100
 90
   557152
  1

281
     0
 71
     1
 74
     0
110
0.0
120
0.0
130
0.0
111
1.0
121
0.0
131
0.0
112
0.0
122
1.0
132
0.0
 79
     0
146
0.0
170
     0
 61
     5
292
     1
282
     1
141
0.0
142
0.0
 63
   256
361
10636
  0
ENDSEC
  0
SECTION
  2
OBJECTS
  0
DICTIONARY
  5
10556
330
0
100
AcDbDictionary
281
     1
  3
ACAD_DETAILVIEWSTYLE
350
10644
  3
ACAD_GROUP
350
10557
  3
ACAD_LAYOUT
350
10563
  3
ACAD_MATERIAL
350
1058C
  3
ACAD_MLEADERSTYLE
350
105B4
  3
ACAD_MLINESTYLE
350
10560
  3
ACAD_PLOTSETTINGS
350
10562
  3
ACAD_PLOTSTYLENAME
350
10558
  3
ACAD_SCALELIST
350
10590
  3
ACAD_SECTIONVIEWSTYLE
350
10645
  3
ACAD_TABLESTYLE
350
105B2
  3
ACAD_VISUALSTYLE
350
10573
  3
AcDbVariableDictionary
350
1063D
  3
ACDB_RECOMPOSE_DATA
350
10641
  3
QCAD_OBJECTS
350
105B8
  0
SUN
  5
105B6
330
10572
100
AcDbSun
 90
        1
290
     0
 63
     7
421
 16777215
 40
1.0
291
     1
 91
  2455826
 92
 54000000
292
     0
 70
     2
 71
   256
280
     1
  0
SUN
  5
10636
330
10635
100
AcDbSun
 90
        1
290
     0
 63
     7
421
 16777215
 40
1.0
291
     1
 91
  2455826
 92
 54000000
292
     0
 70
     2
 71
   256
280
     1
  0
DICTIONARY
  5
10644
102
{ACAD_REACTORS
330
10556
102
}
330
10556
100
AcDbDictionary
281
     1
  0
DICTIONARY
  5
10557
102
{ACAD_REACTORS
330
10556
102
}
330
10556
100
AcDbDictionary
281
     1
  0
DICTIONARY
  5
10563
102
{ACAD_REACTORS
330
10556
102
}
330
10556
100
AcDbDictionary
281
     1
  3
Layout1
350
10567
  3
Layout2
350
10632
  3
Model
350
1056B
  0
DICTIONARY
  5
1058C
102
{ACAD_REACTORS
330
10556
102
}
330
10556
100
AcDbDictionary
281
     1
  3
ByBlock
350
1058E
  3
ByLayer
350
1058D
  3
Global
350
1058F
  0
DICTIONARY
  5
105B4
102
{ACAD_REACTORS
330
10556
102
}
330
10556
100
AcDbDictionary
281
     1
  3
Standard
350
105B5
  0
DICTIONARY
  5
10560
102
{ACAD_REACTORS
330
10556
102
}
330
10556
100
AcDbDictionary
281
     1
  3
Standard
350
10561
  0
DICTIONARY
  5
10562
102
{ACAD_REACTORS
330
10556
102
}
330
10556
100
AcDbDictionary
281
     1
  0
ACDBDICTIONARYWDFLT
  5
10558
102
{ACAD_REACTORS
330
10556
102
}
330
10556
100
AcDbDictionary
281
     1
  3
Normal
350
10559
100
AcDbDictionaryWithDefault
340
10559
  0
DICTIONARY
  5
10590
102
{ACAD_REACTORS
330
10556
102
}
330
10556
100
AcDbDictionary
281
     1
  3
A0
350
10591
  3
A1
350
10592
  3
A2
350
10593
  3
A3
350
10594
  3
A4
350
10595
  3
A5
350
10596
  3
A6
350
10597
  3
A7
350
10598
  3
A8
350
10599
  3
A9
350
1059A
  3
B0
350
1059B
  3
B1
350
1059C
  3
B2
350
1059D
  3
B3
350
1059E
  3
B4
350
1059F
  3
B5
350
105A0
  3
B6
350
105A1
  3
B7
350
105A2
  3
B8
350
105A3
  3
B9
350
105A4
  3
C0
350
105A5
  3
C1
350
105A6
  3
C2
350
105A7
  3
C3
350
105A8
  3
C4
350
105A9
  3
C5
350
105AA
  3
C6
350
105AB
  3
C7
350
105AC
  3
C8
350
105AD
  3
C9
350
105AE
  3
D0
350
105AF
  3
D1
350
105B0
  3
D2
350
105B1
  0
DICTIONARY
  5
10645
102
{ACAD_REACTORS
330
10556
102
}
330
10556
100
AcDbDictionary
281
     1
  0
DICTIONARY
  5
105B2
102
{ACAD_REACTORS
330
10556
102
}
330
10556
100
AcDbDictionary
281
     1
  3
Standard
350
105B3
  0
DICTIONARY
  5
10573
102
{ACAD_REACTORS
330
10556
102
}
330
10556
100
AcDbDictionary
281
     1
  3
2dWireframe
350
10578
  3
Basic
350
1057B
  3
Brighten
350
1057F
  3
ColorChange
350
10583
  3
Conceptual
350
1057D
  3
Dim
350
1057E
  3
EdgeColorOff
350
10586
  3
Facepattern
350
10582
  3
Flat
350
10574
  3
FlatWithEdges
350
10575
  3
Gouraud
350
10576
  3
GouraudWithEdges
350
10577
  3
Hidden
350
1057A
  3
JitterOff
350
10584
  3
Linepattern
350
10581
  3
OverhangOff
350
10585
  3
Realistic
350
1057C
  3
Shaded
350
1058B
  3
Shaded with edges
350
1058A
  3
Shades of Gray
350
10587
  3
Sketchy
350
10588
  3
Thicken
350
10580
  3
Wireframe
350
10579
  3
X-Ray
350
10589
  0
DICTIONARY
  5
1063D
102
{ACAD_REACTORS
330
10556
102
}
330
10556
100
AcDbDictionary
281
     1
  3
CANNOSCALE
350
1063E
  3
CMLEADERSTYLE
350
10643
  3
CTABLESTYLE
350
10642
  0
XRECORD
  5
10641
102
{ACAD_REACTORS
330
10556
102
}
330
10556
100
AcDbXrecord
280
     1
 90
        1
330
105B3
  0
DICTIONARY
  5
105B8
102
{ACAD_REACTORS
330
10556
102
}
330
10556
100
AcDbDictionary
281
     1
  3
ColorSettings/BackgroundColor
350
105BA
  3
ColorSettings/ColorMode
350
105BB
  3
Grid/DisplayGrid00
350
105BC
  3
Grid/DisplayGrid01
350
105BD
  3
Grid/DisplayGrid02
350
105BE
  3
Grid/DisplayGrid03
350
105BF
  3
Grid/GridSpacingX00
350
105C0
  3
Grid/GridSpacingX01
350
105C1
  3
Grid/GridSpacingX02
350
105C2
  3
Grid/GridSpacingX03
350
105C3
  3
Grid/GridSpacingY00
350
105C4
  3
Grid/GridSpacingY01
350
105C5
  3
Grid/GridSpacingY02
350
105C6
  3
Grid/GridSpacingY03
350
105C7
  3
Grid/IsometricGrid00
350
105C8
  3
Grid/IsometricGrid01
350
105C9
  3
Grid/IsometricGrid02
350
105CA
  3
Grid/IsometricGrid03
350
105CB
  3
Grid/IsometricProjection00
350
105CC
  3
Grid/IsometricProjection01
350
105CD
  3
Grid/IsometricProjection02
350
105CE
  3
Grid/IsometricProjection03
350
105CF
  3
Grid/MetaGridSpacingX00
350
105D0
  3
Grid/MetaGridSpacingX01
350
105D1
  3
Grid/MetaGridSpacingX02
350
105D2
  3
Grid/MetaGridSpacingX03
350
105D3
  3
Grid/MetaGridSpacingY00
350
105D4
  3
Grid/MetaGridSpacingY01
350
105D5
  3
Grid/MetaGridSpacingY02
350
105D6
  3
Grid/MetaGridSpacingY03
350
105D7
  3
MultiPageSettings/Columns
350
105D8
  3
MultiPageSettings/GlueMarginsBottom
350
105D9
  3
MultiPageSettings/GlueMarginsLeft
350
105DA
  3
MultiPageSettings/GlueMarginsRight
350
105DB
  3
MultiPageSettings/GlueMarginsTop
350
105DC
  3
MultiPageSettings/PrintCropMarks
350
105DD
  3
MultiPageSettings/Rows
350
105DE
  3
PageSettings/OffsetX
350
105DF
  3
PageSettings/OffsetY
350
105E0
  3
PageSettings/PageOrientation
350
105E1
  3
PageSettings/PaperHeight
350
105E2
  3
PageSettings/PaperWidth
350
105E3
  3
PageSettings/Scale
350
105E4
  3
PageSettings/ShowPaperBorders
350
105E5
  3
PointDisplaySettings/Button0
350
105E6
  3
PointDisplaySettings/Mode
350
105E7
  3
PointDisplaySettings/Size
350
105E8
  3
QCADVersion
350
105E9
  3
UnitSettings/PaperUnit
350
105EA
  3
ViewportCenter
350
105EB
  3
ViewportHeight
350
105EC
  3
ViewportWidth
350
105ED
  0
LAYOUT
  5
10567
102
{ACAD_REACTORS
330
10563
102
}
330
10563
100
AcDbPlotSettings
  1

  2
none_device
  4

  6

 40
0.0
 41
0.0
 42
0.0
 43
0.0
 44
0.0
 45
0.0
 46
0.0
 47
0.0
 48
0.0
 49
0.0
140
0.0
141
0.0
142
1.0
143
1.0
 70
   688
 72
     0
 73
     0
 74
     5
  7

 75
    16
 76
     0
 77
     2
 78
   300
147
1.0
148
0.0
149
0.0
100
AcDbLayout
  1
Layout1
 70
     1
 71
     1
 10
0.0
 20
0.0
 11
12.0
 21
9.0
 12
0.0
 22
0.0
 32
0.0
 14
1.000000000000000E+20
 24
1.000000000000000E+20
 34
1.000000000000000E+20
 15
-1.000000000000000E+20
 25
-1.000000000000000E+20
 35
-1.000000000000000E+20
146
0.0
 13
0.0
 23
0.0
 33
0.0
 16
1.0
 26
0.0
 36
0.0
 17
0.0
 27
1.0
 37
0.0
 76
     0
330
10564
  0
LAYOUT
  5
10632
102
{ACAD_REACTORS
330
10563
102
}
330
10563
100
AcDbPlotSettings
  1

  2
none_device
  4
Letter_(8.50_x_11.00_Inches)
  6

 40
6.35
 41
6.35
 42
6.35001
 43
6.35001
 44
215.9
 45
279.4
 46
0.0
 47
0.0
 48
0.0
 49
0.0
140
0.0
141
0.0
142
1.0
143
1.0
 70
   688
 72
     0
 73
     1
 74
     5
  7

 75
    16
 76
     0
 77
     2
 78
   300
147
1.0
148
0.0
149
0.0
100
AcDbLayout
  1
Layout2
 70
     1
 71
     2
 10
0.0
 20
0.0
 11
12.0
 21
9.0
 12
0.0
 22
0.0
 32
0.0
 14
1.000000000000000E+20
 24
1.000000000000000E+20
 34
1.000000000000000E+20
 15
-1.000000000000000E+20
 25
-1.000000000000000E+20
 35
-1.000000000000000E+20
146
0.0
 13
0.0
 23
0.0
 33
0.0
 16
1.0
 26
0.0
 36
0.0
 17
0.0
 27
1.0
 37
0.0
 76
     0
330
10631
331
10635
  0
LAYOUT
  5
1056B
102
{ACAD_REACTORS
330
10563
102
}
330
10563
100
AcDbPlotSettings
  1

  2
none_device
  4
Letter_(8.50_x_11.00_Inches)
  6

 40
6.35
 41
6.35
 42
6.35000508
 43
6.35000508
 44
215.9
 45
279.4
 46
0.0
 47
0.0
 48
0.0
 49
0.0
140
0.0
141
0.0
142
1.0
143
1.0
 70
  1712
 72
     0
 73
     0
 74
     0
  7

 75
     0
 76
     0
 77
     2
 78
   300
147
1.0
148
0.0
149
0.0
100
AcDbLayout
  1
Model
 70
     1
 71
     0
 10
0.0
 20
0.0
 11
12.0
 21
9.0
 12
0.0
 22
0.0
 32
0.0
 14
1.000000000000000E+20
 24
1.000000000000000E+20
 34
1.000000000000000E+20
 15
-1.000000000000000E+20
 25
-1.000000000000000E+20
 35
-1.000000000000000E+20
146
0.0
 13
0.0
 23
0.0
 33
0.0
 16
1.0
 26
0.0
 36
0.0
 17
0.0
 27
1.0
 37
0.0
 76
     0
330
10568
331
10572
  0
MATERIAL
  5
1058E
102
{ACAD_REACTORS
330
1058C
102
}
330
1058C
100
AcDbMaterial
  1
ByBlock
 72
     1
 94
      127
  0
MATERIAL
  5
1058D
102
{ACAD_REACTORS
330
1058C
102
}
330
1058C
100
AcDbMaterial
  1
ByLayer
 72
     1
 94
      127
  0
MATERIAL
  5
1058F
102
{ACAD_REACTORS
330
1058C
102
}
330
1058C
100
AcDbMaterial
  1
Global
 72
     1
 94
      127
  0
MLEADERSTYLE
  5
105B5
102
{ACAD_REACTORS
330
105B4
102
}
330
105B4
100
AcDbMLeaderStyle
179
     2
170
     2
171
     1
172
     0
 90
        2
 40
0.0
 41
0.0
173
     1
 91
-1056964608
340
1055D
 92
       -2
290
     1
 42
0.09
291
     1
 43
0.36
  3
Standard
341
0
 44
0.18
300

342
1055B
174
     1
178
     6
175
     1
176
     0
 93
-1056964608
 45
0.18
292
     0
297
     0
 46
0.18
343
0
 94
-1056964608
 47
1.0
 49
1.0
140
1.0
293
     1
141
0.0
294
     1
177
     0
142
1.0
295
     0
296
     0
143
0.125
271
     0
272
     9
273
     9
298
     0
  0
MLINESTYLE
  5
10561
102
{ACAD_REACTORS
330
10560
102
}
330
10560
100
AcDbMlineStyle
  2
Standard
 70
     0
  3

 62
   256
 51
90.0
 52
90.0
 71
     2
 49
0.5
 62
   256
  6
BYLAYER
 49
-0.5
 62
   256
  6
BYLAYER
  0
ACDBPLACEHOLDER
  5
10559
102
{ACAD_REACTORS
330
10558
102
}
330
10558
  0
SCALE
  5
10591
102
{ACAD_REACTORS
330
10590
102
}
330
10590
100
AcDbScale
 70
     0
300
1:1
140
1.0
141
1.0
290
     1
  0
SCALE
  5
10592
102
{ACAD_REACTORS
330
10590
102
}
330
10590
100
AcDbScale
 70
     0
300
1:2
140
1.0
141
2.0
290
     0
  0
SCALE
  5
10593
102
{ACAD_REACTORS
330
10590
102
}
330
10590
100
AcDbScale
 70
     0
300
1:4
140
1.0
141
4.0
290
     0
  0
SCALE
  5
10594
102
{ACAD_REACTORS
330
10590
102
}
330
10590
100
AcDbScale
 70
     0
300
1:5
140
1.0
141
5.0
290
     0
  0
SCALE
  5
10595
102
{ACAD_REACTORS
330
10590
102
}
330
10590
100
AcDbScale
 70
     0
300
1:8
140
1.0
141
8.0
290
     0
  0
SCALE
  5
10596
102
{ACAD_REACTORS
330
10590
102
}
330
10590
100
AcDbScale
 70
     0
300
1:10
140
1.0
141
10.0
290
     0
  0
SCALE
  5
10597
102
{ACAD_REACTORS
330
10590
102
}
330
10590
100
AcDbScale
 70
     0
300
1:16
140
1.0
141
16.0
290
     0
  0
SCALE
  5
10598
102
{ACAD_REACTORS
330
10590
102
}
330
10590
100
AcDbScale
 70
     0
300
1:20
140
1.0
141
20.0
290
     0
  0
SCALE
  5
10599
102
{ACAD_REACTORS
330
10590
102
}
330
10590
100
AcDbScale
 70
     0
300
1:30
140
1.0
141
30.0
290
     0
  0
SCALE
  5
1059A
102
{ACAD_REACTORS
330
10590
102
}
330
10590
100
AcDbScale
 70
     0
300
1:40
140
1.0
141
40.0
290
     0
  0
SCALE
  5
1059B
102
{ACAD_REACTORS
330
10590
102
}
330
10590
100
AcDbScale
 70
     0
300
1:50
140
1.0
141
50.0
290
     0
  0
SCALE
  5
1059C
102
{ACAD_REACTORS
330
10590
102
}
330
10590
100
AcDbScale
 70
     0
300
1:100
140
1.0
141
100.0
290
     0
  0
SCALE
  5
1059D
102
{ACAD_REACTORS
330
10590
102
}
330
10590
100
AcDbScale
 70
     0
300
2:1
140
2.0
141
1.0
290
     0
  0
SCALE
  5
1059E
102
{ACAD_REACTORS
330
10590
102
}
330
10590
100
AcDbScale
 70
     0
300
4:1
140
4.0
141
1.0
290
     0
  0
SCALE
  5
1059F
102
{ACAD_REACTORS
330
10590
102
}
330
10590
100
AcDbScale
 70
     0
300
8:1
140
8.0
141
1.0
290
     0
  0
SCALE
  5
105A0
102
{ACAD_REACTORS
330
10590
102
}
330
10590
100
AcDbScale
 70
     0
300
10:1
140
10.0
141
1.0
290
     0
  0
SCALE
  5
105A1
102
{ACAD_REACTORS
330
10590
102
}
330
10590
100
AcDbScale
 70
     0
300
100:1
140
100.0
141
1.0
290
     0
  0
SCALE
  5
105A2
102
{ACAD_REACTORS
330
10590
102
}
330
10590
100
AcDbScale
 70
     0
300
1/128" = 1'-0"
140
0.0078125
141
12.0
290
     0
  0
SCALE
  5
105A3
102
{ACAD_REACTORS
330
10590
102
}
330
10590
100
AcDbScale
 70
     0
300
1/64" = 1'-0"
140
0.015625
141
12.0
290
     0
  0
SCALE
  5
105A4
102
{ACAD_REACTORS
330
10590
102
}
330
10590
100
AcDbScale
 70
     0
300
1/32" = 1'-0"
140
0.03125
141
12.0
290
     0
  0
SCALE
  5
105A5
102
{ACAD_REACTORS
330
10590
102
}
330
10590
100
AcDbScale
 70
     0
300
1/16" = 1'-0"
140
0.0625
141
12.0
290
     0
  0
SCALE
  5
105A6
102
{ACAD_REACTORS
330
10590
102
}
330
10590
100
AcDbScale
 70
     0
300
3/32" = 1'-0"
140
0.09375
141
12.0
290
     0
  0
SCALE
  5
105A7
102
{ACAD_REACTORS
330
10590
102
}
330
10590
100
AcDbScale
 70
     0
300
1/8" = 1'-0"
140
0.125
141
12.0
290
     0
  0
SCALE
  5
105A8
102
{ACAD_REACTORS
330
10590
102
}
330
10590
100
AcDbScale
 70
     0
300
3/16" = 1'-0"
140
0.1875
141
12.0
290
     0
  0
SCALE
  5
105A9
102
{ACAD_REACTORS
330
10590
102
}
330
10590
100
AcDbScale
 70
     0
300
1/4" = 1'-0"
140
0.25
141
12.0
290
     0
  0
SCALE
  5
105AA
102
{ACAD_REACTORS
330
10590
102
}
330
10590
100
AcDbScale
 70
     0
300
3/8" = 1'-0"
140
0.375
141
12.0
290
     0
  0
SCALE
  5
105AB
102
{ACAD_REACTORS
330
10590
102
}
330
10590
100
AcDbScale
 70
     0
300
1/2" = 1'-0"
140
0.5
141
12.0
290
     0
  0
SCALE
  5
105AC
102
{ACAD_REACTORS
330
10590
102
}
330
10590
100
AcDbScale
 70
     0
300
3/4" = 1'-0"
140
0.75
141
12.0
290
     0
  0
SCALE
  5
105AD
102
{ACAD_REACTORS
330
10590
102
}
330
10590
100
AcDbScale
 70
     0
300
1" = 1'-0"
140
1.0
141
12.0
290
     0
  0
SCALE
  5
105AE
102
{ACAD_REACTORS
330
10590
102
}
330
10590
100
AcDbScale
 70
     0
300
1-1/2" = 1'-0"
140
1.5
141
12.0
290
     0
  0
SCALE
  5
105AF
102
{ACAD_REACTORS
330
10590
102
}
330
10590
100
AcDbScale
 70
     0
300
3" = 1'-0"
140
3.0
141
12.0
290
     0
  0
SCALE
  5
105B0
102
{ACAD_REACTORS
330
10590
102
}
330
10590
100
AcDbScale
 70
     0
300
6" = 1'-0"
140
6.0
141
12.0
290
     0
  0
SCALE
  5
105B1
102
{ACAD_REACTORS
330
10590
102
}
330
10590
100
AcDbScale
 70
     0
300
1'-0" = 1'-0"
140
12.0
141
12.0
290
     0
  0
TABLESTYLE
  5
105B3
102
{ACAD_REACTORS
330
105B2
102
}
102
{ACAD_XDICTIONARY
360
1063F
102
}
330
105B2
100
AcDbTableStyle
  3
Standard
 70
     0
 71
     0
 40
0.06
 41
0.06
280
     0
281
     0
  7
Standard
140
0.18
170
     2
 62
     0
 63
   257
283
     0
 90
        4
 91
        0
  1

274
    -2
284
     1
 64
     0
275
    -2
285
     1
 65
     0
276
    -2
286
     1
 66
     0
277
    -2
287
     1
 67
     0
278
    -2
288
     1
 68
     0
279
    -2
289
     1
 69
     0
  7
Standard
140
0.25
170
     5
 62
     0
 63
   257
283
     0
 90
        4
 91
        0
  1

274
    -2
284
     1
 64
     0
275
    -2
285
     1
 65
     0
276
    -2
286
     1
 66
     0
277
    -2
287
     1
 67
     0
278
    -2
288
     1
 68
     0
279
    -2
289
     1
 69
     0
  7
Standard
140
0.18
170
     5
 62
     0
 63
   257
283
     0
 90
        4
 91
        0
  1

274
    -2
284
     1
 64
     0
275
    -2
285
     1
 65
     0
276
    -2
286
     1
 66
     0
277
    -2
287
     1
 67
     0
278
    -2
288
     1
 68
     0
279
    -2
289
     1
 69
     0
  0
VISUALSTYLE
  5
10578
102
{ACAD_REACTORS
330
10573
102
}
330
10573
100
AcDbVisualStyle
  2
2dWireframe
 70
     4
177
     3
291
     0
 70
    58
 90
        0
176
     1
 90
        2
176
     1
 90
        0
176
     1
 90
        0
176
     1
 40
0.6
176
     1
 40
30.0
176
     1
 62
     7
420
 16777215
176
     1
 90
        1
176
     1
 90
        4
176
     1
 62
     7
176
     1
 62
   257
176
     1
 90
        1
176
     1
 90
        1
176
     1
 40
1.0
176
     1
 90
        0
176
     1
 62
   257
176
     1
 40
1.0
176
     1
 90
        1
176
     1
 90
        6
176
     1
 90
        2
176
     1
 62
     7
176
     1
 90
        5
176
     1
 90
        0
176
     1
 90
        0
176
     1
290
     0
176
     1
 90
        1
176
     1
 40
0.0
176
     1
 90
        0
176
     1
290
     1
176
     1
290
     1
176
     1
290
     0
176
     1
290
     0
176
     1
290
     0
176
     1
290
     0
176
     1
290
     0
176
     1
290
     0
176
     1
290
     0
176
     1
 90
       50
176
     1
 40
0.0
176
     1
 40
1.0
176
     1
 90
        0
176
     1
 62
   178
420
        0
176
     1
 90
       50
176
     1
 90
        3
176
     1
 62
     5
420
      255
176
     1
290
     0
176
     1
 90
       50
176
     1
 90
       50
176
     1
 90
       50
176
     1
290
     0
176
     1
 90
       50
176
     1
 62
   256
176
     0
 40
1.0
176
     0
 90
        2
176
     1
  1
strokes_ogs.tif
176
     1
290
     0
176
     1
 40
1.0
176
     1
 40
1.0
176
     1
  0
VISUALSTYLE
  5
1057B
102
{ACAD_REACTORS
330
10573
102
}
330
10573
100
AcDbVisualStyle
  2
Basic
 70
     7
177
     3
291
     1
 70
    58
 90
        1
176
     1
 90
        0
176
     1
 90
        1
176
     1
 90
        0
176
     1
 40
0.6
176
     1
 40
30.0
176
     1
 62
     7
420
 16777215
176
     1
 90
        0
176
     1
 90
        4
176
     1
 62
     7
176
     1
 62
   257
176
     1
 90
        1
176
     1
 90
        1
176
     1
 40
1.0
176
     1
 90
        8
176
     1
 62
     7
176
     1
 40
1.0
176
     1
 90
        1
176
     1
 90
        6
176
     1
 90
        2
176
     1
 62
     7
176
     1
 90
        5
176
     1
 90
        0
176
     1
 90
        0
176
     1
290
     0
176
     1
 90
        1
176
     1
 40
0.0
176
     1
 90
        0
176
     1
290
     0
176
     1
290
     1
176
     1
290
     1
176
     1
290
     0
176
     1
290
     0
176
     1
290
     0
176
     1
290
     0
176
     1
290
     0
176
     1
290
     0
176
     1
 90
       50
176
     1
 40
0.0
176
     1
 40
1.0
176
     1
 90
        0
176
     1
 62
   178
420
        0
176
     1
 90
       50
176
     1
 90
        3
176
     1
 62
     5
420
      255
176
     1
290
     0
176
     1
 90
       50
176
     1
 90
       50
176
     1
 90
       50
176
     1
290
     0
176
     1
 90
       50
176
     1
 62
   256
176
     0
 40
1.0
176
     0
 90
        2
176
     1
  1
strokes_ogs.tif
176
     1
290
     0
176
     1
 40
1.0
176
     1
 40
1.0
176
     1
  0
VISUALSTYLE
  5
1057F
102
{ACAD_REACTORS
330
10573
102
}
330
10573
100
AcDbVisualStyle
  2
Brighten
 70
    12
177
     3
291
     1
 70
    58
 90
        2
176
     1
 90
        2
176
     1
 90
        0
176
     1
 90
        0
176
     1
 40
0.6
176
     1
 40
30.0
176
     1
 62
     7
420
 16777215
176
     1
 90
        1
176
     1
 90
        4
176
     1
 62
     7
176
     1
 62
   257
176
     1
 90
        1
176
     1
 90
        1
176
     1
 40
1.0
176
     1
 90
        8
176
     1
 62
     7
176
     1
 40
1.0
176
     1
 90
        1
176
     1
 90
        6
176
     1
 90
        2
176
     1
 62
     7
176
     1
 90
        5
176
     1
 90
        0
176
     1
 90
        0
176
     1
290
     0
176
     1
 90
        1
176
     1
 40
50.0
176
     1
 90
        0
176
     1
290
     0
176
     1
290
     1
176
     1
290
     1
176
     1
290
     0
176
     1
290
     0
176
     1
290
     0
176
     1
290
     0
176
     1
290
     0
176
     1
290
     0
176
     1
 90
       50
176
     1
 40
0.0
176
     1
 40
1.0
176
     1
 90
        0
176
     1
 62
   178
420
        0
176
     1
 90
       50
176
     1
 90
        3
176
     1
 62
     5
420
      255
176
     1
290
     0
176
     1
 90
       50
176
     1
 90
       50
176
     1
 90
       50
176
     1
290
     0
176
     1
 90
       50
176
     1
 62
   256
176
     0
 40
1.0
176
     0
 90
        2
176
     1
  1
strokes_ogs.tif
176
     1
290
     0
176
     1
 40
1.0
176
     1
 40
1.0
176
     1
  0
VISUALSTYLE
  5
10583
102
{ACAD_REACTORS
330
10573
102
}
330
10573
100
AcDbVisualStyle
  2
ColorChange
 70
    16
177
     3
291
     1
 70
    58
 90
        2
176
     1
 90
        2
176
     1
 90
        3
176
     1
 90
        0
176
     1
 40
0.6
176
     1
 40
30.0
176
     1
 62
     8
420
  8421504
176
     1
 90
        1
176
     1
 90
        4
176
     1
 62
     7
176
     1
 62
   257
176
     1
 90
        1
176
     1
 90
        1
176
     1
 40
1.0
176
     1
 90
        8
176
     1
 62
     8
420
  8421504
176
     1
 40
1.0
176
     1
 90
        1
176
     1
 90
        6
176
     1
 90
        2
176
     1
 62
     7
176
     1
 90
        5
176
     1
 90
        0
176
     1
 90
        0
176
     1
290
     0
176
     1
 90
        1
176
     1
 40
0.0
176
     1
 90
        0
176
     1
290
     0
176
     1
290
     1
176
     1
290
     1
176
     1
290
     0
176
     1
290
     0
176
     1
290
     0
176
     1
290
     0
176
     1
290
     0
176
     1
290
     0
176
     1
 90
       50
176
     1
 40
0.0
176
     1
 40
1.0
176
     1
 90
        0
176
     1
 62
   178
420
        0
176
     1
 90
       50
176
     1
 90
        3
176
     1
 62
     5
420
      255
176
     1
290
     0
176
     1
 90
       50
176
     1
 90
       50
176
     1
 90
       50
176
     1
290
     0
176
     1
 90
       50
176
     1
 62
   256
176
     0
 40
1.0
176
     0
 90
        2
176
     1
  1
strokes_ogs.tif
176
     1
290
     0
176
     1
 40
1.0
176
     1
 40
1.0
176
     1
  0
VISUALSTYLE
  5
1057D
102
{ACAD_REACTORS
330
10573
102
}
330
10573
100
AcDbVisualStyle
  2
Conceptual
 70
     9
177
     3
291
     0
 70
    58
 90
        3
176
     1
 90
        2
176
     1
 90
        0
176
     1
 90
        0
176
     1
 40
0.6
176
     1
 40
30.0
176
     1
 62
     7
420
 16777215
176
     1
 90
        2
176
     1
 90
        2
176
     1
 62
     7
176
     1
 62
   257
176
     1
 90
        1
176
     1
 90
        1
176
     1
 40
179.0
176
     1
 90
        8
176
     1
 62
     7
176
     1
 40
1.0
176
     1
 90
        1
176
     1
 90
        6
176
     1
 90
        2
176
     1
 62
     7
176
     1
 90
        3
176
     1
 90
        0
176
     1
 90
        0
176
     1
290
     0
176
     1
 90
        1
176
     1
 40
0.0
176
     1
 90
        0
176
     1
290
     0
176
     1
290
     1
176
     1
290
     1
176
     1
290
     0
176
     1
290
     0
176
     1
290
     0
176
     1
290
     0
176
     1
290
     0
176
     1
290
     0
176
     1
 90
       50
176
     1
 40
0.0
176
     1
 40
1.0
176
     1
 90
        0
176
     1
 62
   178
420
        0
176
     1
 90
       50
176
     1
 90
        3
176
     1
 62
     5
420
      255
176
     1
290
     0
176
     1
 90
       50
176
     1
 90
       50
176
     1
 90
       50
176
     1
290
     0
176
     1
 90
       50
176
     1
 62
   256
176
     0
 40
1.0
176
     0
 90
        2
176
     1
  1
strokes_ogs.tif
176
     1
290
     0
176
     1
 40
1.0
176
     1
 40
1.0
176
     1
  0
VISUALSTYLE
  5
1057E
102
{ACAD_REACTORS
330
10573
102
}
330
10573
100
AcDbVisualStyle
  2
Dim
 70
    11
177
     3
291
     1
 70
    58
 90
        2
176
     1
 90
        2
176
     1
 90
        0
176
     1
 90
        0
176
     1
 40
0.6
176
     1
 40
30.0
176
     1
 62
     7
420
 16777215
176
     1
 90
        1
176
     1
 90
        4
176
     1
 62
     7
176
     1
 62
   257
176
     1
 90
        1
176
     1
 90
        1
176
     1
 40
1.0
176
     1
 90
        8
176
     1
 62
     7
176
     1
 40
1.0
176
     1
 90
        1
176
     1
 90
        6
176
     1
 90
        2
176
     1
 62
     7
176
     1
 90
        5
176
     1
 90
        0
176
     1
 90
        0
176
     1
290
     0
176
     1
 90
        1
176
     1
 40
-50.0
176
     1
 90
        0
176
     1
290
     0
176
     1
290
     1
176
     1
290
     1
176
     1
290
     0
176
     1
290
     0
176
     1
290
     0
176
     1
290
     0
176
     1
290
     0
176
     1
290
     0
176
     1
 90
       50
176
     1
 40
0.0
176
     1
 40
1.0
176
     1
 90
        0
176
     1
 62
   178
420
        0
176
     1
 90
       50
176
     1
 90
        3
176
     1
 62
     5
420
      255
176
     1
290
     0
176
     1
 90
       50
176
     1
 90
       50
176
     1
 90
       50
176
     1
290
     0
176
     1
 90
       50
176
     1
 62
   256
176
     0
 40
1.0
176
     0
 90
        2
176
     1
  1
strokes_ogs.tif
176
     1
290
     0
176
     1
 40
1.0
176
     1
 40
1.0
176
     1
  0
VISUALSTYLE
  5
10586
102
{ACAD_REACTORS
330
10573
102
}
330
10573
100
AcDbVisualStyle
  2
EdgeColorOff
 70
    22
177
     3
291
     1
 70
    58
 90
        2
176
     0
 90
        2
176
     0
 90
        0
176
     0
 90
        0
176
     0
 40
0.6
176
     0
 40
30.0
176
     0
 62
     7
420
 16777215
176
     0
 90
        1
176
     0
 90
        4
176
     0
 62
     7
176
     0
 62
   257
176
     0
 90
        1
176
     0
 90
        1
176
     0
 40
1.0
176
     0
 90
        8
176
     2
 62
     7
176
     0
 40
1.0
176
     0
 90
        1
176
     0
 90
        6
176
     0
 90
        2
176
     0
 62
     7
176
     0
 90
        5
176
     0
 90
        0
176
     0
 90
        0
176
     0
290
     0
176
     0
 90
        1
176
     0
 40
0.0
176
     0
 90
        0
176
     0
290
     0
176
     0
290
     1
176
     0
290
     1
176
     0
290
     0
176
     0
290
     0
176
     0
290
     0
176
     0
290
     0
176
     0
290
     0
176
     0
290
     0
176
     0
 90
       50
176
     0
 40
0.0
176
     0
 40
1.0
176
     0
 90
        0
176
     0
 62
   178
420
        0
176
     0
 90
       50
176
     0
 90
        3
176
     0
 62
     5
420
      255
176
     0
290
     0
176
     0
 90
       50
176
     0
 90
       50
176
     0
 90
       50
176
     0
290
     0
176
     0
 90
       50
176
     0
 62
   256
176
     0
 40
1.0
176
     0
 90
        2
176
     0
  1
strokes_ogs.tif
176
     0
290
     0
176
     0
 40
1.0
176
     0
 40
1.0
176
     0
  0
VISUALSTYLE
  5
10582
102
{ACAD_REACTORS
330
10573
102
}
330
10573
100
AcDbVisualStyle
  2
Facepattern
 70
    15
177
     3
291
     1
 70
    58
 90
        2
176
     1
 90
        2
176
     1
 90
        0
176
     1
 90
        0
176
     1
 40
0.6
176
     1
 40
30.0
176
     1
 62
     7
420
 16777215
176
     1
 90
        1
176
     1
 90
        4
176
     1
 62
     7
176
     1
 62
   257
176
     1
 90
        1
176
     1
 90
        1
176
     1
 40
1.0
176
     1
 90
        8
176
     1
 62
     7
176
     1
 40
1.0
176
     1
 90
        1
176
     1
 90
        6
176
     1
 90
        2
176
     1
 62
     7
176
     1
 90
        5
176
     1
 90
        0
176
     1
 90
        0
176
     1
290
     0
176
     1
 90
        1
176
     1
 40
0.0
176
     1
 90
        0
176
     1
290
     0
176
     1
290
     1
176
     1
290
     1
176
     1
290
     0
176
     1
290
     0
176
     1
290
     0
176
     1
290
     0
176
     1
290
     0
176
     1
290
     0
176
     1
 90
       50
176
     1
 40
0.0
176
     1
 40
1.0
176
     1
 90
        0
176
     1
 62
   178
420
        0
176
     1
 90
       50
176
     1
 90
        3
176
     1
 62
     5
420
      255
176
     1
290
     0
176
     1
 90
       50
176
     1
 90
       50
176
     1
 90
       50
176
     1
290
     0
176
     1
 90
       50
176
     1
 62
   256
176
     0
 40
1.0
176
     0
 90
        2
176
     1
  1
strokes_ogs.tif
176
     1
290
     0
176
     1
 40
1.0
176
     1
 40
1.0
176
     1
  0
VISUALSTYLE
  5
10574
102
{ACAD_REACTORS
330
10573
102
}
330
10573
100
AcDbVisualStyle
  2
Flat
 70
     0
177
     3
291
     1
 70
    58
 90
        2
176
     1
 90
        1
176
     1
 90
        1
176
     1
 90
        2
176
     1
 40
0.6
176
     1
 40
30.0
176
     1
 62
     7
420
 16777215
176
     1
 90
        0
176
     1
 90
        0
176
     1
 62
     7
176
     1
 62
   257
176
     1
 90
        1
176
     1
 90
        1
176
     1
 40
1.0
176
     1
 90
        8
176
     1
 62
     7
176
     1
 40
1.0
176
     1
 90
        1
176
     1
 90
        6
176
     1
 90
        2
176
     1
 62
     7
176
     1
 90
        5
176
     1
 90
        0
176
     1
 90
        0
176
     1
290
     0
176
     1
 90
       13
176
     1
 40
0.0
176
     1
 90
        0
176
     1
290
     0
176
     1
290
     1
176
     1
290
     1
176
     1
290
     0
176
     1
290
     0
176
     1
290
     0
176
     1
290
     0
176
     1
290
     0
176
     1
290
     0
176
     1
 90
       50
176
     1
 40
0.0
176
     1
 40
1.0
176
     1
 90
        0
176
     1
 62
   178
420
        0
176
     1
 90
       50
176
     1
 90
        3
176
     1
 62
     5
420
      255
176
     1
290
     0
176
     1
 90
       50
176
     1
 90
       50
176
     1
 90
       50
176
     1
290
     0
176
     1
 90
       50
176
     1
 62
   256
176
     0
 40
1.0
176
     0
 90
        2
176
     1
  1
strokes_ogs.tif
176
     1
290
     0
176
     1
 40
1.0
176
     1
 40
1.0
176
     1
  0
VISUALSTYLE
  5
10575
102
{ACAD_REACTORS
330
10573
102
}
330
10573
100
AcDbVisualStyle
  2
FlatWithEdges
 70
     1
177
     3
291
     1
 70
    58
 90
        2
176
     1
 90
        1
176
     1
 90
        1
176
     1
 90
        2
176
     1
 40
0.6
176
     1
 40
30.0
176
     1
 62
     7
420
 16777215
176
     1
 90
        1
176
     1
 90
        0
176
     1
 62
     7
176
     1
 62
   257
176
     1
 90
        1
176
     1
 90
        1
176
     1
 40
1.0
176
     1
 90
        0
176
     1
 62
   257
176
     1
 40
1.0
176
     1
 90
        1
176
     1
 90
        6
176
     1
 90
        2
176
     1
 62
     7
176
     1
 90
        5
176
     1
 90
        0
176
     1
 90
        0
176
     1
290
     0
176
     1
 90
       13
176
     1
 40
0.0
176
     1
 90
        0
176
     1
290
     0
176
     1
290
     1
176
     1
290
     1
176
     1
290
     0
176
     1
290
     0
176
     1
290
     0
176
     1
290
     0
176
     1
290
     0
176
     1
290
     0
176
     1
 90
       50
176
     1
 40
0.0
176
     1
 40
1.0
176
     1
 90
        0
176
     1
 62
   178
420
        0
176
     1
 90
       50
176
     1
 90
        3
176
     1
 62
     5
420
      255
176
     1
290
     0
176
     1
 90
       50
176
     1
 90
       50
176
     1
 90
       50
176
     1
290
     0
176
     1
 90
       50
176
     1
 62
   256
176
     0
 40
1.0
176
     0
 90
        2
176
     1
  1
strokes_ogs.tif
176
     1
290
     0
176
     1
 40
1.0
176
     1
 40
1.0
176
     1
  0
VISUALSTYLE
  5
10576
102
{ACAD_REACTORS
330
10573
102
}
330
10573
100
AcDbVisualStyle
  2
Gouraud
 70
     2
177
     3
291
     1
 70
    58
 90
        2
176
     1
 90
        2
176
     1
 90
        1
176
     1
 90
        2
176
     1
 40
0.6
176
     1
 40
30.0
176
     1
 62
     7
420
 16777215
176
     1
 90
        0
176
     1
 90
        0
176
     1
 62
     7
176
     1
 62
   257
176
     1
 90
        1
176
     1
 90
        1
176
     1
 40
1.0
176
     1
 90
        0
176
     1
 62
     7
176
     1
 40
1.0
176
     1
 90
        1
176
     1
 90
        6
176
     1
 90
        2
176
     1
 62
     7
176
     1
 90
        5
176
     1
 90
        0
176
     1
 90
        0
176
     1
290
     0
176
     1
 90
       13
176
     1
 40
0.0
176
     1
 90
        0
176
     1
290
     0
176
     1
290
     1
176
     1
290
     1
176
     1
290
     0
176
     1
290
     0
176
     1
290
     0
176
     1
290
     0
176
     1
290
     0
176
     1
290
     0
176
     1
 90
       50
176
     1
 40
0.0
176
     1
 40
1.0
176
     1
 90
        0
176
     1
 62
   178
420
        0
176
     1
 90
       50
176
     1
 90
        3
176
     1
 62
     5
420
      255
176
     1
290
     0
176
     1
 90
       50
176
     1
 90
       50
176
     1
 90
       50
176
     1
290
     0
176
     1
 90
       50
176
     1
 62
   256
176
     0
 40
1.0
176
     0
 90
        2
176
     1
  1
strokes_ogs.tif
176
     1
290
     0
176
     1
 40
1.0
176
     1
 40
1.0
176
     1
  0
VISUALSTYLE
  5
10577
102
{ACAD_REACTORS
330
10573
102
}
330
10573
100
AcDbVisualStyle
  2
GouraudWithEdges
 70
     3
177
     3
291
     1
 70
    58
 90
        2
176
     1
 90
        2
176
     1
 90
        1
176
     1
 90
        2
176
     1
 40
0.6
176
     1
 40
30.0
176
     1
 62
     7
420
 16777215
176
     1
 90
        1
176
     1
 90
        0
176
     1
 62
     7
176
     1
 62
   257
176
     1
 90
        1
176
     1
 90
        1
176
     1
 40
1.0
176
     1
 90
        0
176
     1
 62
   257
176
     1
 40
1.0
176
     1
 90
        1
176
     1
 90
        6
176
     1
 90
        2
176
     1
 62
     7
176
     1
 90
        5
176
     1
 90
        0
176
     1
 90
        0
176
     1
290
     0
176
     1
 90
       13
176
     1
 40
0.0
176
     1
 90
        0
176
     1
290
     0
176
     1
290
     1
176
     1
290
     1
176
     1
290
     0
176
     1
290
     0
176
     1
290
     0
176
     1
290
     0
176
     1
290
     0
176
     1
290
     0
176
     1
 90
       50
176
     1
 40
0.0
176
     1
 40
1.0
176
     1
 90
        0
176
     1
 62
   178
420
        0
176
     1
 90
       50
176
     1
 90
        3
176
     1
 62
     5
420
      255
176
     1
290
     0
176
     1
 90
       50
176
     1
 90
       50
176
     1
 90
       50
176
     1
290
     0
176
     1
 90
       50
176
     1
 62
   256
176
     0
 40
1.0
176
     0
 90
        2
176
     1
  1
strokes_ogs.tif
176
     1
290
     0
176
     1
 40
1.0
176
     1
 40
1.0
176
     1
  0
VISUALSTYLE
  5
1057A
102
{ACAD_REACTORS
330
10573
102
}
330
10573
100
AcDbVisualStyle
  2
Hidden
 70
     6
177
     3
291
     0
 70
    58
 90
        1
176
     1
 90
        2
176
     1
 90
        2
176
     1
 90
        0
176
     1
 40
0.6
176
     1
 40
30.0
176
     1
 62
     7
420
 16777215
176
     1
 90
        2
176
     1
 90
        2
176
     1
 62
     7
176
     1
 62
   257
176
     1
 90
        2
176
     1
 90
        1
176
     1
 40
40.0
176
     1
 90
        0
176
     1
 62
   257
176
     1
 40
1.0
176
     1
 90
        1
176
     1
 90
        6
176
     1
 90
        2
176
     1
 62
     7
176
     1
 90
        3
176
     1
 90
        0
176
     1
 90
        0
176
     1
290
     0
176
     1
 90
        1
176
     1
 40
0.0
176
     1
 90
        0
176
     1
290
     0
176
     1
290
     1
176
     1
290
     1
176
     1
290
     0
176
     1
290
     0
176
     1
290
     0
176
     1
290
     0
176
     1
290
     0
176
     1
290
     0
176
     1
 90
       50
176
     1
 40
0.0
176
     1
 40
1.0
176
     1
 90
        0
176
     1
 62
   178
420
        0
176
     1
 90
       50
176
     1
 90
        3
176
     1
 62
     5
420
      255
176
     1
290
     0
176
     1
 90
       50
176
     1
 90
       50
176
     1
 90
       50
176
     1
290
     0
176
     1
 90
       50
176
     1
 62
   256
176
     0
 40
1.0
176
     0
 90
        2
176
     1
  1
strokes_ogs.tif
176
     1
290
     0
176
     1
 40
1.0
176
     1
 40
1.0
176
     1
  0
VISUALSTYLE
  5
10584
102
{ACAD_REACTORS
330
10573
102
}
330
10573
100
AcDbVisualStyle
  2
JitterOff
 70
    20
177
     3
291
     1
 70
    58
 90
        2
176
     0
 90
        2
176
     0
 90
        0
176
     0
 90
        0
176
     0
 40
0.6
176
     0
 40
30.0
176
     0
 62
     7
420
 16777215
176
     0
 90
        1
176
     0
 90
        4
176
     0
 62
     7
176
     0
 62
   257
176
     0
 90
        1
176
     0
 90
        1
176
     0
 40
1.0
176
     0
 90
       10
176
     2
 62
     7
176
     0
 40
1.0
176
     0
 90
        1
176
     0
 90
        6
176
     0
 90
        2
176
     0
 62
     7
176
     0
 90
        5
176
     0
 90
        0
176
     0
 90
        0
176
     0
290
     0
176
     0
 90
        1
176
     0
 40
0.0
176
     0
 90
        0
176
     0
290
     0
176
     0
290
     1
176
     0
290
     1
176
     0
290
     0
176
     0
290
     0
176
     0
290
     0
176
     0
290
     0
176
     0
290
     0
176
     0
290
     0
176
     0
 90
       50
176
     0
 40
0.0
176
     0
 40
1.0
176
     0
 90
        0
176
     0
 62
   178
420
        0
176
     0
 90
       50
176
     0
 90
        3
176
     0
 62
     5
420
      255
176
     0
290
     0
176
     0
 90
       50
176
     0
 90
       50
176
     0
 90
       50
176
     0
290
     0
176
     0
 90
       50
176
     0
 62
   256
176
     0
 40
1.0
176
     0
 90
        2
176
     0
  1
strokes_ogs.tif
176
     0
290
     0
176
     0
 40
1.0
176
     0
 40
1.0
176
     0
  0
VISUALSTYLE
  5
10581
102
{ACAD_REACTORS
330
10573
102
}
330
10573
100
AcDbVisualStyle
  2
Linepattern
 70
    14
177
     3
291
     1
 70
    58
 90
        2
176
     1
 90
        2
176
     1
 90
        0
176
     1
 90
        0
176
     1
 40
0.6
176
     1
 40
30.0
176
     1
 62
     7
420
 16777215
176
     1
 90
        1
176
     1
 90
        4
176
     1
 62
     7
176
     1
 62
   257
176
     1
 90
        7
176
     1
 90
        7
176
     1
 40
1.0
176
     1
 90
        8
176
     1
 62
     7
176
     1
 40
1.0
176
     1
 90
        1
176
     1
 90
        6
176
     1
 90
        2
176
     1
 62
     7
176
     1
 90
        5
176
     1
 90
        0
176
     1
 90
        0
176
     1
290
     0
176
     1
 90
        1
176
     1
 40
0.0
176
     1
 90
        0
176
     1
290
     0
176
     1
290
     1
176
     1
290
     1
176
     1
290
     0
176
     1
290
     0
176
     1
290
     0
176
     1
290
     0
176
     1
290
     0
176
     1
290
     0
176
     1
 90
       50
176
     1
 40
0.0
176
     1
 40
1.0
176
     1
 90
        0
176
     1
 62
   178
420
        0
176
     1
 90
       50
176
     1
 90
        3
176
     1
 62
     5
420
      255
176
     1
290
     0
176
     1
 90
       50
176
     1
 90
       50
176
     1
 90
       50
176
     1
290
     0
176
     1
 90
       50
176
     1
 62
   256
176
     0
 40
1.0
176
     0
 90
        2
176
     1
  1
strokes_ogs.tif
176
     1
290
     0
176
     1
 40
1.0
176
     1
 40
1.0
176
     1
  0
VISUALSTYLE
  5
10585
102
{ACAD_REACTORS
330
10573
102
}
330
10573
100
AcDbVisualStyle
  2
OverhangOff
 70
    21
177
     3
291
     1
 70
    58
 90
        2
176
     0
 90
        2
176
     0
 90
        0
176
     0
 90
        0
176
     0
 40
0.6
176
     0
 40
30.0
176
     0
 62
     7
420
 16777215
176
     0
 90
        1
176
     0
 90
        4
176
     0
 62
     7
176
     0
 62
   257
176
     0
 90
        1
176
     0
 90
        1
176
     0
 40
1.0
176
     0
 90
        9
176
     2
 62
     7
176
     0
 40
1.0
176
     0
 90
        1
176
     0
 90
        6
176
     0
 90
        2
176
     0
 62
     7
176
     0
 90
        5
176
     0
 90
        0
176
     0
 90
        0
176
     0
290
     0
176
     0
 90
        1
176
     0
 40
0.0
176
     0
 90
        0
176
     0
290
     0
176
     0
290
     1
176
     0
290
     1
176
     0
290
     0
176
     0
290
     0
176
     0
290
     0
176
     0
290
     0
176
     0
290
     0
176
     0
290
     0
176
     0
 90
       50
176
     0
 40
0.0
176
     0
 40
1.0
176
     0
 90
        0
176
     0
 62
   178
420
        0
176
     0
 90
       50
176
     0
 90
        3
176
     0
 62
     5
420
      255
176
     0
290
     0
176
     0
 90
       50
176
     0
 90
       50
176
     0
 90
       50
176
     0
290
     0
176
     0
 90
       50
176
     0
 62
   256
176
     0
 40
1.0
176
     0
 90
        2
176
     0
  1
strokes_ogs.tif
176
     0
290
     0
176
     0
 40
1.0
176
     0
 40
1.0
176
     0
  0
VISUALSTYLE
  5
1057C
102
{ACAD_REACTORS
330
10573
102
}
330
10573
100
AcDbVisualStyle
  2
Realistic
 70
     8
177
     3
291
     0
 70
    58
 90
        2
176
     1
 90
        3
176
     1
 90
        0
176
     1
 90
        2
176
     1
 40
0.6
176
     1
 40
30.0
176
     1
 62
     7
420
 16777215
176
     1
 90
        0
176
     1
 90
        0
176
     1
 62
     7
176
     1
 62
   257
176
     1
 90
        1
176
     1
 90
        1
176
     1
 40
1.0
176
     1
 90
        8
176
     1
 62
   257
176
     1
 40
1.0
176
     1
 90
        1
176
     1
 90
        6
176
     1
 90
        2
176
     1
 62
     7
176
     1
 90
        3
176
     1
 90
        0
176
     1
 90
        0
176
     1
290
     0
176
     1
 90
       13
176
     1
 40
0.0
176
     1
 90
        0
176
     1
290
     0
176
     1
290
     1
176
     1
290
     1
176
     1
290
     0
176
     1
290
     0
176
     1
290
     0
176
     1
290
     0
176
     1
290
     0
176
     1
290
     0
176
     1
 90
       50
176
     1
 40
0.0
176
     1
 40
1.0
176
     1
 90
        0
176
     1
 62
   178
420
        0
176
     1
 90
       50
176
     1
 90
        3
176
     1
 62
     5
420
      255
176
     1
290
     0
176
     1
 90
       50
176
     1
 90
       50
176
     1
 90
       50
176
     1
290
     0
176
     1
 90
       50
176
     1
 62
   256
176
     0
 40
1.0
176
     0
 90
        2
176
     1
  1
strokes_ogs.tif
176
     1
290
     0
176
     1
 40
1.0
176
     1
 40
1.0
176
     1
  0
VISUALSTYLE
  5
1058B
102
{ACAD_REACTORS
330
10573
102
}
330
10573
100
AcDbVisualStyle
  2
Shaded
 70
    27
177
     3
291
     0
 70
    58
 90
        2
176
     1
 90
        2
176
     1
 90
        1
176
     1
 90
        2
176
     1
 40
0.6
176
     1
 40
30.0
176
     1
 62
     7
420
 16777215
176
     1
 90
        0
176
     1
 90
        4
176
     1
 62
     7
176
     1
 62
   257
176
     1
 90
        1
176
     1
 90
        1
176
     1
 40
1.0
176
     1
 90
        8
176
     1
 62
   257
176
     1
 40
1.0
176
     1
 90
        1
176
     1
 90
        6
176
     1
 90
        2
176
     1
 62
     8
420
  7895160
176
     1
 90
        3
176
     1
 90
        0
176
     1
 90
        0
176
     1
290
     0
176
     1
 90
        5
176
     1
 40
0.0
176
     1
 90
        0
176
     1
290
     0
176
     1
290
     1
176
     1
290
     1
176
     1
290
     0
176
     1
290
     0
176
     1
290
     0
176
     1
290
     0
176
     1
290
     0
176
     1
290
     0
176
     1
 90
       50
176
     1
 40
0.0
176
     1
 40
1.0
176
     1
 90
        0
176
     1
 62
   178
420
        0
176
     1
 90
       50
176
     1
 90
        3
176
     1
 62
     5
420
      255
176
     1
290
     0
176
     1
 90
       50
176
     1
 90
       50
176
     1
 90
       50
176
     1
290
     0
176
     1
 90
       50
176
     1
 62
   256
176
     0
 40
1.0
176
     0
 90
        2
176
     1
  1
strokes_ogs.tif
176
     1
290
     0
176
     1
 40
1.0
176
     1
 40
1.0
176
     1
  0
VISUALSTYLE
  5
1058A
102
{ACAD_REACTORS
330
10573
102
}
330
10573
100
AcDbVisualStyle
  2
Shaded with edges
 70
    26
177
     3
291
     0
 70
    58
 90
        2
176
     1
 90
        2
176
     1
 90
        1
176
     1
 90
        2
176
     1
 40
0.6
176
     1
 40
30.0
176
     1
 62
     7
420
 16777215
176
     1
 90
        1
176
     1
 90
       10
176
     1
 62
     7
176
     1
 62
   257
176
     1
 90
        2
176
     1
 90
        1
176
     1
 40
1.0
176
     1
 90
        8
176
     1
 62
   257
176
     1
 40
1.0
176
     1
 90
        1
176
     1
 90
        6
176
     1
 90
        2
176
     1
 62
     7
176
     1
 90
        3
176
     1
 90
        0
176
     1
 90
        0
176
     1
290
     0
176
     1
 90
        5
176
     1
 40
0.0
176
     1
 90
        0
176
     1
290
     0
176
     1
290
     1
176
     1
290
     1
176
     1
290
     0
176
     1
290
     0
176
     1
290
     0
176
     1
290
     0
176
     1
290
     0
176
     1
290
     0
176
     1
 90
       50
176
     1
 40
0.0
176
     1
 40
1.0
176
     1
 90
        0
176
     1
 62
   178
420
        0
176
     1
 90
       50
176
     1
 90
        3
176
     1
 62
     5
420
      255
176
     1
290
     0
176
     1
 90
       50
176
     1
 90
       50
176
     1
 90
       50
176
     1
290
     0
176
     1
 90
       50
176
     1
 62
   256
176
     0
 40
1.0
176
     0
 90
        2
176
     1
  1
strokes_ogs.tif
176
     1
290
     0
176
     1
 40
1.0
176
     1
 40
1.0
176
     1
  0
VISUALSTYLE
  5
10587
102
{ACAD_REACTORS
330
10573
102
}
330
10573
100
AcDbVisualStyle
  2
Shades of Gray
 70
    23
177
     3
291
     0
 70
    58
 90
        2
176
     1
 90
        2
176
     1
 90
        3
176
     1
 90
        0
176
     1
 40
0.6
176
     1
 40
30.0
176
     1
 62
     7
420
 16777215
176
     1
 90
        2
176
     1
 90
        2
176
     1
 62
     7
176
     1
 62
     7
176
     1
 90
        1
176
     1
 90
        1
176
     1
 40
40.0
176
     1
 90
        8
176
     1
 62
     7
176
     1
 40
1.0
176
     1
 90
        1
176
     1
 90
        6
176
     1
 90
        2
176
     1
 62
     7
176
     1
 90
        3
176
     1
 90
        0
176
     1
 90
        0
176
     1
290
     0
176
     1
 90
        1
176
     1
 40
0.0
176
     1
 90
        0
176
     1
290
     0
176
     1
290
     1
176
     1
290
     1
176
     1
290
     0
176
     1
290
     0
176
     1
290
     0
176
     1
290
     0
176
     1
290
     0
176
     1
290
     0
176
     1
 90
       50
176
     1
 40
0.0
176
     1
 40
1.0
176
     1
 90
        0
176
     1
 62
   178
420
        0
176
     1
 90
       50
176
     1
 90
        3
176
     1
 62
     5
420
      255
176
     1
290
     0
176
     1
 90
       50
176
     1
 90
       50
176
     1
 90
       50
176
     1
290
     0
176
     1
 90
       50
176
     1
 62
   256
176
     0
 40
1.0
176
     0
 90
        2
176
     1
  1
strokes_ogs.tif
176
     1
290
     0
176
     1
 40
1.0
176
     1
 40
1.0
176
     1
  0
VISUALSTYLE
  5
10588
102
{ACAD_REACTORS
330
10573
102
}
330
10573
100
AcDbVisualStyle
  2
Sketchy
 70
    24
177
     3
291
     0
 70
    58
 90
        1
176
     1
 90
        2
176
     1
 90
        2
176
     1
 90
        0
176
     1
 40
0.6
176
     1
 40
30.0
176
     1
 62
     7
420
 16777215
176
     1
 90
        2
176
     1
 90
        2
176
     1
 62
     7
176
     1
 62
     7
176
     1
 90
        1
176
     1
 90
        1
176
     1
 40
40.0
176
     1
 90
       11
176
     1
 62
     7
176
     1
 40
1.0
176
     1
 90
        1
176
     1
 90
        6
176
     1
 90
        2
176
     1
 62
     7
176
     1
 90
        6
176
     1
 90
        0
176
     1
 90
        0
176
     1
290
     0
176
     1
 90
        1
176
     1
 40
0.0
176
     1
 90
        0
176
     1
290
     0
176
     1
290
     1
176
     1
290
     1
176
     1
290
     0
176
     1
290
     0
176
     1
290
     0
176
     1
290
     0
176
     1
290
     0
176
     1
290
     0
176
     1
 90
       50
176
     1
 40
0.0
176
     1
 40
1.0
176
     1
 90
        0
176
     1
 62
   178
420
        0
176
     1
 90
       50
176
     1
 90
        3
176
     1
 62
     5
420
      255
176
     1
290
     0
176
     1
 90
       50
176
     1
 90
       50
176
     1
 90
       50
176
     1
290
     0
176
     1
 90
       50
176
     1
 62
   256
176
     0
 40
1.0
176
     0
 90
        2
176
     1
  1
strokes_ogs.tif
176
     1
290
     0
176
     1
 40
1.0
176
     1
 40
1.0
176
     1
  0
VISUALSTYLE
  5
10580
102
{ACAD_REACTORS
330
10573
102
}
330
10573
100
AcDbVisualStyle
  2
Thicken
 70
    13
177
     3
291
     1
 70
    58
 90
        2
176
     1
 90
        2
176
     1
 90
        0
176
     1
 90
        0
176
     1
 40
0.6
176
     1
 40
30.0
176
     1
 62
     7
420
 16777215
176
     1
 90
        1
176
     1
 90
        4
176
     1
 62
     7
176
     1
 62
   257
176
     1
 90
        1
176
     1
 90
        1
176
     1
 40
1.0
176
     1
 90
       12
176
     1
 62
     7
176
     1
 40
1.0
176
     1
 90
        1
176
     1
 90
        6
176
     1
 90
        2
176
     1
 62
     7
176
     1
 90
        5
176
     1
 90
        0
176
     1
 90
        0
176
     1
290
     0
176
     1
 90
        1
176
     1
 40
0.0
176
     1
 90
        0
176
     1
290
     0
176
     1
290
     1
176
     1
290
     1
176
     1
290
     0
176
     1
290
     0
176
     1
290
     0
176
     1
290
     0
176
     1
290
     0
176
     1
290
     0
176
     1
 90
       50
176
     1
 40
0.0
176
     1
 40
1.0
176
     1
 90
        0
176
     1
 62
   178
420
        0
176
     1
 90
       50
176
     1
 90
        3
176
     1
 62
     5
420
      255
176
     1
290
     0
176
     1
 90
       50
176
     1
 90
       50
176
     1
 90
       50
176
     1
290
     0
176
     1
 90
       50
176
     1
 62
   256
176
     0
 40
1.0
176
     0
 90
        2
176
     1
  1
strokes_ogs.tif
176
     1
290
     0
176
     1
 40
1.0
176
     1
 40
1.0
176
     1
  0
VISUALSTYLE
  5
10579
102
{ACAD_REACTORS
330
10573
102
}
330
10573
100
AcDbVisualStyle
  2
Wireframe
 70
     5
177
     3
291
     0
 70
    58
 90
        0
176
     1
 90
        2
176
     1
 90
        0
176
     1
 90
        0
176
     1
 40
0.6
176
     1
 40
30.0
176
     1
 62
     7
420
 16777215
176
     1
 90
        1
176
     1
 90
        4
176
     1
 62
     7
176
     1
 62
   257
176
     1
 90
        1
176
     1
 90
        1
176
     1
 40
1.0
176
     1
 90
        0
176
     1
 62
   257
176
     1
 40
1.0
176
     1
 90
        1
176
     1
 90
        6
176
     1
 90
        2
176
     1
 62
     7
176
     1
 90
        3
176
     1
 90
        0
176
     1
 90
        0
176
     1
290
     0
176
     1
 90
        1
176
     1
 40
0.0
176
     1
 90
        0
176
     1
290
     0
176
     1
290
     1
176
     1
290
     1
176
     1
290
     0
176
     1
290
     0
176
     1
290
     0
176
     1
290
     0
176
     1
290
     0
176
     1
290
     0
176
     1
 90
       50
176
     1
 40
0.0
176
     1
 40
1.0
176
     1
 90
        0
176
     1
 62
   178
420
        0
176
     1
 90
       50
176
     1
 90
        3
176
     1
 62
     5
420
      255
176
     1
290
     0
176
     1
 90
       50
176
     1
 90
       50
176
     1
 90
       50
176
     1
290
     0
176
     1
 90
       50
176
     1
 62
   256
176
     0
 40
1.0
176
     0
 90
        2
176
     1
  1
strokes_ogs.tif
176
     1
290
     0
176
     1
 40
1.0
176
     1
 40
1.0
176
     1
  0
VISUALSTYLE
  5
10589
102
{ACAD_REACTORS
330
10573
102
}
330
10573
100
AcDbVisualStyle
  2
X-Ray
 70
    25
177
     3
291
     0
 70
    58
 90
        2
176
     1
 90
        2
176
     1
 90
        1
176
     1
 90
        1
176
     1
 40
0.5
176
     1
 40
30.0
176
     1
 62
     7
420
 16777215
176
     1
 90
        1
176
     1
 90
        0
176
     1
 62
     7
176
     1
 62
   257
176
     1
 90
        1
176
     1
 90
        1
176
     1
 40
1.0
176
     1
 90
        8
176
     1
 62
     7
176
     1
 40
1.0
176
     1
 90
        1
176
     1
 90
        6
176
     1
 90
        2
176
     1
 62
     7
176
     1
 90
        3
176
     1
 90
        0
176
     1
 90
        0
176
     1
290
     0
176
     1
 90
       13
176
     1
 40
0.0
176
     1
 90
        0
176
     1
290
     0
176
     1
290
     1
176
     1
290
     1
176
     1
290
     0
176
     1
290
     0
176
     1
290
     0
176
     1
290
     0
176
     1
290
     0
176
     1
290
     0
176
     1
 90
       50
176
     1
 40
0.0
176
     1
 40
1.0
176
     1
 90
        0
176
     1
 62
   178
420
        0
176
     1
 90
       50
176
     1
 90
        3
176
     1
 62
     5
420
      255
176
     1
290
     0
176
     1
 90
       50
176
     1
 90
       50
176
     1
 90
       50
176
     1
290
     0
176
     1
 90
       50
176
     1
 62
   256
176
     0
 40
1.0
176
     0
 90
        2
176
     1
  1
strokes_ogs.tif
176
     1
290
     0
176
     1
 40
1.0
176
     1
 40
1.0
176
     1
  0
DICTIONARYVAR
  5
1063E
102
{ACAD_REACTORS
330
1063D
102
}
330
1063D
100
DictionaryVariables
280
     0
  1
1:1
  0
DICTIONARYVAR
  5
10643
102
{ACAD_REACTORS
330
1063D
102
}
330
1063D
100
DictionaryVariables
280
     0
  1
Standard
  0
DICTIONARYVAR
  5
10642
102
{ACAD_REACTORS
330
1063D
102
}
330
1063D
100
DictionaryVariables
280
     0
  1
Standard
  0
XRECORD
  5
105BA
102
{ACAD_REACTORS
330
105B8
102
}
330
105B8
100
AcDbXrecord
280
     1
1000
White
  0
XRECORD
  5
105BB
102
{ACAD_REACTORS
330
105B8
102
}
330
105B8
100
AcDbXrecord
280
     1
1000
FullColor
  0
XRECORD
  5
105BC
102
{ACAD_REACTORS
330
105B8
102
}
330
105B8
100
AcDbXrecord
280
     1
290
     1
  0
XRECORD
  5
105BD
102
{ACAD_REACTORS
330
105B8
102
}
330
105B8
100
AcDbXrecord
280
     1
290
     1
  0
XRECORD
  5
105BE
102
{ACAD_REACTORS
330
105B8
102
}
330
105B8
100
AcDbXrecord
280
     1
290
     1
  0
XRECORD
  5
105BF
102
{ACAD_REACTORS
330
105B8
102
}
330
105B8
100
AcDbXrecord
280
     1
290
     1
  0
XRECORD
  5
105C0
102
{ACAD_REACTORS
330
105B8
102
}
330
105B8
100
AcDbXrecord
280
     1
1000
auto
  0
XRECORD
  5
105C1
102
{ACAD_REACTORS
330
105B8
102
}
330
105B8
100
AcDbXrecord
280
     1
1000
auto
  0
XRECORD
  5
105C2
102
{ACAD_REACTORS
330
105B8
102
}
330
105B8
100
AcDbXrecord
280
     1
1000
auto
  0
XRECORD
  5
105C3
102
{ACAD_REACTORS
330
105B8
102
}
330
105B8
100
AcDbXrecord
280
     1
1000
auto
  0
XRECORD
  5
105C4
102
{ACAD_REACTORS
330
105B8
102
}
330
105B8
100
AcDbXrecord
280
     1
1000
auto
  0
XRECORD
  5
105C5
102
{ACAD_REACTORS
330
105B8
102
}
330
105B8
100
AcDbXrecord
280
     1
1000
auto
  0
XRECORD
  5
105C6
102
{ACAD_REACTORS
330
105B8
102
}
330
105B8
100
AcDbXrecord
280
     1
1000
auto
  0
XRECORD
  5
105C7
102
{ACAD_REACTORS
330
105B8
102
}
330
105B8
100
AcDbXrecord
280
     1
1000
auto
  0
XRECORD
  5
105C8
102
{ACAD_REACTORS
330
105B8
102
}
330
105B8
100
AcDbXrecord
280
     1
290
     0
  0
XRECORD
  5
105C9
102
{ACAD_REACTORS
330
105B8
102
}
330
105B8
100
AcDbXrecord
280
     1
290
     0
  0
XRECORD
  5
105CA
102
{ACAD_REACTORS
330
105B8
102
}
330
105B8
100
AcDbXrecord
280
     1
290
     0
  0
XRECORD
  5
105CB
102
{ACAD_REACTORS
330
105B8
102
}
330
105B8
100
AcDbXrecord
280
     1
290
     0
  0
XRECORD
  5
105CC
102
{ACAD_REACTORS
330
105B8
102
}
330
105B8
100
AcDbXrecord
280
     1
 90
        0
  0
XRECORD
  5
105CD
102
{ACAD_REACTORS
330
105B8
102
}
330
105B8
100
AcDbXrecord
280
     1
 90
        0
  0
XRECORD
  5
105CE
102
{ACAD_REACTORS
330
105B8
102
}
330
105B8
100
AcDbXrecord
280
     1
 90
        0
  0
XRECORD
  5
105CF
102
{ACAD_REACTORS
330
105B8
102
}
330
105B8
100
AcDbXrecord
280
     1
 90
        0
  0
XRECORD
  5
105D0
102
{ACAD_REACTORS
330
105B8
102
}
330
105B8
100
AcDbXrecord
280
     1
1000
auto
  0
XRECORD
  5
105D1
102
{ACAD_REACTORS
330
105B8
102
}
330
105B8
100
AcDbXrecord
280
     1
1000
auto
  0
XRECORD
  5
105D2
102
{ACAD_REACTORS
330
105B8
102
}
330
105B8
100
AcDbXrecord
280
     1
1000
auto
  0
XRECORD
  5
105D3
102
{ACAD_REACTORS
330
105B8
102
}
330
105B8
100
AcDbXrecord
280
     1
1000
auto
  0
XRECORD
  5
105D4
102
{ACAD_REACTORS
330
105B8
102
}
330
105B8
100
AcDbXrecord
280
     1
1000
auto
  0
XRECORD
  5
105D5
102
{ACAD_REACTORS
330
105B8
102
}
330
105B8
100
AcDbXrecord
280
     1
1000
auto
  0
XRECORD
  5
105D6
102
{ACAD_REACTORS
330
105B8
102
}
330
105B8
100
AcDbXrecord
280
     1
1000
auto
  0
XRECORD
  5
105D7
102
{ACAD_REACTORS
330
105B8
102
}
330
105B8
100
AcDbXrecord
280
     1
1000
auto
  0
XRECORD
  5
105D8
102
{ACAD_REACTORS
330
105B8
102
}
330
105B8
100
AcDbXrecord
280
     1
 90
        1
  0
XRECORD
  5
105D9
102
{ACAD_REACTORS
330
105B8
102
}
330
105B8
100
AcDbXrecord
280
     1
 40
0.5
  0
XRECORD
  5
105DA
102
{ACAD_REACTORS
330
105B8
102
}
330
105B8
100
AcDbXrecord
280
     1
 40
0.5
  0
XRECORD
  5
105DB
102
{ACAD_REACTORS
330
105B8
102
}
330
105B8
100
AcDbXrecord
280
     1
 40
0.5
  0
XRECORD
  5
105DC
102
{ACAD_REACTORS
330
105B8
102
}
330
105B8
100
AcDbXrecord
280
     1
 40
0.5
  0
XRECORD
  5
105DD
102
{ACAD_REACTORS
330
105B8
102
}
330
105B8
100
AcDbXrecord
280
     1
290
     0
  0
XRECORD
  5
105DE
102
{ACAD_REACTORS
330
105B8
102
}
330
105B8
100
AcDbXrecord
280
     1
 90
        1
  0
XRECORD
  5
105DF
102
{ACAD_REACTORS
330
105B8
102
}
330
105B8
100
AcDbXrecord
280
     1
 40
0.0
  0
XRECORD
  5
105E0
102
{ACAD_REACTORS
330
105B8
102
}
330
105B8
100
AcDbXrecord
280
     1
 40
0.0
  0
XRECORD
  5
105E1
102
{ACAD_REACTORS
330
105B8
102
}
330
105B8
100
AcDbXrecord
280
     1
1000
Portrait
  0
XRECORD
  5
105E2
102
{ACAD_REACTORS
330
105B8
102
}
330
105B8
100
AcDbXrecord
280
     1
 40
11.0
  0
XRECORD
  5
105E3
102
{ACAD_REACTORS
330
105B8
102
}
330
105B8
100
AcDbXrecord
280
     1
 40
8.5
  0
XRECORD
  5
105E4
102
{ACAD_REACTORS
330
105B8
102
}
330
105B8
100
AcDbXrecord
280
     1
1000
1:1
  0
XRECORD
  5
105E5
102
{ACAD_REACTORS
330
105B8
102
}
330
105B8
100
AcDbXrecord
280
     1
290
     1
  0
XRECORD
  5
105E6
102
{ACAD_REACTORS
330
105B8
102
}
330
105B8
100
AcDbXrecord
280
     1
1000
Button0
  0
XRECORD
  5
105E7
102
{ACAD_REACTORS
330
105B8
102
}
330
105B8
100
AcDbXrecord
280
     1
1000
0
  0
XRECORD
  5
105E8
102
{ACAD_REACTORS
330
105B8
102
}
330
105B8
100
AcDbXrecord
280
     1
1000
0
  0
XRECORD
  5
105E9
102
{ACAD_REACTORS
330
105B8
102
}
330
105B8
100
AcDbXrecord
280
     1
1000
3.15.4
  0
XRECORD
  5
105EA
102
{ACAD_REACTORS
330
105B8
102
}
330
105B8
100
AcDbXrecord
280
     1
 90
        5
  0
XRECORD
  5
105EB
102
{ACAD_REACTORS
330
105B8
102
}
330
105B8
100
AcDbXrecord
280
     1
  0
XRECORD
  5
105EC
102
{ACAD_REACTORS
330
105B8
102
}
330
105B8
100
AcDbXrecord
280
     1
 40
7737.195590158346
  0
XRECORD
  5
105ED
102
{ACAD_REACTORS
330
105B8
102
}
330
105B8
100
AcDbXrecord
280
     1
 40
13112.009739879
  0
DICTIONARY
  5
1063F
330
105B3
100
AcDbDictionary
280
     1
281
     1
  3
ACAD_ROUNDTRIP_2008_TABLESTYLE_CELLSTYLEMAP
360
10640
  0
CELLSTYLEMAP
  5
10640
102
{ACAD_REACTORS
330
1063F
102
}
330
1063F
100
AcDbCellStyleMap
 90
        3
300
CELLSTYLE
  1
TABLEFORMAT_BEGIN
 90
        5
170
     1
 91
        0
 92
    32768
 62
   257
 93
        1
300
CONTENTFORMAT
  1
CONTENTFORMAT_BEGIN
 90
        0
 91
        0
 92
        4
 93
        0
300

 40
0.0
140
1.0
 94
        5
 62
     0
340
1055B
144
0.25
309
CONTENTFORMAT_END
171
     1
301
MARGIN
  1
CELLMARGIN_BEGIN
 40
0.06
 40
0.06
 40
0.06
 40
0.06
 40
0.06
 40
0.06
309
CELLMARGIN_END
 94
        6
 95
        1
302
GRIDFORMAT
  1
GRIDFORMAT_BEGIN
 90
        0
 91
        1
 62
     0
 92
       -2
340
1055D
 93
        0
 40
0.045
309
GRIDFORMAT_END
 95
        2
302
GRIDFORMAT
  1
GRIDFORMAT_BEGIN
 90
        0
 91
        1
 62
     0
 92
       -2
340
1055D
 93
        0
 40
0.045
309
GRIDFORMAT_END
 95
        4
302
GRIDFORMAT
  1
GRIDFORMAT_BEGIN
 90
        0
 91
        1
 62
     0
 92
       -2
340
1055D
 93
        0
 40
0.045
309
GRIDFORMAT_END
 95
        8
302
GRIDFORMAT
  1
GRIDFORMAT_BEGIN
 90
        0
 91
        1
 62
     0
 92
       -2
340
1055D
 93
        0
 40
0.045
309
GRIDFORMAT_END
 95
       16
302
GRIDFORMAT
  1
GRIDFORMAT_BEGIN
 90
        0
 91
        1
 62
     0
 92
       -2
340
1055D
 93
        0
 40
0.045
309
GRIDFORMAT_END
 95
       32
302
GRIDFORMAT
  1
GRIDFORMAT_BEGIN
 90
        0
 91
        1
 62
     0
 92
       -2
340
1055D
 93
        0
 40
0.045
309
GRIDFORMAT_END
309
TABLEFORMAT_END
  1
CELLSTYLE_BEGIN
 90
        1
 91
        1
300
_TITLE
309
CELLSTYLE_END
300
CELLSTYLE
  1
TABLEFORMAT_BEGIN
 90
        5
170
     1
 91
        0
 92
        0
 62
   257
 93
        1
300
CONTENTFORMAT
  1
CONTENTFORMAT_BEGIN
 90
        0
 91
        0
 92
        4
 93
        0
300

 40
0.0
140
1.0
 94
        5
 62
     0
340
1055B
144
0.18
309
CONTENTFORMAT_END
171
     1
301
MARGIN
  1
CELLMARGIN_BEGIN
 40
0.06
 40
0.06
 40
0.06
 40
0.06
 40
0.06
 40
0.06
309
CELLMARGIN_END
 94
        6
 95
        1
302
GRIDFORMAT
  1
GRIDFORMAT_BEGIN
 90
        0
 91
        1
 62
     0
 92
       -2
340
1055D
 93
        0
 40
0.045
309
GRIDFORMAT_END
 95
        2
302
GRIDFORMAT
  1
GRIDFORMAT_BEGIN
 90
        0
 91
        1
 62
     0
 92
       -2
340
1055D
 93
        0
 40
0.045
309
GRIDFORMAT_END
 95
        4
302
GRIDFORMAT
  1
GRIDFORMAT_BEGIN
 90
        0
 91
        1
 62
     0
 92
       -2
340
1055D
 93
        0
 40
0.045
309
GRIDFORMAT_END
 95
        8
302
GRIDFORMAT
  1
GRIDFORMAT_BEGIN
 90
        0
 91
        1
 62
     0
 92
       -2
340
1055D
 93
        0
 40
0.045
309
GRIDFORMAT_END
 95
       16
302
GRIDFORMAT
  1
GRIDFORMAT_BEGIN
 90
        0
 91
        1
 62
     0
 92
       -2
340
1055D
 93
        0
 40
0.045
309
GRIDFORMAT_END
 95
       32
302
GRIDFORMAT
  1
GRIDFORMAT_BEGIN
 90
        0
 91
        1
 62
     0
 92
       -2
340
1055D
 93
        0
 40
0.045
309
GRIDFORMAT_END
309
TABLEFORMAT_END
  1
CELLSTYLE_BEGIN
 90
        2
 91
        1
300
_HEADER
309
CELLSTYLE_END
300
CELLSTYLE
  1
TABLEFORMAT_BEGIN
 90
        5
170
     1
 91
        0
 92
        0
 62
   257
 93
        1
300
CONTENTFORMAT
  1
CONTENTFORMAT_BEGIN
 90
        0
 91
        0
 92
        4
 93
        0
300

 40
0.0
140
1.0
 94
        2
 62
     0
340
1055B
144
0.18
309
CONTENTFORMAT_END
171
     1
301
MARGIN
  1
CELLMARGIN_BEGIN
 40
0.06
 40
0.06
 40
0.06
 40
0.06
 40
0.06
 40
0.06
309
CELLMARGIN_END
 94
        6
 95
        1
302
GRIDFORMAT
  1
GRIDFORMAT_BEGIN
 90
        0
 91
        1
 62
     0
 92
       -2
340
1055D
 93
        0
 40
0.045
309
GRIDFORMAT_END
 95
        2
302
GRIDFORMAT
  1
GRIDFORMAT_BEGIN
 90
        0
 91
        1
 62
     0
 92
       -2
340
1055D
 93
        0
 40
0.045
309
GRIDFORMAT_END
 95
        4
302
GRIDFORMAT
  1
GRIDFORMAT_BEGIN
 90
        0
 91
        1
 62
     0
 92
       -2
340
1055D
 93
        0
 40
0.045
309
GRIDFORMAT_END
 95
        8
302
GRIDFORMAT
  1
GRIDFORMAT_BEGIN
 90
        0
 91
        1
 62
     0
 92
       -2
340
1055D
 93
        0
 40
0.045
309
GRIDFORMAT_END
 95
       16
302
GRIDFORMAT
  1
GRIDFORMAT_BEGIN
 90
        0
 91
        1
 62
     0
 92
       -2
340
1055D
 93
        0
 40
0.045
309
GRIDFORMAT_END
 95
       32
302
GRIDFORMAT
  1
GRIDFORMAT_BEGIN
 90
        0
 91
        1
 62
     0
 92
       -2
340
1055D
 93
        0
 40
0.045
309
GRIDFORMAT_END
309
TABLEFORMAT_END
  1
CELLSTYLE_BEGIN
 90
        3
 91
        2
300
_DATA
309
CELLSTYLE_END
  0
ENDSEC
  0
EOF
